<svg xmlns="http://www.w3.org/2000/svg" width="642" height="668.32">
<rect width="100%" height="100%" fill="white"/>
<text x="321.0" y="40" font-family="serif" font-size="28" font-weight="normal" text-anchor="middle" fill="#222">Baa Baa Black Sheep</text>
<line x1="50" y1="126" x2="618" y2="126" stroke="#444" stroke-width="1"/>
<line x1="50" y1="137" x2="618" y2="137" stroke="#444" stroke-width="1"/>
<line x1="50" y1="148" x2="618" y2="148" stroke="#444" stroke-width="1"/>
<line x1="50" y1="159" x2="618" y2="159" stroke="#444" stroke-width="1"/>
<line x1="50" y1="170" x2="618" y2="170" stroke="#444" stroke-width="1"/>
<line x1="50" y1="126" x2="50" y2="170" stroke="#444" stroke-width="1"/>
<line x1="618" y1="126" x2="618" y2="170" stroke="#444" stroke-width="1"/>
<text x="62" y="167.25" font-size="55" font-family="FreeSerif, DejaVu Serif, Times New Roman, serif" text-anchor="middle" fill="#222">&#x1D11E;</text>
<line x1="71.124" y1="181.0" x2="108.876" y2="181.0" stroke="#444" stroke-width="1"/>
<line x1="71.124" y1="192.0" x2="108.876" y2="192.0" stroke="#444" stroke-width="1"/>
<circle cx="90" cy="192.0" r="8.58" fill="#d81b60" stroke="none"/>
<text x="90" y="196.0" font-family="sans-serif" font-size="13" font-weight="bold" text-anchor="middle" fill="#fff">4</text>
<text x="90" y="218.58" font-family="sans-serif" font-size="14" font-weight="normal" text-anchor="middle" fill="#222">Baa </text>
<line x1="115.124" y1="181.0" x2="152.876" y2="181.0" stroke="#444" stroke-width="1"/>
<line x1="115.124" y1="192.0" x2="152.876" y2="192.0" stroke="#444" stroke-width="1"/>
<circle cx="134" cy="192.0" r="8.58" fill="#d81b60" stroke="none"/>
<text x="134" y="196.0" font-family="sans-serif" font-size="13" font-weight="bold" text-anchor="middle" fill="#fff">4</text>
<text x="134" y="218.58" font-family="sans-serif" font-size="14" font-weight="normal" text-anchor="middle" fill="#222">baa </text>
<circle cx="178" cy="153.5" r="8.58" fill="#43a047" stroke="none"/>
<text x="178" y="157.5" font-family="sans-serif" font-size="13" font-weight="bold" text-anchor="middle" fill="#fff">8</text>
<text x="178" y="218.58" font-family="sans-serif" font-size="14" font-weight="normal" text-anchor="middle" fill="#222">black </text>
<circle cx="222" cy="153.5" r="8.58" fill="#43a047" stroke="none"/>
<text x="222" y="157.5" font-family="sans-serif" font-size="13" font-weight="bold" text-anchor="middle" fill="#fff">8</text>
<text x="222" y="218.58" font-family="sans-serif" font-size="14" font-weight="normal" text-anchor="middle" fill="#222">sheep </text>
<circle cx="266" cy="142.5" r="8.58" fill="#2e7d32" stroke="none"/>
<text x="266" y="146.5" font-family="sans-serif" font-size="13" font-weight="bold" text-anchor="middle" fill="#fff">9</text>
<text x="266" y="218.58" font-family="sans-serif" font-size="14" font-weight="normal" text-anchor="middle" fill="#222">have </text>
<circle cx="310" cy="142.5" r="8.58" fill="#2e7d32" stroke="none"/>
<text x="310" y="146.5" font-family="sans-serif" font-size="13" font-weight="bold" text-anchor="middle" fill="#fff">9</text>
<text x="310" y="218.58" font-family="sans-serif" font-size="14" font-weight="normal" text-anchor="middle" fill="#222">you </text>
<circle cx="354" cy="142.5" r="8.58" fill="#2e7d32" stroke="none"/>
<text x="354" y="146.5" font-family="sans-serif" font-size="13" font-weight="bold" text-anchor="middle" fill="#fff">9</text>
<text x="354" y="218.58" font-family="sans-serif" font-size="14" font-weight="normal" text-anchor="middle" fill="#222">a- </text>
<circle cx="398" cy="142.5" r="8.58" fill="#2e7d32" stroke="none"/>
<text x="398" y="146.5" font-family="sans-serif" font-size="13" font-weight="bold" text-anchor="middle" fill="#fff">9</text>
<text x="398" y="218.58" font-family="sans-serif" font-size="14" font-weight="normal" text-anchor="middle" fill="#222">ny </text>
<circle cx="442" cy="153.5" r="8.58" fill="#43a047" stroke="none"/>
<text x="442" y="157.5" font-family="sans-serif" font-size="13" font-weight="bold" text-anchor="middle" fill="#fff">8</text>
<text x="442" y="218.58" font-family="sans-serif" font-size="14" font-weight="normal" text-anchor="middle" fill="#222">wool?</text>
<line x1="50" y1="264.58000000000004" x2="618" y2="264.58000000000004" stroke="#444" stroke-width="1"/>
<line x1="50" y1="275.58000000000004" x2="618" y2="275.58000000000004" stroke="#444" stroke-width="1"/>
<line x1="50" y1="286.58000000000004" x2="618" y2="286.58000000000004" stroke="#444" stroke-width="1"/>
<line x1="50" y1="297.58000000000004" x2="618" y2="297.58000000000004" stroke="#444" stroke-width="1"/>
<line x1="50" y1="308.58000000000004" x2="618" y2="308.58000000000004" stroke="#444" stroke-width="1"/>
<line x1="50" y1="264.58000000000004" x2="50" y2="308.58000000000004" stroke="#444" stroke-width="1"/>
<line x1="618" y1="264.58000000000004" x2="618" y2="308.58000000000004" stroke="#444" stroke-width="1"/>
<text x="62" y="305.83000000000004" font-size="55" font-family="FreeSerif, DejaVu Serif, Times New Roman, serif" text-anchor="middle" fill="#222">&#x1D11E;</text>
<circle cx="90" cy="303.08000000000004" r="8.58" fill="#fbc02d" stroke="none"/>
<text x="90" y="307.08000000000004" font-family="sans-serif" font-size="13" font-weight="bold" text-anchor="middle" fill="#fff">7</text>
<text x="90" y="357.16" font-family="sans-serif" font-size="14" font-weight="normal" text-anchor="middle" fill="#222">Yes </text>
<circle cx="134" cy="303.08000000000004" r="8.58" fill="#fbc02d" stroke="none"/>
<text x="134" y="307.08000000000004" font-family="sans-serif" font-size="13" font-weight="bold" text-anchor="middle" fill="#fff">7</text>
<text x="134" y="357.16" font-family="sans-serif" font-size="14" font-weight="normal" text-anchor="middle" fill="#222">sir, </text>
<circle cx="178" cy="308.58000000000004" r="8.58" fill="#f57c00" stroke="none"/>
<text x="178" y="312.58000000000004" font-family="sans-serif" font-size="13" font-weight="bold" text-anchor="middle" fill="#fff">6</text>
<text x="178" y="357.16" font-family="sans-serif" font-size="14" font-weight="normal" text-anchor="middle" fill="#222">yes </text>
<circle cx="222" cy="308.58000000000004" r="8.58" fill="#f57c00" stroke="none"/>
<text x="222" y="312.58000000000004" font-family="sans-serif" font-size="13" font-weight="bold" text-anchor="middle" fill="#fff">6</text>
<text x="222" y="357.16" font-family="sans-serif" font-size="14" font-weight="normal" text-anchor="middle" fill="#222">sir, </text>
<line x1="247.124" y1="319.58000000000004" x2="284.876" y2="319.58000000000004" stroke="#444" stroke-width="1"/>
<circle cx="266" cy="319.58000000000004" r="8.58" fill="#e53935" stroke="none"/>
<text x="266" y="323.58000000000004" font-family="sans-serif" font-size="13" font-weight="bold" text-anchor="middle" fill="#fff">5</text>
<text x="266" y="357.16" font-family="sans-serif" font-size="14" font-weight="normal" text-anchor="middle" fill="#222">three </text>
<line x1="291.124" y1="319.58000000000004" x2="328.876" y2="319.58000000000004" stroke="#444" stroke-width="1"/>
<circle cx="310" cy="319.58000000000004" r="8.58" fill="#e53935" stroke="none"/>
<text x="310" y="323.58000000000004" font-family="sans-serif" font-size="13" font-weight="bold" text-anchor="middle" fill="#fff">5</text>
<text x="310" y="357.16" font-family="sans-serif" font-size="14" font-weight="normal" text-anchor="middle" fill="#222">bags </text>
<line x1="335.124" y1="319.58000000000004" x2="372.876" y2="319.58000000000004" stroke="#444" stroke-width="1"/>
<line x1="335.124" y1="330.58000000000004" x2="372.876" y2="330.58000000000004" stroke="#444" stroke-width="1"/>
<circle cx="354" cy="330.58000000000004" r="8.58" fill="#d81b60" stroke="none"/>
<text x="354" y="334.58000000000004" font-family="sans-serif" font-size="13" font-weight="bold" text-anchor="middle" fill="#fff">4</text>
<text x="354" y="357.16" font-family="sans-serif" font-size="14" font-weight="normal" text-anchor="middle" fill="#222">full</text>
<line x1="50" y1="403.16" x2="618" y2="403.16" stroke="#444" stroke-width="1"/>
<line x1="50" y1="414.16" x2="618" y2="414.16" stroke="#444" stroke-width="1"/>
<line x1="50" y1="425.16" x2="618" y2="425.16" stroke="#444" stroke-width="1"/>
<line x1="50" y1="436.16" x2="618" y2="436.16" stroke="#444" stroke-width="1"/>
<line x1="50" y1="447.16" x2="618" y2="447.16" stroke="#444" stroke-width="1"/>
<line x1="50" y1="403.16" x2="50" y2="447.16" stroke="#444" stroke-width="1"/>
<line x1="618" y1="403.16" x2="618" y2="447.16" stroke="#444" stroke-width="1"/>
<text x="62" y="444.41" font-size="55" font-family="FreeSerif, DejaVu Serif, Times New Roman, serif" text-anchor="middle" fill="#222">&#x1D11E;</text>
<circle cx="90" cy="430.66" r="8.58" fill="#43a047" stroke="none"/>
<text x="90" y="434.66" font-family="sans-serif" font-size="13" font-weight="bold" text-anchor="middle" fill="#fff">8</text>
<text x="90" y="473.74" font-family="sans-serif" font-size="14" font-weight="normal" text-anchor="middle" fill="#222">One </text>
<circle cx="134" cy="430.66" r="8.58" fill="#43a047" stroke="none"/>
<text x="134" y="434.66" font-family="sans-serif" font-size="13" font-weight="bold" text-anchor="middle" fill="#fff">8</text>
<text x="134" y="473.74" font-family="sans-serif" font-size="14" font-weight="normal" text-anchor="middle" fill="#222">for </text>
<circle cx="178" cy="430.66" r="8.58" fill="#43a047" stroke="none"/>
<text x="178" y="434.66" font-family="sans-serif" font-size="13" font-weight="bold" text-anchor="middle" fill="#fff">8</text>
<text x="178" y="473.74" font-family="sans-serif" font-size="14" font-weight="normal" text-anchor="middle" fill="#222">the </text>
<circle cx="222" cy="441.66" r="8.58" fill="#fbc02d" stroke="none"/>
<text x="222" y="445.66" font-family="sans-serif" font-size="13" font-weight="bold" text-anchor="middle" fill="#fff">7</text>
<text x="222" y="473.74" font-family="sans-serif" font-size="14" font-weight="normal" text-anchor="middle" fill="#222">mas- </text>
<circle cx="266" cy="441.66" r="8.58" fill="#fbc02d" stroke="none"/>
<text x="266" y="445.66" font-family="sans-serif" font-size="13" font-weight="bold" text-anchor="middle" fill="#fff">7</text>
<text x="266" y="473.74" font-family="sans-serif" font-size="14" font-weight="normal" text-anchor="middle" fill="#222">ter, </text>
<circle cx="310" cy="447.16" r="8.58" fill="#f57c00" stroke="none"/>
<text x="310" y="451.16" font-family="sans-serif" font-size="13" font-weight="bold" text-anchor="middle" fill="#fff">6</text>
<text x="310" y="473.74" font-family="sans-serif" font-size="14" font-weight="normal" text-anchor="middle" fill="#222">one </text>
<circle cx="354" cy="447.16" r="8.58" fill="#f57c00" stroke="none"/>
<text x="354" y="451.16" font-family="sans-serif" font-size="13" font-weight="bold" text-anchor="middle" fill="#fff">6</text>
<text x="354" y="473.74" font-family="sans-serif" font-size="14" font-weight="normal" text-anchor="middle" fill="#222">for </text>
<circle cx="398" cy="447.16" r="8.58" fill="#f57c00" stroke="none"/>
<text x="398" y="451.16" font-family="sans-serif" font-size="13" font-weight="bold" text-anchor="middle" fill="#fff">6</text>
<text x="398" y="473.74" font-family="sans-serif" font-size="14" font-weight="normal" text-anchor="middle" fill="#222">the dame</text>
<line x1="50" y1="519.74" x2="618" y2="519.74" stroke="#444" stroke-width="1"/>
<line x1="50" y1="530.74" x2="618" y2="530.74" stroke="#444" stroke-width="1"/>
<line x1="50" y1="541.74" x2="618" y2="541.74" stroke="#444" stroke-width="1"/>
<line x1="50" y1="552.74" x2="618" y2="552.74" stroke="#444" stroke-width="1"/>
<line x1="50" y1="563.74" x2="618" y2="563.74" stroke="#444" stroke-width="1"/>
<line x1="50" y1="519.74" x2="50" y2="563.74" stroke="#444" stroke-width="1"/>
<line x1="618" y1="519.74" x2="618" y2="563.74" stroke="#444" stroke-width="1"/>
<text x="62" y="560.99" font-size="55" font-family="FreeSerif, DejaVu Serif, Times New Roman, serif" text-anchor="middle" fill="#222">&#x1D11E;</text>
<text x="90" y="541.74" font-family="sans-serif" font-size="30" font-weight="normal" text-anchor="middle" fill="#888">·</text>
<text x="90" y="612.32" font-family="sans-serif" font-size="14" font-weight="normal" text-anchor="middle" fill="#222">and </text>
<circle cx="134" cy="547.24" r="8.58" fill="#43a047" stroke="none"/>
<text x="134" y="551.24" font-family="sans-serif" font-size="13" font-weight="bold" text-anchor="middle" fill="#fff">8</text>
<text x="134" y="612.32" font-family="sans-serif" font-size="14" font-weight="normal" text-anchor="middle" fill="#222">one </text>
<circle cx="178" cy="547.24" r="8.58" fill="#43a047" stroke="none"/>
<text x="178" y="551.24" font-family="sans-serif" font-size="13" font-weight="bold" text-anchor="middle" fill="#fff">8</text>
<text x="178" y="612.32" font-family="sans-serif" font-size="14" font-weight="normal" text-anchor="middle" fill="#222">for </text>
<circle cx="222" cy="547.24" r="8.58" fill="#43a047" stroke="none"/>
<text x="222" y="551.24" font-family="sans-serif" font-size="13" font-weight="bold" text-anchor="middle" fill="#fff">8</text>
<text x="222" y="612.32" font-family="sans-serif" font-size="14" font-weight="normal" text-anchor="middle" fill="#222">the </text>
<circle cx="266" cy="558.24" r="8.58" fill="#fbc02d" stroke="none"/>
<text x="266" y="562.24" font-family="sans-serif" font-size="13" font-weight="bold" text-anchor="middle" fill="#fff">7</text>
<text x="266" y="612.32" font-family="sans-serif" font-size="14" font-weight="normal" text-anchor="middle" fill="#222">lit- </text>
<circle cx="310" cy="558.24" r="8.58" fill="#fbc02d" stroke="none"/>
<text x="310" y="562.24" font-family="sans-serif" font-size="13" font-weight="bold" text-anchor="middle" fill="#fff">7</text>
<text x="310" y="612.32" font-family="sans-serif" font-size="14" font-weight="normal" text-anchor="middle" fill="#222">tle </text>
<circle cx="354" cy="536.24" r="8.58" fill="#2e7d32" stroke="none"/>
<text x="354" y="540.24" font-family="sans-serif" font-size="13" font-weight="bold" text-anchor="middle" fill="#fff">9</text>
<text x="354" y="612.32" font-family="sans-serif" font-size="14" font-weight="normal" text-anchor="middle" fill="#222">boy </text>
<circle cx="398" cy="547.24" r="8.58" fill="#43a047" stroke="none"/>
<text x="398" y="551.24" font-family="sans-serif" font-size="13" font-weight="bold" text-anchor="middle" fill="#fff">8</text>
<text x="398" y="612.32" font-family="sans-serif" font-size="14" font-weight="normal" text-anchor="middle" fill="#222">who </text>
<circle cx="442" cy="558.24" r="8.58" fill="#fbc02d" stroke="none"/>
<text x="442" y="562.24" font-family="sans-serif" font-size="13" font-weight="bold" text-anchor="middle" fill="#fff">7</text>
<text x="442" y="612.32" font-family="sans-serif" font-size="14" font-weight="normal" text-anchor="middle" fill="#222">lives </text>
<circle cx="486" cy="563.74" r="8.58" fill="#f57c00" stroke="none"/>
<text x="486" y="567.74" font-family="sans-serif" font-size="13" font-weight="bold" text-anchor="middle" fill="#fff">6</text>
<text x="486" y="612.32" font-family="sans-serif" font-size="14" font-weight="normal" text-anchor="middle" fill="#222">down </text>
<line x1="511.124" y1="574.74" x2="548.876" y2="574.74" stroke="#444" stroke-width="1"/>
<circle cx="530" cy="574.74" r="8.58" fill="#e53935" stroke="none"/>
<text x="530" y="578.74" font-family="sans-serif" font-size="13" font-weight="bold" text-anchor="middle" fill="#fff">5</text>
<text x="530" y="612.32" font-family="sans-serif" font-size="14" font-weight="normal" text-anchor="middle" fill="#222">the </text>
<line x1="555.124" y1="574.74" x2="592.876" y2="574.74" stroke="#444" stroke-width="1"/>
<line x1="555.124" y1="585.74" x2="592.876" y2="585.74" stroke="#444" stroke-width="1"/>
<circle cx="574" cy="585.74" r="8.58" fill="#d81b60" stroke="none"/>
<text x="574" y="589.74" font-family="sans-serif" font-size="13" font-weight="bold" text-anchor="middle" fill="#fff">4</text>
<text x="574" y="612.32" font-family="sans-serif" font-size="14" font-weight="normal" text-anchor="middle" fill="#222">lane</text>
</svg>