<svg xmlns="http://www.w3.org/2000/svg" width="642" height="640.82">
<rect width="100%" height="100%" fill="white"/>
<text x="321.0" y="40" font-family="serif" font-size="28" font-weight="normal" text-anchor="middle" fill="#222">Baa Baa Black Sheep</text>
<line x1="50" y1="126" x2="618" y2="126" stroke="#444" stroke-width="1"/>
<line x1="50" y1="137" x2="618" y2="137" stroke="#444" stroke-width="1"/>
<line x1="50" y1="148" x2="618" y2="148" stroke="#444" stroke-width="1"/>
<line x1="50" y1="159" x2="618" y2="159" stroke="#444" stroke-width="1"/>
<line x1="50" y1="170" x2="618" y2="170" stroke="#444" stroke-width="1"/>
<line x1="50" y1="126" x2="50" y2="170" stroke="#444" stroke-width="1"/>
<line x1="618" y1="126" x2="618" y2="170" stroke="#444" stroke-width="1"/>
<text x="62" y="167.25" font-size="55" font-family="FreeSerif, DejaVu Serif, Times New Roman, serif" text-anchor="middle" fill="#222">&#x1D11E;</text>
<line x1="71.124" y1="181.0" x2="108.876" y2="181.0" stroke="#444" stroke-width="1"/>
<circle cx="90" cy="181.0" r="8.58" fill="#d81b60" stroke="none"/>
<text x="90" y="185.0" font-family="sans-serif" font-size="13" font-weight="bold" text-anchor="middle" fill="#fff">4</text>
<text x="90" y="207.58" font-family="sans-serif" font-size="14" font-weight="normal" text-anchor="middle" fill="#222">Baa </text>
<line x1="115.124" y1="181.0" x2="152.876" y2="181.0" stroke="#444" stroke-width="1"/>
<circle cx="134" cy="181.0" r="8.58" fill="#d81b60" stroke="none"/>
<text x="134" y="185.0" font-family="sans-serif" font-size="13" font-weight="bold" text-anchor="middle" fill="#fff">4</text>
<text x="134" y="207.58" font-family="sans-serif" font-size="14" font-weight="normal" text-anchor="middle" fill="#222">baa </text>
<circle cx="178" cy="159.0" r="8.58" fill="#43a047" stroke="none"/>
<text x="178" y="163.0" font-family="sans-serif" font-size="13" font-weight="bold" text-anchor="middle" fill="#fff">8</text>
<text x="178" y="207.58" font-family="sans-serif" font-size="14" font-weight="normal" text-anchor="middle" fill="#222">black </text>
<circle cx="222" cy="159.0" r="8.58" fill="#43a047" stroke="none"/>
<text x="222" y="163.0" font-family="sans-serif" font-size="13" font-weight="bold" text-anchor="middle" fill="#fff">8</text>
<text x="222" y="207.58" font-family="sans-serif" font-size="14" font-weight="normal" text-anchor="middle" fill="#222">sheep </text>
<circle cx="266" cy="153.5" r="8.58" fill="#2e7d32" stroke="none"/>
<text x="266" y="157.5" font-family="sans-serif" font-size="13" font-weight="bold" text-anchor="middle" fill="#fff">9</text>
<text x="266" y="207.58" font-family="sans-serif" font-size="14" font-weight="normal" text-anchor="middle" fill="#222">have </text>
<circle cx="310" cy="153.5" r="8.58" fill="#2e7d32" stroke="none"/>
<text x="310" y="157.5" font-family="sans-serif" font-size="13" font-weight="bold" text-anchor="middle" fill="#fff">9</text>
<text x="310" y="207.58" font-family="sans-serif" font-size="14" font-weight="normal" text-anchor="middle" fill="#222">you </text>
<circle cx="354" cy="153.5" r="8.58" fill="#2e7d32" stroke="none"/>
<text x="354" y="157.5" font-family="sans-serif" font-size="13" font-weight="bold" text-anchor="middle" fill="#fff">9</text>
<text x="354" y="207.58" font-family="sans-serif" font-size="14" font-weight="normal" text-anchor="middle" fill="#222">a- </text>
<circle cx="398" cy="153.5" r="8.58" fill="#2e7d32" stroke="none"/>
<text x="398" y="157.5" font-family="sans-serif" font-size="13" font-weight="bold" text-anchor="middle" fill="#fff">9</text>
<text x="398" y="207.58" font-family="sans-serif" font-size="14" font-weight="normal" text-anchor="middle" fill="#222">ny </text>
<circle cx="442" cy="159.0" r="8.58" fill="#43a047" stroke="none"/>
<text x="442" y="163.0" font-family="sans-serif" font-size="13" font-weight="bold" text-anchor="middle" fill="#fff">8</text>
<text x="442" y="207.58" font-family="sans-serif" font-size="14" font-weight="normal" text-anchor="middle" fill="#222">wool?</text>
<line x1="50" y1="253.58" x2="618" y2="253.58" stroke="#444" stroke-width="1"/>
<line x1="50" y1="264.58000000000004" x2="618" y2="264.58000000000004" stroke="#444" stroke-width="1"/>
<line x1="50" y1="275.58000000000004" x2="618" y2="275.58000000000004" stroke="#444" stroke-width="1"/>
<line x1="50" y1="286.58000000000004" x2="618" y2="286.58000000000004" stroke="#444" stroke-width="1"/>
<line x1="50" y1="297.58000000000004" x2="618" y2="297.58000000000004" stroke="#444" stroke-width="1"/>
<line x1="50" y1="253.58" x2="50" y2="297.58000000000004" stroke="#444" stroke-width="1"/>
<line x1="618" y1="253.58" x2="618" y2="297.58000000000004" stroke="#444" stroke-width="1"/>
<text x="62" y="294.83000000000004" font-size="55" font-family="FreeSerif, DejaVu Serif, Times New Roman, serif" text-anchor="middle" fill="#222">&#x1D11E;</text>
<circle cx="90" cy="292.08000000000004" r="8.58" fill="#fbc02d" stroke="none"/>
<text x="90" y="296.08000000000004" font-family="sans-serif" font-size="13" font-weight="bold" text-anchor="middle" fill="#fff">7</text>
<text x="90" y="335.16" font-family="sans-serif" font-size="14" font-weight="normal" text-anchor="middle" fill="#222">Yes </text>
<circle cx="134" cy="292.08000000000004" r="8.58" fill="#fbc02d" stroke="none"/>
<text x="134" y="296.08000000000004" font-family="sans-serif" font-size="13" font-weight="bold" text-anchor="middle" fill="#fff">7</text>
<text x="134" y="335.16" font-family="sans-serif" font-size="14" font-weight="normal" text-anchor="middle" fill="#222">sir, </text>
<circle cx="178" cy="297.58000000000004" r="8.58" fill="#f57c00" stroke="none"/>
<text x="178" y="301.58000000000004" font-family="sans-serif" font-size="13" font-weight="bold" text-anchor="middle" fill="#fff">6</text>
<text x="178" y="335.16" font-family="sans-serif" font-size="14" font-weight="normal" text-anchor="middle" fill="#222">yes </text>
<circle cx="222" cy="297.58000000000004" r="8.58" fill="#f57c00" stroke="none"/>
<text x="222" y="301.58000000000004" font-family="sans-serif" font-size="13" font-weight="bold" text-anchor="middle" fill="#fff">6</text>
<text x="222" y="335.16" font-family="sans-serif" font-size="14" font-weight="normal" text-anchor="middle" fill="#222">sir, </text>
<line x1="247.124" y1="308.58000000000004" x2="284.876" y2="308.58000000000004" stroke="#444" stroke-width="1"/>
<circle cx="266" cy="303.08000000000004" r="8.58" fill="#e53935" stroke="none"/>
<text x="266" y="307.08000000000004" font-family="sans-serif" font-size="13" font-weight="bold" text-anchor="middle" fill="#fff">5</text>
<text x="266" y="335.16" font-family="sans-serif" font-size="14" font-weight="normal" text-anchor="middle" fill="#222">three </text>
<line x1="291.124" y1="308.58000000000004" x2="328.876" y2="308.58000000000004" stroke="#444" stroke-width="1"/>
<circle cx="310" cy="303.08000000000004" r="8.58" fill="#e53935" stroke="none"/>
<text x="310" y="307.08000000000004" font-family="sans-serif" font-size="13" font-weight="bold" text-anchor="middle" fill="#fff">5</text>
<text x="310" y="335.16" font-family="sans-serif" font-size="14" font-weight="normal" text-anchor="middle" fill="#222">bags </text>
<line x1="335.124" y1="308.58000000000004" x2="372.876" y2="308.58000000000004" stroke="#444" stroke-width="1"/>
<circle cx="354" cy="308.58000000000004" r="8.58" fill="#d81b60" stroke="none"/>
<text x="354" y="312.58000000000004" font-family="sans-serif" font-size="13" font-weight="bold" text-anchor="middle" fill="#fff">4</text>
<text x="354" y="335.16" font-family="sans-serif" font-size="14" font-weight="normal" text-anchor="middle" fill="#222">full</text>
<line x1="50" y1="381.16" x2="618" y2="381.16" stroke="#444" stroke-width="1"/>
<line x1="50" y1="392.16" x2="618" y2="392.16" stroke="#444" stroke-width="1"/>
<line x1="50" y1="403.16" x2="618" y2="403.16" stroke="#444" stroke-width="1"/>
<line x1="50" y1="414.16" x2="618" y2="414.16" stroke="#444" stroke-width="1"/>
<line x1="50" y1="425.16" x2="618" y2="425.16" stroke="#444" stroke-width="1"/>
<line x1="50" y1="381.16" x2="50" y2="425.16" stroke="#444" stroke-width="1"/>
<line x1="618" y1="381.16" x2="618" y2="425.16" stroke="#444" stroke-width="1"/>
<text x="62" y="422.41" font-size="55" font-family="FreeSerif, DejaVu Serif, Times New Roman, serif" text-anchor="middle" fill="#222">&#x1D11E;</text>
<circle cx="90" cy="414.16" r="8.58" fill="#43a047" stroke="none"/>
<text x="90" y="418.16" font-family="sans-serif" font-size="13" font-weight="bold" text-anchor="middle" fill="#fff">8</text>
<text x="90" y="457.24" font-family="sans-serif" font-size="14" font-weight="normal" text-anchor="middle" fill="#222">One </text>
<circle cx="134" cy="414.16" r="8.58" fill="#43a047" stroke="none"/>
<text x="134" y="418.16" font-family="sans-serif" font-size="13" font-weight="bold" text-anchor="middle" fill="#fff">8</text>
<text x="134" y="457.24" font-family="sans-serif" font-size="14" font-weight="normal" text-anchor="middle" fill="#222">for </text>
<circle cx="178" cy="414.16" r="8.58" fill="#43a047" stroke="none"/>
<text x="178" y="418.16" font-family="sans-serif" font-size="13" font-weight="bold" text-anchor="middle" fill="#fff">8</text>
<text x="178" y="457.24" font-family="sans-serif" font-size="14" font-weight="normal" text-anchor="middle" fill="#222">the </text>
<circle cx="222" cy="419.66" r="8.58" fill="#fbc02d" stroke="none"/>
<text x="222" y="423.66" font-family="sans-serif" font-size="13" font-weight="bold" text-anchor="middle" fill="#fff">7</text>
<text x="222" y="457.24" font-family="sans-serif" font-size="14" font-weight="normal" text-anchor="middle" fill="#222">mas- </text>
<circle cx="266" cy="419.66" r="8.58" fill="#fbc02d" stroke="none"/>
<text x="266" y="423.66" font-family="sans-serif" font-size="13" font-weight="bold" text-anchor="middle" fill="#fff">7</text>
<text x="266" y="457.24" font-family="sans-serif" font-size="14" font-weight="normal" text-anchor="middle" fill="#222">ter, </text>
<circle cx="310" cy="425.16" r="8.58" fill="#f57c00" stroke="none"/>
<text x="310" y="429.16" font-family="sans-serif" font-size="13" font-weight="bold" text-anchor="middle" fill="#fff">6</text>
<text x="310" y="457.24" font-family="sans-serif" font-size="14" font-weight="normal" text-anchor="middle" fill="#222">one </text>
<circle cx="354" cy="425.16" r="8.58" fill="#f57c00" stroke="none"/>
<text x="354" y="429.16" font-family="sans-serif" font-size="13" font-weight="bold" text-anchor="middle" fill="#fff">6</text>
<text x="354" y="457.24" font-family="sans-serif" font-size="14" font-weight="normal" text-anchor="middle" fill="#222">for </text>
<circle cx="398" cy="425.16" r="8.58" fill="#f57c00" stroke="none"/>
<text x="398" y="429.16" font-family="sans-serif" font-size="13" font-weight="bold" text-anchor="middle" fill="#fff">6</text>
<text x="398" y="457.24" font-family="sans-serif" font-size="14" font-weight="normal" text-anchor="middle" fill="#222">the </text>
<line x1="423.124" y1="436.16" x2="460.876" y2="436.16" stroke="#444" stroke-width="1"/>
<circle cx="442" cy="430.66" r="8.58" fill="#e53935" stroke="none"/>
<text x="442" y="434.66" font-family="sans-serif" font-size="13" font-weight="bold" text-anchor="middle" fill="#fff">5</text>
<text x="442" y="457.24" font-family="sans-serif" font-size="14" font-weight="normal" text-anchor="middle" fill="#222">dame</text>
<line x1="50" y1="503.24" x2="618" y2="503.24" stroke="#444" stroke-width="1"/>
<line x1="50" y1="514.24" x2="618" y2="514.24" stroke="#444" stroke-width="1"/>
<line x1="50" y1="525.24" x2="618" y2="525.24" stroke="#444" stroke-width="1"/>
<line x1="50" y1="536.24" x2="618" y2="536.24" stroke="#444" stroke-width="1"/>
<line x1="50" y1="547.24" x2="618" y2="547.24" stroke="#444" stroke-width="1"/>
<line x1="50" y1="503.24" x2="50" y2="547.24" stroke="#444" stroke-width="1"/>
<line x1="618" y1="503.24" x2="618" y2="547.24" stroke="#444" stroke-width="1"/>
<text x="62" y="544.49" font-size="55" font-family="FreeSerif, DejaVu Serif, Times New Roman, serif" text-anchor="middle" fill="#222">&#x1D11E;</text>
<text x="90" y="525.24" font-family="sans-serif" font-size="30" font-weight="normal" text-anchor="middle" fill="#888">·</text>
<text x="90" y="584.82" font-family="sans-serif" font-size="14" font-weight="normal" text-anchor="middle" fill="#222">and </text>
<circle cx="134" cy="536.24" r="8.58" fill="#43a047" stroke="none"/>
<text x="134" y="540.24" font-family="sans-serif" font-size="13" font-weight="bold" text-anchor="middle" fill="#fff">8</text>
<text x="134" y="584.82" font-family="sans-serif" font-size="14" font-weight="normal" text-anchor="middle" fill="#222">one </text>
<circle cx="178" cy="536.24" r="8.58" fill="#43a047" stroke="none"/>
<text x="178" y="540.24" font-family="sans-serif" font-size="13" font-weight="bold" text-anchor="middle" fill="#fff">8</text>
<text x="178" y="584.82" font-family="sans-serif" font-size="14" font-weight="normal" text-anchor="middle" fill="#222">for </text>
<circle cx="222" cy="536.24" r="8.58" fill="#43a047" stroke="none"/>
<text x="222" y="540.24" font-family="sans-serif" font-size="13" font-weight="bold" text-anchor="middle" fill="#fff">8</text>
<text x="222" y="584.82" font-family="sans-serif" font-size="14" font-weight="normal" text-anchor="middle" fill="#222">the </text>
<circle cx="266" cy="541.74" r="8.58" fill="#fbc02d" stroke="none"/>
<text x="266" y="545.74" font-family="sans-serif" font-size="13" font-weight="bold" text-anchor="middle" fill="#fff">7</text>
<text x="266" y="584.82" font-family="sans-serif" font-size="14" font-weight="normal" text-anchor="middle" fill="#222">lit- </text>
<circle cx="310" cy="541.74" r="8.58" fill="#fbc02d" stroke="none"/>
<text x="310" y="545.74" font-family="sans-serif" font-size="13" font-weight="bold" text-anchor="middle" fill="#fff">7</text>
<text x="310" y="584.82" font-family="sans-serif" font-size="14" font-weight="normal" text-anchor="middle" fill="#222">tle </text>
<circle cx="354" cy="530.74" r="8.58" fill="#2e7d32" stroke="none"/>
<text x="354" y="534.74" font-family="sans-serif" font-size="13" font-weight="bold" text-anchor="middle" fill="#fff">9</text>
<text x="354" y="584.82" font-family="sans-serif" font-size="14" font-weight="normal" text-anchor="middle" fill="#222">boy </text>
<circle cx="398" cy="536.24" r="8.58" fill="#43a047" stroke="none"/>
<text x="398" y="540.24" font-family="sans-serif" font-size="13" font-weight="bold" text-anchor="middle" fill="#fff">8</text>
<text x="398" y="584.82" font-family="sans-serif" font-size="14" font-weight="normal" text-anchor="middle" fill="#222">who </text>
<circle cx="442" cy="541.74" r="8.58" fill="#fbc02d" stroke="none"/>
<text x="442" y="545.74" font-family="sans-serif" font-size="13" font-weight="bold" text-anchor="middle" fill="#fff">7</text>
<text x="442" y="584.82" font-family="sans-serif" font-size="14" font-weight="normal" text-anchor="middle" fill="#222">lives </text>
<circle cx="486" cy="547.24" r="8.58" fill="#f57c00" stroke="none"/>
<text x="486" y="551.24" font-family="sans-serif" font-size="13" font-weight="bold" text-anchor="middle" fill="#fff">6</text>
<text x="486" y="584.82" font-family="sans-serif" font-size="14" font-weight="normal" text-anchor="middle" fill="#222">down </text>
<line x1="511.124" y1="558.24" x2="548.876" y2="558.24" stroke="#444" stroke-width="1"/>
<circle cx="530" cy="552.74" r="8.58" fill="#e53935" stroke="none"/>
<text x="530" y="556.74" font-family="sans-serif" font-size="13" font-weight="bold" text-anchor="middle" fill="#fff">5</text>
<text x="530" y="584.82" font-family="sans-serif" font-size="14" font-weight="normal" text-anchor="middle" fill="#222">the </text>
<line x1="555.124" y1="558.24" x2="592.876" y2="558.24" stroke="#444" stroke-width="1"/>
<circle cx="574" cy="558.24" r="8.58" fill="#d81b60" stroke="none"/>
<text x="574" y="562.24" font-family="sans-serif" font-size="13" font-weight="bold" text-anchor="middle" fill="#fff">4</text>
<text x="574" y="584.82" font-family="sans-serif" font-size="14" font-weight="normal" text-anchor="middle" fill="#222">lane</text>
</svg>