<svg xmlns="http://www.w3.org/2000/svg" width="1258" height="274.58000000000004">
<rect width="100%" height="100%" fill="white"/>
<text x="629.0" y="40" font-family="serif" font-size="28" font-weight="normal" text-anchor="middle" fill="#222">Crazy Frog</text>
<line x1="50" y1="126" x2="1234" y2="126" stroke="#444" stroke-width="1"/>
<line x1="50" y1="137" x2="1234" y2="137" stroke="#444" stroke-width="1"/>
<line x1="50" y1="148" x2="1234" y2="148" stroke="#444" stroke-width="1"/>
<line x1="50" y1="159" x2="1234" y2="159" stroke="#444" stroke-width="1"/>
<line x1="50" y1="170" x2="1234" y2="170" stroke="#444" stroke-width="1"/>
<line x1="50" y1="126" x2="50" y2="170" stroke="#444" stroke-width="1"/>
<line x1="1234" y1="126" x2="1234" y2="170" stroke="#444" stroke-width="1"/>
<text x="62" y="167.25" font-size="55" font-family="FreeSerif, DejaVu Serif, Times New Roman, serif" text-anchor="middle" fill="#222">&#x1D11E;</text>
<line x1="71.124" y1="181.0" x2="108.876" y2="181.0" stroke="#444" stroke-width="1"/>
<circle cx="90" cy="181.0" r="8.58" fill="#e53935" stroke="none"/>
<text x="90" y="185.0" font-family="sans-serif" font-size="13" font-weight="bold" text-anchor="middle" fill="#fff">5</text>
<text x="90" y="218.58" font-family="sans-serif" font-size="14" font-weight="normal" text-anchor="middle" fill="#222"> </text>
<circle cx="134" cy="164.5" r="8.58" fill="#fbc02d" stroke="none"/>
<text x="134" y="168.5" font-family="sans-serif" font-size="13" font-weight="bold" text-anchor="middle" fill="#fff">7</text>
<text x="134" y="218.58" font-family="sans-serif" font-size="14" font-weight="normal" text-anchor="middle" fill="#222"> </text>
<line x1="159.124" y1="181.0" x2="196.876" y2="181.0" stroke="#444" stroke-width="1"/>
<circle cx="178" cy="181.0" r="8.58" fill="#e53935" stroke="none"/>
<text x="178" y="185.0" font-family="sans-serif" font-size="13" font-weight="bold" text-anchor="middle" fill="#fff">5</text>
<text x="178" y="218.58" font-family="sans-serif" font-size="14" font-weight="normal" text-anchor="middle" fill="#222"> </text>
<line x1="203.124" y1="181.0" x2="240.876" y2="181.0" stroke="#444" stroke-width="1"/>
<circle cx="222" cy="181.0" r="8.58" fill="#e53935" stroke="none"/>
<text x="222" y="185.0" font-family="sans-serif" font-size="13" font-weight="bold" text-anchor="middle" fill="#fff">5</text>
<text x="222" y="218.58" font-family="sans-serif" font-size="14" font-weight="normal" text-anchor="middle" fill="#222"> </text>
<circle cx="266" cy="153.5" r="8.58" fill="#43a047" stroke="none"/>
<text x="266" y="157.5" font-family="sans-serif" font-size="13" font-weight="bold" text-anchor="middle" fill="#fff">8</text>
<text x="266" y="218.58" font-family="sans-serif" font-size="14" font-weight="normal" text-anchor="middle" fill="#222"> </text>
<line x1="291.124" y1="181.0" x2="328.876" y2="181.0" stroke="#444" stroke-width="1"/>
<circle cx="310" cy="181.0" r="8.58" fill="#e53935" stroke="none"/>
<text x="310" y="185.0" font-family="sans-serif" font-size="13" font-weight="bold" text-anchor="middle" fill="#fff">5</text>
<text x="310" y="218.58" font-family="sans-serif" font-size="14" font-weight="normal" text-anchor="middle" fill="#222"> </text>
<line x1="335.124" y1="181.0" x2="372.876" y2="181.0" stroke="#444" stroke-width="1"/>
<line x1="335.124" y1="192.0" x2="372.876" y2="192.0" stroke="#444" stroke-width="1"/>
<circle cx="354" cy="192.0" r="8.58" fill="#d81b60" stroke="none"/>
<text x="354" y="196.0" font-family="sans-serif" font-size="13" font-weight="bold" text-anchor="middle" fill="#fff">4</text>
<text x="354" y="218.58" font-family="sans-serif" font-size="14" font-weight="normal" text-anchor="middle" fill="#222"> </text>
<line x1="379.124" y1="181.0" x2="416.876" y2="181.0" stroke="#444" stroke-width="1"/>
<circle cx="398" cy="181.0" r="8.58" fill="#e53935" stroke="none"/>
<text x="398" y="185.0" font-family="sans-serif" font-size="13" font-weight="bold" text-anchor="middle" fill="#fff">5</text>
<text x="398" y="218.58" font-family="sans-serif" font-size="14" font-weight="normal" text-anchor="middle" fill="#222"> </text>
<circle cx="442" cy="142.5" r="8.58" fill="#2e7d32" stroke="none"/>
<text x="442" y="146.5" font-family="sans-serif" font-size="13" font-weight="bold" text-anchor="middle" fill="#fff">9</text>
<text x="442" y="218.58" font-family="sans-serif" font-size="14" font-weight="normal" text-anchor="middle" fill="#222"> </text>
<line x1="467.124" y1="181.0" x2="504.876" y2="181.0" stroke="#444" stroke-width="1"/>
<circle cx="486" cy="181.0" r="8.58" fill="#e53935" stroke="none"/>
<text x="486" y="185.0" font-family="sans-serif" font-size="13" font-weight="bold" text-anchor="middle" fill="#fff">5</text>
<text x="486" y="218.58" font-family="sans-serif" font-size="14" font-weight="normal" text-anchor="middle" fill="#222"> </text>
<line x1="511.124" y1="181.0" x2="548.876" y2="181.0" stroke="#444" stroke-width="1"/>
<circle cx="530" cy="181.0" r="8.58" fill="#e53935" stroke="none"/>
<text x="530" y="185.0" font-family="sans-serif" font-size="13" font-weight="bold" text-anchor="middle" fill="#fff">5</text>
<text x="530" y="218.58" font-family="sans-serif" font-size="14" font-weight="normal" text-anchor="middle" fill="#222"> </text>
<circle cx="574" cy="137.0" r="8.58" fill="#222" stroke="none"/>
<text x="574" y="141.0" font-family="sans-serif" font-size="13" font-weight="bold" text-anchor="middle" fill="#fff">7</text>
<text x="574" y="218.58" font-family="sans-serif" font-size="14" font-weight="normal" text-anchor="middle" fill="#222"> </text>
<circle cx="618" cy="142.5" r="8.58" fill="#2e7d32" stroke="none"/>
<text x="618" y="146.5" font-family="sans-serif" font-size="13" font-weight="bold" text-anchor="middle" fill="#fff">9</text>
<text x="618" y="218.58" font-family="sans-serif" font-size="14" font-weight="normal" text-anchor="middle" fill="#222"> </text>
<circle cx="662" cy="164.5" r="8.58" fill="#fbc02d" stroke="none"/>
<text x="662" y="168.5" font-family="sans-serif" font-size="13" font-weight="bold" text-anchor="middle" fill="#fff">7</text>
<text x="662" y="218.58" font-family="sans-serif" font-size="14" font-weight="normal" text-anchor="middle" fill="#222"> </text>
<line x1="687.124" y1="181.0" x2="724.876" y2="181.0" stroke="#444" stroke-width="1"/>
<circle cx="706" cy="181.0" r="8.58" fill="#e53935" stroke="none"/>
<text x="706" y="185.0" font-family="sans-serif" font-size="13" font-weight="bold" text-anchor="middle" fill="#fff">5</text>
<text x="706" y="218.58" font-family="sans-serif" font-size="14" font-weight="normal" text-anchor="middle" fill="#222"> </text>
<circle cx="750" cy="142.5" r="8.58" fill="#2e7d32" stroke="none"/>
<text x="750" y="146.5" font-family="sans-serif" font-size="13" font-weight="bold" text-anchor="middle" fill="#fff">9</text>
<text x="750" y="218.58" font-family="sans-serif" font-size="14" font-weight="normal" text-anchor="middle" fill="#222"> </text>
<line x1="775.124" y1="115.0" x2="812.876" y2="115.0" stroke="#444" stroke-width="1"/>
<circle cx="794" cy="115.0" r="8.58" fill="#42a5f5" stroke="none"/>
<text x="794" y="119.0" font-family="sans-serif" font-size="13" font-weight="bold" text-anchor="middle" fill="#fff">12</text>
<text x="794" y="218.58" font-family="sans-serif" font-size="14" font-weight="normal" text-anchor="middle" fill="#222"> </text>
<line x1="819.124" y1="181.0" x2="856.876" y2="181.0" stroke="#444" stroke-width="1"/>
<circle cx="838" cy="181.0" r="8.58" fill="#e53935" stroke="none"/>
<text x="838" y="185.0" font-family="sans-serif" font-size="13" font-weight="bold" text-anchor="middle" fill="#fff">5</text>
<text x="838" y="218.58" font-family="sans-serif" font-size="14" font-weight="normal" text-anchor="middle" fill="#222"> </text>
<line x1="863.124" y1="181.0" x2="900.876" y2="181.0" stroke="#444" stroke-width="1"/>
<line x1="863.124" y1="192.0" x2="900.876" y2="192.0" stroke="#444" stroke-width="1"/>
<circle cx="882" cy="192.0" r="8.58" fill="#d81b60" stroke="none"/>
<text x="882" y="196.0" font-family="sans-serif" font-size="13" font-weight="bold" text-anchor="middle" fill="#fff">4</text>
<text x="882" y="218.58" font-family="sans-serif" font-size="14" font-weight="normal" text-anchor="middle" fill="#222"> </text>
<line x1="907.124" y1="181.0" x2="944.876" y2="181.0" stroke="#444" stroke-width="1"/>
<line x1="907.124" y1="192.0" x2="944.876" y2="192.0" stroke="#444" stroke-width="1"/>
<circle cx="926" cy="192.0" r="8.58" fill="#d81b60" stroke="none"/>
<text x="926" y="196.0" font-family="sans-serif" font-size="13" font-weight="bold" text-anchor="middle" fill="#fff">4</text>
<text x="926" y="218.58" font-family="sans-serif" font-size="14" font-weight="normal" text-anchor="middle" fill="#222"> </text>
<circle cx="970" cy="142.5" r="8.58" fill="#2e7d32" stroke="none"/>
<text x="970" y="146.5" font-family="sans-serif" font-size="13" font-weight="bold" text-anchor="middle" fill="#fff">9</text>
<text x="970" y="218.58" font-family="sans-serif" font-size="14" font-weight="normal" text-anchor="middle" fill="#222"> </text>
<circle cx="1014" cy="170.0" r="8.58" fill="#f57c00" stroke="none"/>
<text x="1014" y="174.0" font-family="sans-serif" font-size="13" font-weight="bold" text-anchor="middle" fill="#fff">6</text>
<text x="1014" y="218.58" font-family="sans-serif" font-size="14" font-weight="normal" text-anchor="middle" fill="#222"> </text>
<line x1="1039.124" y1="181.0" x2="1076.876" y2="181.0" stroke="#444" stroke-width="1"/>
<circle cx="1058" cy="181.0" r="8.58" fill="#e53935" stroke="none"/>
<text x="1058" y="185.0" font-family="sans-serif" font-size="13" font-weight="bold" text-anchor="middle" fill="#fff">5</text>
<text x="1058" y="218.58" font-family="sans-serif" font-size="14" font-weight="normal" text-anchor="middle" fill="#222"> </text>
<line x1="1083.124" y1="115.0" x2="1120.876" y2="115.0" stroke="#444" stroke-width="1"/>
<circle cx="1102" cy="115.0" r="8.58" fill="#42a5f5" stroke="none"/>
<text x="1102" y="119.0" font-family="sans-serif" font-size="13" font-weight="bold" text-anchor="middle" fill="#fff">12</text>
<text x="1102" y="218.58" font-family="sans-serif" font-size="14" font-weight="normal" text-anchor="middle" fill="#222"> </text>
<text x="1146" y="148" font-family="sans-serif" font-size="30" font-weight="normal" text-anchor="middle" fill="#888">·</text>
<text x="1146" y="218.58" font-family="sans-serif" font-size="14" font-weight="normal" text-anchor="middle" fill="#222"> </text>
<line x1="1171.124" y1="115.0" x2="1208.876" y2="115.0" stroke="#444" stroke-width="1"/>
<circle cx="1190" cy="115.0" r="8.58" fill="#42a5f5" stroke="none"/>
<text x="1190" y="119.0" font-family="sans-serif" font-size="13" font-weight="bold" text-anchor="middle" fill="#fff">12</text>
</svg>