<svg xmlns="http://www.w3.org/2000/svg" width="950" height="715.5799999999999">
<rect width="100%" height="100%" fill="white"/>
<text x="475.0" y="40" font-family="serif" font-size="28" font-weight="normal" text-anchor="middle" fill="#222">Dance of the Sugarplum Fairy</text>
<text x="475.0" y="76" font-family="sans-serif" font-size="14" font-weight="normal" text-anchor="middle" fill="#555">Tchaikovsky</text>
<line x1="50" y1="146" x2="926" y2="146" stroke="#444" stroke-width="1"/>
<line x1="50" y1="157" x2="926" y2="157" stroke="#444" stroke-width="1"/>
<line x1="50" y1="168" x2="926" y2="168" stroke="#444" stroke-width="1"/>
<line x1="50" y1="179" x2="926" y2="179" stroke="#444" stroke-width="1"/>
<line x1="50" y1="190" x2="926" y2="190" stroke="#444" stroke-width="1"/>
<line x1="50" y1="146" x2="50" y2="190" stroke="#444" stroke-width="1"/>
<line x1="926" y1="146" x2="926" y2="190" stroke="#444" stroke-width="1"/>
<text x="62" y="187.25" font-size="55" font-family="FreeSerif, DejaVu Serif, Times New Roman, serif" text-anchor="middle" fill="#222">&#x1D11E;</text>
<line x1="71.124" y1="124.0" x2="108.876" y2="124.0" stroke="#444" stroke-width="1"/>
<line x1="71.124" y1="135.0" x2="108.876" y2="135.0" stroke="#444" stroke-width="1"/>
<circle cx="90" cy="118.5" r="8.58" fill="#8d6e63" stroke="none"/>
<text x="90" y="122.5" font-family="sans-serif" font-size="13" font-weight="bold" text-anchor="middle" fill="#fff">14</text>
<text x="90" y="208" font-family="sans-serif" font-size="14" font-weight="normal" text-anchor="middle" fill="#222"> </text>
<line x1="115.124" y1="135.0" x2="152.876" y2="135.0" stroke="#444" stroke-width="1"/>
<circle cx="134" cy="135.0" r="8.58" fill="#42a5f5" stroke="none"/>
<text x="134" y="139.0" font-family="sans-serif" font-size="13" font-weight="bold" text-anchor="middle" fill="#fff">12</text>
<text x="134" y="208" font-family="sans-serif" font-size="14" font-weight="normal" text-anchor="middle" fill="#222"> </text>
<line x1="159.124" y1="124.0" x2="196.876" y2="124.0" stroke="#444" stroke-width="1"/>
<line x1="159.124" y1="135.0" x2="196.876" y2="135.0" stroke="#444" stroke-width="1"/>
<circle cx="178" cy="118.5" r="8.58" fill="#8d6e63" stroke="none"/>
<text x="178" y="122.5" font-family="sans-serif" font-size="13" font-weight="bold" text-anchor="middle" fill="#fff">14</text>
<text x="178" y="208" font-family="sans-serif" font-size="14" font-weight="normal" text-anchor="middle" fill="#222"> </text>
<text x="222" y="168" font-family="sans-serif" font-size="30" font-weight="normal" text-anchor="middle" fill="#888">·</text>
<text x="222" y="208" font-family="sans-serif" font-size="14" font-weight="normal" text-anchor="middle" fill="#222"> </text>
<line x1="247.124" y1="124.0" x2="284.876" y2="124.0" stroke="#444" stroke-width="1"/>
<line x1="247.124" y1="135.0" x2="284.876" y2="135.0" stroke="#444" stroke-width="1"/>
<circle cx="266" cy="124.0" r="8.58" fill="#3949ab" stroke="none"/>
<text x="266" y="128.0" font-family="sans-serif" font-size="13" font-weight="bold" text-anchor="middle" fill="#fff">13</text>
<text x="266" y="208" font-family="sans-serif" font-size="14" font-weight="normal" text-anchor="middle" fill="#222"> </text>
<text x="310" y="168" font-family="sans-serif" font-size="30" font-weight="normal" text-anchor="middle" fill="#888">·</text>
<text x="310" y="208" font-family="sans-serif" font-size="14" font-weight="normal" text-anchor="middle" fill="#222"> </text>
<circle cx="354" cy="140.5" r="8.58" fill="#222" stroke="none"/>
<text x="354" y="144.5" font-family="sans-serif" font-size="13" font-weight="bold" text-anchor="middle" fill="#fff">8</text>
<text x="354" y="208" font-family="sans-serif" font-size="14" font-weight="normal" text-anchor="middle" fill="#222"> </text>
<text x="398" y="168" font-family="sans-serif" font-size="30" font-weight="normal" text-anchor="middle" fill="#888">·</text>
<text x="398" y="208" font-family="sans-serif" font-size="14" font-weight="normal" text-anchor="middle" fill="#222"> </text>
<line x1="423.124" y1="135.0" x2="460.876" y2="135.0" stroke="#444" stroke-width="1"/>
<circle cx="442" cy="135.0" r="8.58" fill="#42a5f5" stroke="none"/>
<text x="442" y="139.0" font-family="sans-serif" font-size="13" font-weight="bold" text-anchor="middle" fill="#fff">12</text>
<text x="442" y="208" font-family="sans-serif" font-size="14" font-weight="normal" text-anchor="middle" fill="#222"> </text>
<text x="486" y="168" font-family="sans-serif" font-size="30" font-weight="normal" text-anchor="middle" fill="#888">·</text>
<text x="486" y="208" font-family="sans-serif" font-size="14" font-weight="normal" text-anchor="middle" fill="#222"> </text>
<circle cx="530" cy="146.0" r="8.58" fill="#81d4fa" stroke="none"/>
<text x="530" y="150.0" font-family="sans-serif" font-size="13" font-weight="bold" text-anchor="middle" fill="#fff">11</text>
<text x="530" y="208" font-family="sans-serif" font-size="14" font-weight="normal" text-anchor="middle" fill="#222"> </text>
<circle cx="574" cy="146.0" r="8.58" fill="#81d4fa" stroke="none"/>
<text x="574" y="150.0" font-family="sans-serif" font-size="13" font-weight="bold" text-anchor="middle" fill="#fff">11</text>
<text x="574" y="208" font-family="sans-serif" font-size="14" font-weight="normal" text-anchor="middle" fill="#222"> </text>
<circle cx="618" cy="146.0" r="8.58" fill="#81d4fa" stroke="none"/>
<text x="618" y="150.0" font-family="sans-serif" font-size="13" font-weight="bold" text-anchor="middle" fill="#fff">11</text>
<text x="618" y="208" font-family="sans-serif" font-size="14" font-weight="normal" text-anchor="middle" fill="#222"> </text>
<text x="662" y="168" font-family="sans-serif" font-size="30" font-weight="normal" text-anchor="middle" fill="#888">·</text>
<text x="662" y="208" font-family="sans-serif" font-size="14" font-weight="normal" text-anchor="middle" fill="#222"> </text>
<circle cx="706" cy="151.5" r="8.58" fill="#00acc1" stroke="none"/>
<text x="706" y="155.5" font-family="sans-serif" font-size="13" font-weight="bold" text-anchor="middle" fill="#fff">10</text>
<text x="706" y="208" font-family="sans-serif" font-size="14" font-weight="normal" text-anchor="middle" fill="#222"> </text>
<circle cx="750" cy="151.5" r="8.58" fill="#00acc1" stroke="none"/>
<text x="750" y="155.5" font-family="sans-serif" font-size="13" font-weight="bold" text-anchor="middle" fill="#fff">10</text>
<text x="750" y="208" font-family="sans-serif" font-size="14" font-weight="normal" text-anchor="middle" fill="#222"> </text>
<circle cx="794" cy="151.5" r="8.58" fill="#00acc1" stroke="none"/>
<text x="794" y="155.5" font-family="sans-serif" font-size="13" font-weight="bold" text-anchor="middle" fill="#fff">10</text>
<line x1="50" y1="254" x2="926" y2="254" stroke="#444" stroke-width="1"/>
<line x1="50" y1="265" x2="926" y2="265" stroke="#444" stroke-width="1"/>
<line x1="50" y1="276" x2="926" y2="276" stroke="#444" stroke-width="1"/>
<line x1="50" y1="287" x2="926" y2="287" stroke="#444" stroke-width="1"/>
<line x1="50" y1="298" x2="926" y2="298" stroke="#444" stroke-width="1"/>
<line x1="50" y1="254" x2="50" y2="298" stroke="#444" stroke-width="1"/>
<line x1="926" y1="254" x2="926" y2="298" stroke="#444" stroke-width="1"/>
<text x="62" y="295.25" font-size="55" font-family="FreeSerif, DejaVu Serif, Times New Roman, serif" text-anchor="middle" fill="#222">&#x1D11E;</text>
<circle cx="90" cy="265.0" r="8.58" fill="#222" stroke="none"/>
<text x="90" y="269.0" font-family="sans-serif" font-size="13" font-weight="bold" text-anchor="middle" fill="#fff">7</text>
<text x="90" y="335.58" font-family="sans-serif" font-size="14" font-weight="normal" text-anchor="middle" fill="#222"> </text>
<circle cx="134" cy="265.0" r="8.58" fill="#222" stroke="none"/>
<text x="134" y="269.0" font-family="sans-serif" font-size="13" font-weight="bold" text-anchor="middle" fill="#fff">7</text>
<text x="134" y="335.58" font-family="sans-serif" font-size="14" font-weight="normal" text-anchor="middle" fill="#222"> </text>
<circle cx="178" cy="265.0" r="8.58" fill="#222" stroke="none"/>
<text x="178" y="269.0" font-family="sans-serif" font-size="13" font-weight="bold" text-anchor="middle" fill="#fff">7</text>
<text x="178" y="335.58" font-family="sans-serif" font-size="14" font-weight="normal" text-anchor="middle" fill="#222"> </text>
<text x="222" y="276" font-family="sans-serif" font-size="30" font-weight="normal" text-anchor="middle" fill="#888">·</text>
<text x="222" y="335.58" font-family="sans-serif" font-size="14" font-weight="normal" text-anchor="middle" fill="#222"> </text>
<circle cx="266" cy="270.5" r="8.58" fill="#2e7d32" stroke="none"/>
<text x="266" y="274.5" font-family="sans-serif" font-size="13" font-weight="bold" text-anchor="middle" fill="#fff">9</text>
<text x="266" y="335.58" font-family="sans-serif" font-size="14" font-weight="normal" text-anchor="middle" fill="#222"> </text>
<line x1="291.124" y1="243.0" x2="328.876" y2="243.0" stroke="#444" stroke-width="1"/>
<circle cx="310" cy="243.0" r="8.58" fill="#42a5f5" stroke="none"/>
<text x="310" y="247.0" font-family="sans-serif" font-size="13" font-weight="bold" text-anchor="middle" fill="#fff">12</text>
<text x="310" y="335.58" font-family="sans-serif" font-size="14" font-weight="normal" text-anchor="middle" fill="#222"> </text>
<circle cx="354" cy="265.0" r="8.58" fill="#222" stroke="none"/>
<text x="354" y="269.0" font-family="sans-serif" font-size="13" font-weight="bold" text-anchor="middle" fill="#fff">7</text>
<text x="354" y="335.58" font-family="sans-serif" font-size="14" font-weight="normal" text-anchor="middle" fill="#222"> </text>
<line x1="379.124" y1="243.0" x2="416.876" y2="243.0" stroke="#444" stroke-width="1"/>
<circle cx="398" cy="243.0" r="8.58" fill="#42a5f5" stroke="none"/>
<text x="398" y="247.0" font-family="sans-serif" font-size="13" font-weight="bold" text-anchor="middle" fill="#fff">12</text>
<text x="398" y="335.58" font-family="sans-serif" font-size="14" font-weight="normal" text-anchor="middle" fill="#222"> </text>
<circle cx="442" cy="270.5" r="8.58" fill="#2e7d32" stroke="none"/>
<text x="442" y="274.5" font-family="sans-serif" font-size="13" font-weight="bold" text-anchor="middle" fill="#fff">9</text>
<text x="442" y="335.58" font-family="sans-serif" font-size="14" font-weight="normal" text-anchor="middle" fill="#222"> </text>
<text x="486" y="276" font-family="sans-serif" font-size="30" font-weight="normal" text-anchor="middle" fill="#888">·</text>
<text x="486" y="335.58" font-family="sans-serif" font-size="14" font-weight="normal" text-anchor="middle" fill="#222"> </text>
<circle cx="530" cy="292.5" r="8.58" fill="#fbc02d" stroke="none"/>
<text x="530" y="296.5" font-family="sans-serif" font-size="13" font-weight="bold" text-anchor="middle" fill="#fff">7</text>
<text x="530" y="335.58" font-family="sans-serif" font-size="14" font-weight="normal" text-anchor="middle" fill="#222"> </text>
<line x1="555.124" y1="309.0" x2="592.876" y2="309.0" stroke="#444" stroke-width="1"/>
<circle cx="574" cy="309.0" r="8.58" fill="#e53935" stroke="none"/>
<text x="574" y="313.0" font-family="sans-serif" font-size="13" font-weight="bold" text-anchor="middle" fill="#fff">5</text>
<text x="574" y="335.58" font-family="sans-serif" font-size="14" font-weight="normal" text-anchor="middle" fill="#222"> </text>
<circle cx="618" cy="292.5" r="8.58" fill="#fbc02d" stroke="none"/>
<text x="618" y="296.5" font-family="sans-serif" font-size="13" font-weight="bold" text-anchor="middle" fill="#fff">7</text>
<text x="618" y="335.58" font-family="sans-serif" font-size="14" font-weight="normal" text-anchor="middle" fill="#222"> </text>
<text x="662" y="276" font-family="sans-serif" font-size="30" font-weight="normal" text-anchor="middle" fill="#888">·</text>
<text x="662" y="335.58" font-family="sans-serif" font-size="14" font-weight="normal" text-anchor="middle" fill="#222"> </text>
<circle cx="706" cy="298.0" r="8.58" fill="#f57c00" stroke="none"/>
<text x="706" y="302.0" font-family="sans-serif" font-size="13" font-weight="bold" text-anchor="middle" fill="#fff">6</text>
<text x="706" y="335.58" font-family="sans-serif" font-size="14" font-weight="normal" text-anchor="middle" fill="#222"> </text>
<text x="750" y="276" font-family="sans-serif" font-size="30" font-weight="normal" text-anchor="middle" fill="#888">·</text>
<text x="750" y="335.58" font-family="sans-serif" font-size="14" font-weight="normal" text-anchor="middle" fill="#222"> </text>
<circle cx="794" cy="265.0" r="8.58" fill="#222" stroke="none"/>
<text x="794" y="269.0" font-family="sans-serif" font-size="13" font-weight="bold" text-anchor="middle" fill="#fff">7</text>
<text x="794" y="335.58" font-family="sans-serif" font-size="14" font-weight="normal" text-anchor="middle" fill="#222"> </text>
<text x="838" y="276" font-family="sans-serif" font-size="30" font-weight="normal" text-anchor="middle" fill="#888">·</text>
<text x="838" y="335.58" font-family="sans-serif" font-size="14" font-weight="normal" text-anchor="middle" fill="#222"> </text>
<circle cx="882" cy="270.5" r="8.58" fill="#2e7d32" stroke="none"/>
<text x="882" y="274.5" font-family="sans-serif" font-size="13" font-weight="bold" text-anchor="middle" fill="#fff">9</text>
<line x1="50" y1="381.58" x2="926" y2="381.58" stroke="#444" stroke-width="1"/>
<line x1="50" y1="392.58" x2="926" y2="392.58" stroke="#444" stroke-width="1"/>
<line x1="50" y1="403.58" x2="926" y2="403.58" stroke="#444" stroke-width="1"/>
<line x1="50" y1="414.58" x2="926" y2="414.58" stroke="#444" stroke-width="1"/>
<line x1="50" y1="425.58" x2="926" y2="425.58" stroke="#444" stroke-width="1"/>
<line x1="50" y1="381.58" x2="50" y2="425.58" stroke="#444" stroke-width="1"/>
<line x1="926" y1="381.58" x2="926" y2="425.58" stroke="#444" stroke-width="1"/>
<text x="62" y="422.83" font-size="55" font-family="FreeSerif, DejaVu Serif, Times New Roman, serif" text-anchor="middle" fill="#222">&#x1D11E;</text>
<line x1="71.124" y1="359.58" x2="108.876" y2="359.58" stroke="#444" stroke-width="1"/>
<line x1="71.124" y1="370.58" x2="108.876" y2="370.58" stroke="#444" stroke-width="1"/>
<circle cx="90" cy="354.08" r="8.58" fill="#8d6e63" stroke="none"/>
<text x="90" y="358.08" font-family="sans-serif" font-size="13" font-weight="bold" text-anchor="middle" fill="#fff">14</text>
<text x="90" y="443.58" font-family="sans-serif" font-size="14" font-weight="normal" text-anchor="middle" fill="#222"> </text>
<line x1="115.124" y1="359.58" x2="152.876" y2="359.58" stroke="#444" stroke-width="1"/>
<line x1="115.124" y1="370.58" x2="152.876" y2="370.58" stroke="#444" stroke-width="1"/>
<circle cx="134" cy="354.08" r="8.58" fill="#8d6e63" stroke="none"/>
<text x="134" y="358.08" font-family="sans-serif" font-size="13" font-weight="bold" text-anchor="middle" fill="#fff">14</text>
<text x="134" y="443.58" font-family="sans-serif" font-size="14" font-weight="normal" text-anchor="middle" fill="#222"> </text>
<line x1="159.124" y1="359.58" x2="196.876" y2="359.58" stroke="#444" stroke-width="1"/>
<line x1="159.124" y1="370.58" x2="196.876" y2="370.58" stroke="#444" stroke-width="1"/>
<circle cx="178" cy="354.08" r="8.58" fill="#8d6e63" stroke="none"/>
<text x="178" y="358.08" font-family="sans-serif" font-size="13" font-weight="bold" text-anchor="middle" fill="#fff">14</text>
<text x="178" y="443.58" font-family="sans-serif" font-size="14" font-weight="normal" text-anchor="middle" fill="#222"> </text>
<text x="222" y="403.58" font-family="sans-serif" font-size="30" font-weight="normal" text-anchor="middle" fill="#888">·</text>
<text x="222" y="443.58" font-family="sans-serif" font-size="14" font-weight="normal" text-anchor="middle" fill="#222"> </text>
<line x1="247.124" y1="359.58" x2="284.876" y2="359.58" stroke="#444" stroke-width="1"/>
<line x1="247.124" y1="370.58" x2="284.876" y2="370.58" stroke="#444" stroke-width="1"/>
<circle cx="266" cy="359.58" r="8.58" fill="#3949ab" stroke="none"/>
<text x="266" y="363.58" font-family="sans-serif" font-size="13" font-weight="bold" text-anchor="middle" fill="#fff">13</text>
<text x="266" y="443.58" font-family="sans-serif" font-size="14" font-weight="normal" text-anchor="middle" fill="#222"> </text>
<line x1="291.124" y1="359.58" x2="328.876" y2="359.58" stroke="#444" stroke-width="1"/>
<line x1="291.124" y1="370.58" x2="328.876" y2="370.58" stroke="#444" stroke-width="1"/>
<circle cx="310" cy="359.58" r="8.58" fill="#3949ab" stroke="none"/>
<text x="310" y="363.58" font-family="sans-serif" font-size="13" font-weight="bold" text-anchor="middle" fill="#fff">13</text>
<text x="310" y="443.58" font-family="sans-serif" font-size="14" font-weight="normal" text-anchor="middle" fill="#222"> </text>
<line x1="335.124" y1="359.58" x2="372.876" y2="359.58" stroke="#444" stroke-width="1"/>
<line x1="335.124" y1="370.58" x2="372.876" y2="370.58" stroke="#444" stroke-width="1"/>
<circle cx="354" cy="359.58" r="8.58" fill="#3949ab" stroke="none"/>
<text x="354" y="363.58" font-family="sans-serif" font-size="13" font-weight="bold" text-anchor="middle" fill="#fff">13</text>
<text x="354" y="443.58" font-family="sans-serif" font-size="14" font-weight="normal" text-anchor="middle" fill="#222"> </text>
<text x="398" y="403.58" font-family="sans-serif" font-size="30" font-weight="normal" text-anchor="middle" fill="#888">·</text>
<text x="398" y="443.58" font-family="sans-serif" font-size="14" font-weight="normal" text-anchor="middle" fill="#222"> </text>
<line x1="423.124" y1="370.58" x2="460.876" y2="370.58" stroke="#444" stroke-width="1"/>
<circle cx="442" cy="370.58" r="8.58" fill="#42a5f5" stroke="none"/>
<text x="442" y="374.58" font-family="sans-serif" font-size="13" font-weight="bold" text-anchor="middle" fill="#fff">12</text>
<text x="442" y="443.58" font-family="sans-serif" font-size="14" font-weight="normal" text-anchor="middle" fill="#222"> </text>
<line x1="467.124" y1="370.58" x2="504.876" y2="370.58" stroke="#444" stroke-width="1"/>
<circle cx="486" cy="370.58" r="8.58" fill="#42a5f5" stroke="none"/>
<text x="486" y="374.58" font-family="sans-serif" font-size="13" font-weight="bold" text-anchor="middle" fill="#fff">12</text>
<text x="486" y="443.58" font-family="sans-serif" font-size="14" font-weight="normal" text-anchor="middle" fill="#222"> </text>
<line x1="511.124" y1="370.58" x2="548.876" y2="370.58" stroke="#444" stroke-width="1"/>
<circle cx="530" cy="370.58" r="8.58" fill="#42a5f5" stroke="none"/>
<text x="530" y="374.58" font-family="sans-serif" font-size="13" font-weight="bold" text-anchor="middle" fill="#fff">12</text>
<text x="530" y="443.58" font-family="sans-serif" font-size="14" font-weight="normal" text-anchor="middle" fill="#222"> </text>
<text x="574" y="403.58" font-family="sans-serif" font-size="30" font-weight="normal" text-anchor="middle" fill="#888">·</text>
<text x="574" y="443.58" font-family="sans-serif" font-size="14" font-weight="normal" text-anchor="middle" fill="#222"> </text>
<circle cx="618" cy="376.08" r="8.58" fill="#222" stroke="none"/>
<text x="618" y="380.08" font-family="sans-serif" font-size="13" font-weight="bold" text-anchor="middle" fill="#fff">8</text>
<text x="618" y="443.58" font-family="sans-serif" font-size="14" font-weight="normal" text-anchor="middle" fill="#222"> </text>
<line x1="643.124" y1="359.58" x2="680.876" y2="359.58" stroke="#444" stroke-width="1"/>
<line x1="643.124" y1="370.58" x2="680.876" y2="370.58" stroke="#444" stroke-width="1"/>
<circle cx="662" cy="359.58" r="8.58" fill="#3949ab" stroke="none"/>
<text x="662" y="363.58" font-family="sans-serif" font-size="13" font-weight="bold" text-anchor="middle" fill="#fff">13</text>
<text x="662" y="443.58" font-family="sans-serif" font-size="14" font-weight="normal" text-anchor="middle" fill="#222"> </text>
<line x1="687.124" y1="370.58" x2="724.876" y2="370.58" stroke="#444" stroke-width="1"/>
<circle cx="706" cy="370.58" r="8.58" fill="#42a5f5" stroke="none"/>
<text x="706" y="374.58" font-family="sans-serif" font-size="13" font-weight="bold" text-anchor="middle" fill="#fff">12</text>
<text x="706" y="443.58" font-family="sans-serif" font-size="14" font-weight="normal" text-anchor="middle" fill="#222"> </text>
<line x1="731.124" y1="359.58" x2="768.876" y2="359.58" stroke="#444" stroke-width="1"/>
<line x1="731.124" y1="370.58" x2="768.876" y2="370.58" stroke="#444" stroke-width="1"/>
<circle cx="750" cy="359.58" r="8.58" fill="#3949ab" stroke="none"/>
<text x="750" y="363.58" font-family="sans-serif" font-size="13" font-weight="bold" text-anchor="middle" fill="#fff">13</text>
<text x="750" y="443.58" font-family="sans-serif" font-size="14" font-weight="normal" text-anchor="middle" fill="#222"> </text>
<circle cx="794" cy="376.08" r="8.58" fill="#222" stroke="none"/>
<text x="794" y="380.08" font-family="sans-serif" font-size="13" font-weight="bold" text-anchor="middle" fill="#fff">8</text>
<line x1="50" y1="489.58" x2="926" y2="489.58" stroke="#444" stroke-width="1"/>
<line x1="50" y1="500.58" x2="926" y2="500.58" stroke="#444" stroke-width="1"/>
<line x1="50" y1="511.58" x2="926" y2="511.58" stroke="#444" stroke-width="1"/>
<line x1="50" y1="522.5799999999999" x2="926" y2="522.5799999999999" stroke="#444" stroke-width="1"/>
<line x1="50" y1="533.5799999999999" x2="926" y2="533.5799999999999" stroke="#444" stroke-width="1"/>
<line x1="50" y1="489.58" x2="50" y2="533.5799999999999" stroke="#444" stroke-width="1"/>
<line x1="926" y1="489.58" x2="926" y2="533.5799999999999" stroke="#444" stroke-width="1"/>
<text x="62" y="530.8299999999999" font-size="55" font-family="FreeSerif, DejaVu Serif, Times New Roman, serif" text-anchor="middle" fill="#222">&#x1D11E;</text>
<line x1="71.124" y1="467.58" x2="108.876" y2="467.58" stroke="#444" stroke-width="1"/>
<line x1="71.124" y1="478.58" x2="108.876" y2="478.58" stroke="#444" stroke-width="1"/>
<circle cx="90" cy="462.08" r="8.58" fill="#8d6e63" stroke="none"/>
<text x="90" y="466.08" font-family="sans-serif" font-size="13" font-weight="bold" text-anchor="middle" fill="#fff">14</text>
<text x="90" y="551.5799999999999" font-family="sans-serif" font-size="14" font-weight="normal" text-anchor="middle" fill="#222"> </text>
<line x1="115.124" y1="478.58" x2="152.876" y2="478.58" stroke="#444" stroke-width="1"/>
<circle cx="134" cy="478.58" r="8.58" fill="#42a5f5" stroke="none"/>
<text x="134" y="482.58" font-family="sans-serif" font-size="13" font-weight="bold" text-anchor="middle" fill="#fff">12</text>
<text x="134" y="551.5799999999999" font-family="sans-serif" font-size="14" font-weight="normal" text-anchor="middle" fill="#222"> </text>
<line x1="159.124" y1="467.58" x2="196.876" y2="467.58" stroke="#444" stroke-width="1"/>
<line x1="159.124" y1="478.58" x2="196.876" y2="478.58" stroke="#444" stroke-width="1"/>
<circle cx="178" cy="462.08" r="8.58" fill="#8d6e63" stroke="none"/>
<text x="178" y="466.08" font-family="sans-serif" font-size="13" font-weight="bold" text-anchor="middle" fill="#fff">14</text>
<text x="178" y="551.5799999999999" font-family="sans-serif" font-size="14" font-weight="normal" text-anchor="middle" fill="#222"> </text>
<text x="222" y="511.58" font-family="sans-serif" font-size="30" font-weight="normal" text-anchor="middle" fill="#888">·</text>
<text x="222" y="551.5799999999999" font-family="sans-serif" font-size="14" font-weight="normal" text-anchor="middle" fill="#222"> </text>
<line x1="247.124" y1="467.58" x2="284.876" y2="467.58" stroke="#444" stroke-width="1"/>
<line x1="247.124" y1="478.58" x2="284.876" y2="478.58" stroke="#444" stroke-width="1"/>
<circle cx="266" cy="467.58" r="8.58" fill="#3949ab" stroke="none"/>
<text x="266" y="471.58" font-family="sans-serif" font-size="13" font-weight="bold" text-anchor="middle" fill="#fff">13</text>
<text x="266" y="551.5799999999999" font-family="sans-serif" font-size="14" font-weight="normal" text-anchor="middle" fill="#222"> </text>
<text x="310" y="511.58" font-family="sans-serif" font-size="30" font-weight="normal" text-anchor="middle" fill="#888">·</text>
<text x="310" y="551.5799999999999" font-family="sans-serif" font-size="14" font-weight="normal" text-anchor="middle" fill="#222"> </text>
<circle cx="354" cy="484.08" r="8.58" fill="#222" stroke="none"/>
<text x="354" y="488.08" font-family="sans-serif" font-size="13" font-weight="bold" text-anchor="middle" fill="#fff">8</text>
<text x="354" y="551.5799999999999" font-family="sans-serif" font-size="14" font-weight="normal" text-anchor="middle" fill="#222"> </text>
<text x="398" y="511.58" font-family="sans-serif" font-size="30" font-weight="normal" text-anchor="middle" fill="#888">·</text>
<text x="398" y="551.5799999999999" font-family="sans-serif" font-size="14" font-weight="normal" text-anchor="middle" fill="#222"> </text>
<line x1="423.124" y1="478.58" x2="460.876" y2="478.58" stroke="#444" stroke-width="1"/>
<circle cx="442" cy="478.58" r="8.58" fill="#42a5f5" stroke="none"/>
<text x="442" y="482.58" font-family="sans-serif" font-size="13" font-weight="bold" text-anchor="middle" fill="#fff">12</text>
<text x="442" y="551.5799999999999" font-family="sans-serif" font-size="14" font-weight="normal" text-anchor="middle" fill="#222"> </text>
<text x="486" y="511.58" font-family="sans-serif" font-size="30" font-weight="normal" text-anchor="middle" fill="#888">·</text>
<text x="486" y="551.5799999999999" font-family="sans-serif" font-size="14" font-weight="normal" text-anchor="middle" fill="#222"> </text>
<circle cx="530" cy="489.58" r="8.58" fill="#81d4fa" stroke="none"/>
<text x="530" y="493.58" font-family="sans-serif" font-size="13" font-weight="bold" text-anchor="middle" fill="#fff">11</text>
<text x="530" y="551.5799999999999" font-family="sans-serif" font-size="14" font-weight="normal" text-anchor="middle" fill="#222"> </text>
<circle cx="574" cy="489.58" r="8.58" fill="#81d4fa" stroke="none"/>
<text x="574" y="493.58" font-family="sans-serif" font-size="13" font-weight="bold" text-anchor="middle" fill="#fff">11</text>
<text x="574" y="551.5799999999999" font-family="sans-serif" font-size="14" font-weight="normal" text-anchor="middle" fill="#222"> </text>
<circle cx="618" cy="489.58" r="8.58" fill="#81d4fa" stroke="none"/>
<text x="618" y="493.58" font-family="sans-serif" font-size="13" font-weight="bold" text-anchor="middle" fill="#fff">11</text>
<text x="618" y="551.5799999999999" font-family="sans-serif" font-size="14" font-weight="normal" text-anchor="middle" fill="#222"> </text>
<text x="662" y="511.58" font-family="sans-serif" font-size="30" font-weight="normal" text-anchor="middle" fill="#888">·</text>
<text x="662" y="551.5799999999999" font-family="sans-serif" font-size="14" font-weight="normal" text-anchor="middle" fill="#222"> </text>
<circle cx="706" cy="495.08" r="8.58" fill="#00acc1" stroke="none"/>
<text x="706" y="499.08" font-family="sans-serif" font-size="13" font-weight="bold" text-anchor="middle" fill="#fff">10</text>
<text x="706" y="551.5799999999999" font-family="sans-serif" font-size="14" font-weight="normal" text-anchor="middle" fill="#222"> </text>
<circle cx="750" cy="495.08" r="8.58" fill="#00acc1" stroke="none"/>
<text x="750" y="499.08" font-family="sans-serif" font-size="13" font-weight="bold" text-anchor="middle" fill="#fff">10</text>
<text x="750" y="551.5799999999999" font-family="sans-serif" font-size="14" font-weight="normal" text-anchor="middle" fill="#222"> </text>
<circle cx="794" cy="495.08" r="8.58" fill="#00acc1" stroke="none"/>
<text x="794" y="499.08" font-family="sans-serif" font-size="13" font-weight="bold" text-anchor="middle" fill="#fff">10</text>
<line x1="50" y1="597.5799999999999" x2="926" y2="597.5799999999999" stroke="#444" stroke-width="1"/>
<line x1="50" y1="608.5799999999999" x2="926" y2="608.5799999999999" stroke="#444" stroke-width="1"/>
<line x1="50" y1="619.5799999999999" x2="926" y2="619.5799999999999" stroke="#444" stroke-width="1"/>
<line x1="50" y1="630.5799999999999" x2="926" y2="630.5799999999999" stroke="#444" stroke-width="1"/>
<line x1="50" y1="641.5799999999999" x2="926" y2="641.5799999999999" stroke="#444" stroke-width="1"/>
<line x1="50" y1="597.5799999999999" x2="50" y2="641.5799999999999" stroke="#444" stroke-width="1"/>
<line x1="926" y1="597.5799999999999" x2="926" y2="641.5799999999999" stroke="#444" stroke-width="1"/>
<text x="62" y="638.8299999999999" font-size="55" font-family="FreeSerif, DejaVu Serif, Times New Roman, serif" text-anchor="middle" fill="#222">&#x1D11E;</text>
<circle cx="90" cy="608.5799999999999" r="8.58" fill="#222" stroke="none"/>
<text x="90" y="612.5799999999999" font-family="sans-serif" font-size="13" font-weight="bold" text-anchor="middle" fill="#fff">7</text>
<text x="90" y="659.5799999999999" font-family="sans-serif" font-size="14" font-weight="normal" text-anchor="middle" fill="#222"> </text>
<circle cx="134" cy="608.5799999999999" r="8.58" fill="#222" stroke="none"/>
<text x="134" y="612.5799999999999" font-family="sans-serif" font-size="13" font-weight="bold" text-anchor="middle" fill="#fff">7</text>
<text x="134" y="659.5799999999999" font-family="sans-serif" font-size="14" font-weight="normal" text-anchor="middle" fill="#222"> </text>
<circle cx="178" cy="608.5799999999999" r="8.58" fill="#222" stroke="none"/>
<text x="178" y="612.5799999999999" font-family="sans-serif" font-size="13" font-weight="bold" text-anchor="middle" fill="#fff">7</text>
<text x="178" y="659.5799999999999" font-family="sans-serif" font-size="14" font-weight="normal" text-anchor="middle" fill="#222"> </text>
<text x="222" y="619.5799999999999" font-family="sans-serif" font-size="30" font-weight="normal" text-anchor="middle" fill="#888">·</text>
<text x="222" y="659.5799999999999" font-family="sans-serif" font-size="14" font-weight="normal" text-anchor="middle" fill="#222"> </text>
<circle cx="266" cy="614.0799999999999" r="8.58" fill="#2e7d32" stroke="none"/>
<text x="266" y="618.0799999999999" font-family="sans-serif" font-size="13" font-weight="bold" text-anchor="middle" fill="#fff">9</text>
<text x="266" y="659.5799999999999" font-family="sans-serif" font-size="14" font-weight="normal" text-anchor="middle" fill="#222"> </text>
<line x1="291.124" y1="586.5799999999999" x2="328.876" y2="586.5799999999999" stroke="#444" stroke-width="1"/>
<circle cx="310" cy="586.5799999999999" r="8.58" fill="#42a5f5" stroke="none"/>
<text x="310" y="590.5799999999999" font-family="sans-serif" font-size="13" font-weight="bold" text-anchor="middle" fill="#fff">12</text>
<text x="310" y="659.5799999999999" font-family="sans-serif" font-size="14" font-weight="normal" text-anchor="middle" fill="#222"> </text>
<circle cx="354" cy="608.5799999999999" r="8.58" fill="#222" stroke="none"/>
<text x="354" y="612.5799999999999" font-family="sans-serif" font-size="13" font-weight="bold" text-anchor="middle" fill="#fff">7</text>
<text x="354" y="659.5799999999999" font-family="sans-serif" font-size="14" font-weight="normal" text-anchor="middle" fill="#222"> </text>
<line x1="379.124" y1="586.5799999999999" x2="416.876" y2="586.5799999999999" stroke="#444" stroke-width="1"/>
<circle cx="398" cy="586.5799999999999" r="8.58" fill="#42a5f5" stroke="none"/>
<text x="398" y="590.5799999999999" font-family="sans-serif" font-size="13" font-weight="bold" text-anchor="middle" fill="#fff">12</text>
<text x="398" y="659.5799999999999" font-family="sans-serif" font-size="14" font-weight="normal" text-anchor="middle" fill="#222"> </text>
<circle cx="442" cy="614.0799999999999" r="8.58" fill="#2e7d32" stroke="none"/>
<text x="442" y="618.0799999999999" font-family="sans-serif" font-size="13" font-weight="bold" text-anchor="middle" fill="#fff">9</text>
</svg>