<svg xmlns="http://www.w3.org/2000/svg" width="730" height="585.1600000000001">
<rect width="100%" height="100%" fill="white"/>
<text x="365.0" y="40" font-family="serif" font-size="28" font-weight="normal" text-anchor="middle" fill="#222">Do your ears hang low?</text>
<line x1="50" y1="126" x2="706" y2="126" stroke="#444" stroke-width="1"/>
<line x1="50" y1="137" x2="706" y2="137" stroke="#444" stroke-width="1"/>
<line x1="50" y1="148" x2="706" y2="148" stroke="#444" stroke-width="1"/>
<line x1="50" y1="159" x2="706" y2="159" stroke="#444" stroke-width="1"/>
<line x1="50" y1="170" x2="706" y2="170" stroke="#444" stroke-width="1"/>
<line x1="50" y1="126" x2="50" y2="170" stroke="#444" stroke-width="1"/>
<line x1="706" y1="126" x2="706" y2="170" stroke="#444" stroke-width="1"/>
<text x="62" y="167.25" font-size="55" font-family="FreeSerif, DejaVu Serif, Times New Roman, serif" text-anchor="middle" fill="#222">&#x1D11E;</text>
<line x1="71.124" y1="104.0" x2="108.876" y2="104.0" stroke="#444" stroke-width="1"/>
<line x1="71.124" y1="115.0" x2="108.876" y2="115.0" stroke="#444" stroke-width="1"/>
<circle cx="90" cy="104.0" r="8.58" fill="#3949ab" stroke="none"/>
<text x="90" y="108.0" font-family="sans-serif" font-size="13" font-weight="bold" text-anchor="middle" fill="#fff">13</text>
<text x="90" y="196.58" font-family="sans-serif" font-size="14" font-weight="normal" text-anchor="middle" fill="#222">Do </text>
<line x1="115.124" y1="115.0" x2="152.876" y2="115.0" stroke="#444" stroke-width="1"/>
<circle cx="134" cy="115.0" r="8.58" fill="#42a5f5" stroke="none"/>
<text x="134" y="119.0" font-family="sans-serif" font-size="13" font-weight="bold" text-anchor="middle" fill="#fff">12</text>
<text x="134" y="196.58" font-family="sans-serif" font-size="14" font-weight="normal" text-anchor="middle" fill="#222">your </text>
<circle cx="178" cy="126.0" r="8.58" fill="#81d4fa" stroke="none"/>
<text x="178" y="130.0" font-family="sans-serif" font-size="13" font-weight="bold" text-anchor="middle" fill="#fff">11</text>
<text x="178" y="196.58" font-family="sans-serif" font-size="14" font-weight="normal" text-anchor="middle" fill="#222">ears </text>
<circle cx="222" cy="126.0" r="8.58" fill="#81d4fa" stroke="none"/>
<text x="222" y="130.0" font-family="sans-serif" font-size="13" font-weight="bold" text-anchor="middle" fill="#fff">11</text>
<text x="222" y="196.58" font-family="sans-serif" font-size="14" font-weight="normal" text-anchor="middle" fill="#222">hang </text>
<circle cx="266" cy="126.0" r="8.58" fill="#81d4fa" stroke="none"/>
<text x="266" y="130.0" font-family="sans-serif" font-size="13" font-weight="bold" text-anchor="middle" fill="#fff">11</text>
<text x="266" y="196.58" font-family="sans-serif" font-size="14" font-weight="normal" text-anchor="middle" fill="#222">low? </text>
<circle cx="310" cy="170.0" r="8.58" fill="#f57c00" stroke="none"/>
<text x="310" y="174.0" font-family="sans-serif" font-size="13" font-weight="bold" text-anchor="middle" fill="#fff">6</text>
<text x="310" y="196.58" font-family="sans-serif" font-size="14" font-weight="normal" text-anchor="middle" fill="#222">Do </text>
<circle cx="354" cy="164.5" r="8.58" fill="#fbc02d" stroke="none"/>
<text x="354" y="168.5" font-family="sans-serif" font-size="13" font-weight="bold" text-anchor="middle" fill="#fff">7</text>
<text x="354" y="196.58" font-family="sans-serif" font-size="14" font-weight="normal" text-anchor="middle" fill="#222">they </text>
<circle cx="398" cy="153.5" r="8.58" fill="#43a047" stroke="none"/>
<text x="398" y="157.5" font-family="sans-serif" font-size="13" font-weight="bold" text-anchor="middle" fill="#fff">8</text>
<text x="398" y="196.58" font-family="sans-serif" font-size="14" font-weight="normal" text-anchor="middle" fill="#222">wob- </text>
<circle cx="442" cy="142.5" r="8.58" fill="#2e7d32" stroke="none"/>
<text x="442" y="146.5" font-family="sans-serif" font-size="13" font-weight="bold" text-anchor="middle" fill="#fff">9</text>
<text x="442" y="196.58" font-family="sans-serif" font-size="14" font-weight="normal" text-anchor="middle" fill="#222">ble </text>
<circle cx="486" cy="153.5" r="8.58" fill="#43a047" stroke="none"/>
<text x="486" y="157.5" font-family="sans-serif" font-size="13" font-weight="bold" text-anchor="middle" fill="#fff">8</text>
<text x="486" y="196.58" font-family="sans-serif" font-size="14" font-weight="normal" text-anchor="middle" fill="#222">to </text>
<circle cx="530" cy="170.0" r="8.58" fill="#f57c00" stroke="none"/>
<text x="530" y="174.0" font-family="sans-serif" font-size="13" font-weight="bold" text-anchor="middle" fill="#fff">6</text>
<text x="530" y="196.58" font-family="sans-serif" font-size="14" font-weight="normal" text-anchor="middle" fill="#222">and </text>
<circle cx="574" cy="153.5" r="8.58" fill="#43a047" stroke="none"/>
<text x="574" y="157.5" font-family="sans-serif" font-size="13" font-weight="bold" text-anchor="middle" fill="#fff">8</text>
<text x="574" y="196.58" font-family="sans-serif" font-size="14" font-weight="normal" text-anchor="middle" fill="#222">fro?</text>
<line x1="50" y1="242.58" x2="706" y2="242.58" stroke="#444" stroke-width="1"/>
<line x1="50" y1="253.58" x2="706" y2="253.58" stroke="#444" stroke-width="1"/>
<line x1="50" y1="264.58000000000004" x2="706" y2="264.58000000000004" stroke="#444" stroke-width="1"/>
<line x1="50" y1="275.58000000000004" x2="706" y2="275.58000000000004" stroke="#444" stroke-width="1"/>
<line x1="50" y1="286.58000000000004" x2="706" y2="286.58000000000004" stroke="#444" stroke-width="1"/>
<line x1="50" y1="242.58" x2="50" y2="286.58000000000004" stroke="#444" stroke-width="1"/>
<line x1="706" y1="242.58" x2="706" y2="286.58000000000004" stroke="#444" stroke-width="1"/>
<text x="62" y="283.83000000000004" font-size="55" font-family="FreeSerif, DejaVu Serif, Times New Roman, serif" text-anchor="middle" fill="#222">&#x1D11E;</text>
<circle cx="90" cy="242.58" r="8.58" fill="#81d4fa" stroke="none"/>
<text x="90" y="246.58" font-family="sans-serif" font-size="13" font-weight="bold" text-anchor="middle" fill="#fff">11</text>
<text x="90" y="304.58000000000004" font-family="sans-serif" font-size="14" font-weight="normal" text-anchor="middle" fill="#222">Can </text>
<line x1="115.124" y1="231.58" x2="152.876" y2="231.58" stroke="#444" stroke-width="1"/>
<circle cx="134" cy="231.58" r="8.58" fill="#42a5f5" stroke="none"/>
<text x="134" y="235.58" font-family="sans-serif" font-size="13" font-weight="bold" text-anchor="middle" fill="#fff">12</text>
<text x="134" y="304.58000000000004" font-family="sans-serif" font-size="14" font-weight="normal" text-anchor="middle" fill="#222">you </text>
<line x1="159.124" y1="220.58" x2="196.876" y2="220.58" stroke="#444" stroke-width="1"/>
<line x1="159.124" y1="231.58" x2="196.876" y2="231.58" stroke="#444" stroke-width="1"/>
<circle cx="178" cy="220.58" r="8.58" fill="#3949ab" stroke="none"/>
<text x="178" y="224.58" font-family="sans-serif" font-size="13" font-weight="bold" text-anchor="middle" fill="#fff">13</text>
<text x="178" y="304.58000000000004" font-family="sans-serif" font-size="14" font-weight="normal" text-anchor="middle" fill="#222">tie </text>
<line x1="203.124" y1="220.58" x2="240.876" y2="220.58" stroke="#444" stroke-width="1"/>
<line x1="203.124" y1="231.58" x2="240.876" y2="231.58" stroke="#444" stroke-width="1"/>
<circle cx="222" cy="220.58" r="8.58" fill="#3949ab" stroke="none"/>
<text x="222" y="224.58" font-family="sans-serif" font-size="13" font-weight="bold" text-anchor="middle" fill="#fff">13</text>
<text x="222" y="304.58000000000004" font-family="sans-serif" font-size="14" font-weight="normal" text-anchor="middle" fill="#222">them </text>
<line x1="247.124" y1="220.58" x2="284.876" y2="220.58" stroke="#444" stroke-width="1"/>
<line x1="247.124" y1="231.58" x2="284.876" y2="231.58" stroke="#444" stroke-width="1"/>
<circle cx="266" cy="220.58" r="8.58" fill="#3949ab" stroke="none"/>
<text x="266" y="224.58" font-family="sans-serif" font-size="13" font-weight="bold" text-anchor="middle" fill="#fff">13</text>
<text x="266" y="304.58000000000004" font-family="sans-serif" font-size="14" font-weight="normal" text-anchor="middle" fill="#222">in </text>
<line x1="291.124" y1="220.58" x2="328.876" y2="220.58" stroke="#444" stroke-width="1"/>
<line x1="291.124" y1="231.58" x2="328.876" y2="231.58" stroke="#444" stroke-width="1"/>
<circle cx="310" cy="220.58" r="8.58" fill="#3949ab" stroke="none"/>
<text x="310" y="224.58" font-family="sans-serif" font-size="13" font-weight="bold" text-anchor="middle" fill="#fff">13</text>
<text x="310" y="304.58000000000004" font-family="sans-serif" font-size="14" font-weight="normal" text-anchor="middle" fill="#222">a </text>
<line x1="335.124" y1="220.58" x2="372.876" y2="220.58" stroke="#444" stroke-width="1"/>
<line x1="335.124" y1="231.58" x2="372.876" y2="231.58" stroke="#444" stroke-width="1"/>
<circle cx="354" cy="220.58" r="8.58" fill="#3949ab" stroke="none"/>
<text x="354" y="224.58" font-family="sans-serif" font-size="13" font-weight="bold" text-anchor="middle" fill="#fff">13</text>
<text x="354" y="304.58000000000004" font-family="sans-serif" font-size="14" font-weight="normal" text-anchor="middle" fill="#222">knot? </text>
<circle cx="398" cy="242.58" r="8.58" fill="#81d4fa" stroke="none"/>
<text x="398" y="246.58" font-family="sans-serif" font-size="13" font-weight="bold" text-anchor="middle" fill="#fff">11</text>
<text x="398" y="304.58000000000004" font-family="sans-serif" font-size="14" font-weight="normal" text-anchor="middle" fill="#222">Can </text>
<line x1="423.124" y1="231.58" x2="460.876" y2="231.58" stroke="#444" stroke-width="1"/>
<circle cx="442" cy="231.58" r="8.58" fill="#42a5f5" stroke="none"/>
<text x="442" y="235.58" font-family="sans-serif" font-size="13" font-weight="bold" text-anchor="middle" fill="#fff">12</text>
<text x="442" y="304.58000000000004" font-family="sans-serif" font-size="14" font-weight="normal" text-anchor="middle" fill="#222">you </text>
<line x1="467.124" y1="220.58" x2="504.876" y2="220.58" stroke="#444" stroke-width="1"/>
<line x1="467.124" y1="231.58" x2="504.876" y2="231.58" stroke="#444" stroke-width="1"/>
<circle cx="486" cy="220.58" r="8.58" fill="#3949ab" stroke="none"/>
<text x="486" y="224.58" font-family="sans-serif" font-size="13" font-weight="bold" text-anchor="middle" fill="#fff">13</text>
<text x="486" y="304.58000000000004" font-family="sans-serif" font-size="14" font-weight="normal" text-anchor="middle" fill="#222">tie </text>
<line x1="511.124" y1="231.58" x2="548.876" y2="231.58" stroke="#444" stroke-width="1"/>
<circle cx="530" cy="231.58" r="8.58" fill="#42a5f5" stroke="none"/>
<text x="530" y="235.58" font-family="sans-serif" font-size="13" font-weight="bold" text-anchor="middle" fill="#fff">12</text>
<text x="530" y="304.58000000000004" font-family="sans-serif" font-size="14" font-weight="normal" text-anchor="middle" fill="#222">them </text>
<line x1="555.124" y1="231.58" x2="592.876" y2="231.58" stroke="#444" stroke-width="1"/>
<circle cx="574" cy="231.58" r="8.58" fill="#42a5f5" stroke="none"/>
<text x="574" y="235.58" font-family="sans-serif" font-size="13" font-weight="bold" text-anchor="middle" fill="#fff">12</text>
<text x="574" y="304.58000000000004" font-family="sans-serif" font-size="14" font-weight="normal" text-anchor="middle" fill="#222">in </text>
<line x1="599.124" y1="231.58" x2="636.876" y2="231.58" stroke="#444" stroke-width="1"/>
<circle cx="618" cy="231.58" r="8.58" fill="#42a5f5" stroke="none"/>
<text x="618" y="235.58" font-family="sans-serif" font-size="13" font-weight="bold" text-anchor="middle" fill="#fff">12</text>
<text x="618" y="304.58000000000004" font-family="sans-serif" font-size="14" font-weight="normal" text-anchor="middle" fill="#222">a </text>
<line x1="643.124" y1="231.58" x2="680.876" y2="231.58" stroke="#444" stroke-width="1"/>
<circle cx="662" cy="231.58" r="8.58" fill="#42a5f5" stroke="none"/>
<text x="662" y="235.58" font-family="sans-serif" font-size="13" font-weight="bold" text-anchor="middle" fill="#fff">12</text>
<text x="662" y="304.58000000000004" font-family="sans-serif" font-size="14" font-weight="normal" text-anchor="middle" fill="#222">bow?</text>
<line x1="50" y1="350.58000000000004" x2="706" y2="350.58000000000004" stroke="#444" stroke-width="1"/>
<line x1="50" y1="361.58000000000004" x2="706" y2="361.58000000000004" stroke="#444" stroke-width="1"/>
<line x1="50" y1="372.58000000000004" x2="706" y2="372.58000000000004" stroke="#444" stroke-width="1"/>
<line x1="50" y1="383.58000000000004" x2="706" y2="383.58000000000004" stroke="#444" stroke-width="1"/>
<line x1="50" y1="394.58000000000004" x2="706" y2="394.58000000000004" stroke="#444" stroke-width="1"/>
<line x1="50" y1="350.58000000000004" x2="50" y2="394.58000000000004" stroke="#444" stroke-width="1"/>
<line x1="706" y1="350.58000000000004" x2="706" y2="394.58000000000004" stroke="#444" stroke-width="1"/>
<text x="62" y="391.83000000000004" font-size="55" font-family="FreeSerif, DejaVu Serif, Times New Roman, serif" text-anchor="middle" fill="#222">&#x1D11E;</text>
<line x1="71.124" y1="328.58000000000004" x2="108.876" y2="328.58000000000004" stroke="#444" stroke-width="1"/>
<line x1="71.124" y1="339.58000000000004" x2="108.876" y2="339.58000000000004" stroke="#444" stroke-width="1"/>
<circle cx="90" cy="328.58000000000004" r="8.58" fill="#3949ab" stroke="none"/>
<text x="90" y="332.58000000000004" font-family="sans-serif" font-size="13" font-weight="bold" text-anchor="middle" fill="#fff">13</text>
<text x="90" y="421.16" font-family="sans-serif" font-size="14" font-weight="normal" text-anchor="middle" fill="#222">Can </text>
<line x1="115.124" y1="339.58000000000004" x2="152.876" y2="339.58000000000004" stroke="#444" stroke-width="1"/>
<circle cx="134" cy="339.58000000000004" r="8.58" fill="#42a5f5" stroke="none"/>
<text x="134" y="343.58000000000004" font-family="sans-serif" font-size="13" font-weight="bold" text-anchor="middle" fill="#fff">12</text>
<text x="134" y="421.16" font-family="sans-serif" font-size="14" font-weight="normal" text-anchor="middle" fill="#222">you </text>
<circle cx="178" cy="350.58000000000004" r="8.58" fill="#81d4fa" stroke="none"/>
<text x="178" y="354.58000000000004" font-family="sans-serif" font-size="13" font-weight="bold" text-anchor="middle" fill="#fff">11</text>
<text x="178" y="421.16" font-family="sans-serif" font-size="14" font-weight="normal" text-anchor="middle" fill="#222">throw </text>
<circle cx="222" cy="350.58000000000004" r="8.58" fill="#81d4fa" stroke="none"/>
<text x="222" y="354.58000000000004" font-family="sans-serif" font-size="13" font-weight="bold" text-anchor="middle" fill="#fff">11</text>
<text x="222" y="421.16" font-family="sans-serif" font-size="14" font-weight="normal" text-anchor="middle" fill="#222">them </text>
<circle cx="266" cy="350.58000000000004" r="8.58" fill="#81d4fa" stroke="none"/>
<text x="266" y="354.58000000000004" font-family="sans-serif" font-size="13" font-weight="bold" text-anchor="middle" fill="#fff">11</text>
<text x="266" y="421.16" font-family="sans-serif" font-size="14" font-weight="normal" text-anchor="middle" fill="#222">over </text>
<circle cx="310" cy="350.58000000000004" r="8.58" fill="#81d4fa" stroke="none"/>
<text x="310" y="354.58000000000004" font-family="sans-serif" font-size="13" font-weight="bold" text-anchor="middle" fill="#fff">11</text>
<text x="310" y="421.16" font-family="sans-serif" font-size="14" font-weight="normal" text-anchor="middle" fill="#222">your </text>
<circle cx="354" cy="350.58000000000004" r="8.58" fill="#81d4fa" stroke="none"/>
<text x="354" y="354.58000000000004" font-family="sans-serif" font-size="13" font-weight="bold" text-anchor="middle" fill="#fff">11</text>
<text x="354" y="421.16" font-family="sans-serif" font-size="14" font-weight="normal" text-anchor="middle" fill="#222">shoul- </text>
<circle cx="398" cy="378.08000000000004" r="8.58" fill="#43a047" stroke="none"/>
<text x="398" y="382.08000000000004" font-family="sans-serif" font-size="13" font-weight="bold" text-anchor="middle" fill="#fff">8</text>
<text x="398" y="421.16" font-family="sans-serif" font-size="14" font-weight="normal" text-anchor="middle" fill="#222">der </text>
<circle cx="442" cy="394.58000000000004" r="8.58" fill="#f57c00" stroke="none"/>
<text x="442" y="398.58000000000004" font-family="sans-serif" font-size="13" font-weight="bold" text-anchor="middle" fill="#fff">6</text>
<text x="442" y="421.16" font-family="sans-serif" font-size="14" font-weight="normal" text-anchor="middle" fill="#222">like </text>
<circle cx="486" cy="389.08000000000004" r="8.58" fill="#fbc02d" stroke="none"/>
<text x="486" y="393.08000000000004" font-family="sans-serif" font-size="13" font-weight="bold" text-anchor="middle" fill="#fff">7</text>
<text x="486" y="421.16" font-family="sans-serif" font-size="14" font-weight="normal" text-anchor="middle" fill="#222">a </text>
<circle cx="530" cy="378.08000000000004" r="8.58" fill="#43a047" stroke="none"/>
<text x="530" y="382.08000000000004" font-family="sans-serif" font-size="13" font-weight="bold" text-anchor="middle" fill="#fff">8</text>
<text x="530" y="421.16" font-family="sans-serif" font-size="14" font-weight="normal" text-anchor="middle" fill="#222">con- </text>
<circle cx="574" cy="367.08000000000004" r="8.58" fill="#2e7d32" stroke="none"/>
<text x="574" y="371.08000000000004" font-family="sans-serif" font-size="13" font-weight="bold" text-anchor="middle" fill="#fff">9</text>
<text x="574" y="421.16" font-family="sans-serif" font-size="14" font-weight="normal" text-anchor="middle" fill="#222">ti- </text>
<circle cx="618" cy="378.08000000000004" r="8.58" fill="#43a047" stroke="none"/>
<text x="618" y="382.08000000000004" font-family="sans-serif" font-size="13" font-weight="bold" text-anchor="middle" fill="#fff">8</text>
<text x="618" y="421.16" font-family="sans-serif" font-size="14" font-weight="normal" text-anchor="middle" fill="#222">nen- </text>
<circle cx="662" cy="394.58000000000004" r="8.58" fill="#f57c00" stroke="none"/>
<text x="662" y="398.58000000000004" font-family="sans-serif" font-size="13" font-weight="bold" text-anchor="middle" fill="#fff">6</text>
<text x="662" y="421.16" font-family="sans-serif" font-size="14" font-weight="normal" text-anchor="middle" fill="#222">tal</text>
<line x1="50" y1="467.16" x2="706" y2="467.16" stroke="#444" stroke-width="1"/>
<line x1="50" y1="478.16" x2="706" y2="478.16" stroke="#444" stroke-width="1"/>
<line x1="50" y1="489.16" x2="706" y2="489.16" stroke="#444" stroke-width="1"/>
<line x1="50" y1="500.16" x2="706" y2="500.16" stroke="#444" stroke-width="1"/>
<line x1="50" y1="511.16" x2="706" y2="511.16" stroke="#444" stroke-width="1"/>
<line x1="50" y1="467.16" x2="50" y2="511.16" stroke="#444" stroke-width="1"/>
<line x1="706" y1="467.16" x2="706" y2="511.16" stroke="#444" stroke-width="1"/>
<text x="62" y="508.41" font-size="55" font-family="FreeSerif, DejaVu Serif, Times New Roman, serif" text-anchor="middle" fill="#222">&#x1D11E;</text>
<circle cx="90" cy="494.66" r="8.58" fill="#43a047" stroke="none"/>
<text x="90" y="498.66" font-family="sans-serif" font-size="13" font-weight="bold" text-anchor="middle" fill="#fff">8</text>
<text x="90" y="529.1600000000001" font-family="sans-serif" font-size="14" font-weight="normal" text-anchor="middle" fill="#222">sol- </text>
<circle cx="134" cy="494.66" r="8.58" fill="#43a047" stroke="none"/>
<text x="134" y="498.66" font-family="sans-serif" font-size="13" font-weight="bold" text-anchor="middle" fill="#fff">8</text>
<text x="134" y="529.1600000000001" font-family="sans-serif" font-size="14" font-weight="normal" text-anchor="middle" fill="#222">dier? </text>
<circle cx="178" cy="467.16" r="8.58" fill="#81d4fa" stroke="none"/>
<text x="178" y="471.16" font-family="sans-serif" font-size="13" font-weight="bold" text-anchor="middle" fill="#fff">11</text>
<text x="178" y="529.1600000000001" font-family="sans-serif" font-size="14" font-weight="normal" text-anchor="middle" fill="#222">Do </text>
<line x1="203.124" y1="456.16" x2="240.876" y2="456.16" stroke="#444" stroke-width="1"/>
<circle cx="222" cy="456.16" r="8.58" fill="#42a5f5" stroke="none"/>
<text x="222" y="460.16" font-family="sans-serif" font-size="13" font-weight="bold" text-anchor="middle" fill="#fff">12</text>
<text x="222" y="529.1600000000001" font-family="sans-serif" font-size="14" font-weight="normal" text-anchor="middle" fill="#222">your </text>
<line x1="247.124" y1="445.16" x2="284.876" y2="445.16" stroke="#444" stroke-width="1"/>
<line x1="247.124" y1="456.16" x2="284.876" y2="456.16" stroke="#444" stroke-width="1"/>
<circle cx="266" cy="445.16" r="8.58" fill="#3949ab" stroke="none"/>
<text x="266" y="449.16" font-family="sans-serif" font-size="13" font-weight="bold" text-anchor="middle" fill="#fff">13</text>
<text x="266" y="529.1600000000001" font-family="sans-serif" font-size="14" font-weight="normal" text-anchor="middle" fill="#222">ears </text>
<text x="310" y="489.16" font-family="sans-serif" font-size="30" font-weight="normal" text-anchor="middle" fill="#888">·</text>
<text x="310" y="529.1600000000001" font-family="sans-serif" font-size="14" font-weight="normal" text-anchor="middle" fill="#222"> </text>
<line x1="335.124" y1="456.16" x2="372.876" y2="456.16" stroke="#444" stroke-width="1"/>
<circle cx="354" cy="456.16" r="8.58" fill="#42a5f5" stroke="none"/>
<text x="354" y="460.16" font-family="sans-serif" font-size="13" font-weight="bold" text-anchor="middle" fill="#fff">12</text>
<text x="354" y="529.1600000000001" font-family="sans-serif" font-size="14" font-weight="normal" text-anchor="middle" fill="#222">hang </text>
<text x="398" y="489.16" font-family="sans-serif" font-size="30" font-weight="normal" text-anchor="middle" fill="#888">·</text>
<text x="398" y="529.1600000000001" font-family="sans-serif" font-size="14" font-weight="normal" text-anchor="middle" fill="#222"> </text>
<circle cx="442" cy="467.16" r="8.58" fill="#81d4fa" stroke="none"/>
<text x="442" y="471.16" font-family="sans-serif" font-size="13" font-weight="bold" text-anchor="middle" fill="#fff">11</text>
<text x="442" y="529.1600000000001" font-family="sans-serif" font-size="14" font-weight="normal" text-anchor="middle" fill="#222">low?</text>
</svg>