<svg xmlns="http://www.w3.org/2000/svg" width="598" height="906.32">
<rect width="100%" height="100%" fill="white"/>
<text x="299.0" y="40" font-family="serif" font-size="28" font-weight="normal" text-anchor="middle" fill="#222">Für Elise</text>
<line x1="50" y1="126" x2="574" y2="126" stroke="#444" stroke-width="1"/>
<line x1="50" y1="137" x2="574" y2="137" stroke="#444" stroke-width="1"/>
<line x1="50" y1="148" x2="574" y2="148" stroke="#444" stroke-width="1"/>
<line x1="50" y1="159" x2="574" y2="159" stroke="#444" stroke-width="1"/>
<line x1="50" y1="170" x2="574" y2="170" stroke="#444" stroke-width="1"/>
<line x1="50" y1="126" x2="50" y2="170" stroke="#444" stroke-width="1"/>
<line x1="574" y1="126" x2="574" y2="170" stroke="#444" stroke-width="1"/>
<text x="62" y="167.25" font-size="55" font-family="FreeSerif, DejaVu Serif, Times New Roman, serif" text-anchor="middle" fill="#222">&#x1D11E;</text>
<line x1="71.124" y1="104.0" x2="108.876" y2="104.0" stroke="#444" stroke-width="1"/>
<line x1="71.124" y1="115.0" x2="108.876" y2="115.0" stroke="#444" stroke-width="1"/>
<circle cx="90" cy="104.0" r="8.58" fill="#3949ab" stroke="none"/>
<text x="90" y="108.0" font-family="sans-serif" font-size="13" font-weight="bold" text-anchor="middle" fill="#fff">13</text>
<text x="90" y="188" font-family="sans-serif" font-size="14" font-weight="normal" text-anchor="middle" fill="#222"> </text>
<line x1="115.124" y1="115.0" x2="152.876" y2="115.0" stroke="#444" stroke-width="1"/>
<circle cx="134" cy="109.5" r="8.58" fill="#222" stroke="none"/>
<text x="134" y="113.5" font-family="sans-serif" font-size="13" font-weight="bold" text-anchor="middle" fill="#fff">9</text>
<text x="134" y="188" font-family="sans-serif" font-size="14" font-weight="normal" text-anchor="middle" fill="#222"> </text>
<line x1="159.124" y1="104.0" x2="196.876" y2="104.0" stroke="#444" stroke-width="1"/>
<line x1="159.124" y1="115.0" x2="196.876" y2="115.0" stroke="#444" stroke-width="1"/>
<circle cx="178" cy="104.0" r="8.58" fill="#3949ab" stroke="none"/>
<text x="178" y="108.0" font-family="sans-serif" font-size="13" font-weight="bold" text-anchor="middle" fill="#fff">13</text>
<text x="178" y="188" font-family="sans-serif" font-size="14" font-weight="normal" text-anchor="middle" fill="#222"> </text>
<line x1="203.124" y1="115.0" x2="240.876" y2="115.0" stroke="#444" stroke-width="1"/>
<circle cx="222" cy="109.5" r="8.58" fill="#222" stroke="none"/>
<text x="222" y="113.5" font-family="sans-serif" font-size="13" font-weight="bold" text-anchor="middle" fill="#fff">9</text>
<text x="222" y="188" font-family="sans-serif" font-size="14" font-weight="normal" text-anchor="middle" fill="#222"> </text>
<line x1="247.124" y1="104.0" x2="284.876" y2="104.0" stroke="#444" stroke-width="1"/>
<line x1="247.124" y1="115.0" x2="284.876" y2="115.0" stroke="#444" stroke-width="1"/>
<circle cx="266" cy="104.0" r="8.58" fill="#3949ab" stroke="none"/>
<text x="266" y="108.0" font-family="sans-serif" font-size="13" font-weight="bold" text-anchor="middle" fill="#fff">13</text>
<text x="266" y="188" font-family="sans-serif" font-size="14" font-weight="normal" text-anchor="middle" fill="#222"> </text>
<circle cx="310" cy="131.5" r="8.58" fill="#00acc1" stroke="none"/>
<text x="310" y="135.5" font-family="sans-serif" font-size="13" font-weight="bold" text-anchor="middle" fill="#fff">10</text>
<text x="310" y="188" font-family="sans-serif" font-size="14" font-weight="normal" text-anchor="middle" fill="#222"> </text>
<line x1="335.124" y1="115.0" x2="372.876" y2="115.0" stroke="#444" stroke-width="1"/>
<circle cx="354" cy="115.0" r="8.58" fill="#42a5f5" stroke="none"/>
<text x="354" y="119.0" font-family="sans-serif" font-size="13" font-weight="bold" text-anchor="middle" fill="#fff">12</text>
<text x="354" y="188" font-family="sans-serif" font-size="14" font-weight="normal" text-anchor="middle" fill="#222"> </text>
<circle cx="398" cy="126.0" r="8.58" fill="#81d4fa" stroke="none"/>
<text x="398" y="130.0" font-family="sans-serif" font-size="13" font-weight="bold" text-anchor="middle" fill="#fff">11</text>
<text x="398" y="188" font-family="sans-serif" font-size="14" font-weight="normal" text-anchor="middle" fill="#222"> </text>
<circle cx="442" cy="142.5" r="8.58" fill="#2e7d32" stroke="none"/>
<text x="442" y="146.5" font-family="sans-serif" font-size="13" font-weight="bold" text-anchor="middle" fill="#fff">9</text>
<line x1="50" y1="234" x2="574" y2="234" stroke="#444" stroke-width="1"/>
<line x1="50" y1="245" x2="574" y2="245" stroke="#444" stroke-width="1"/>
<line x1="50" y1="256" x2="574" y2="256" stroke="#444" stroke-width="1"/>
<line x1="50" y1="267" x2="574" y2="267" stroke="#444" stroke-width="1"/>
<line x1="50" y1="278" x2="574" y2="278" stroke="#444" stroke-width="1"/>
<line x1="50" y1="234" x2="50" y2="278" stroke="#444" stroke-width="1"/>
<line x1="574" y1="234" x2="574" y2="278" stroke="#444" stroke-width="1"/>
<text x="62" y="275.25" font-size="55" font-family="FreeSerif, DejaVu Serif, Times New Roman, serif" text-anchor="middle" fill="#222">&#x1D11E;</text>
<line x1="71.124" y1="289.0" x2="108.876" y2="289.0" stroke="#444" stroke-width="1"/>
<line x1="71.124" y1="300.0" x2="108.876" y2="300.0" stroke="#444" stroke-width="1"/>
<circle cx="90" cy="300.0" r="8.58" fill="#d81b60" stroke="none"/>
<text x="90" y="304.0" font-family="sans-serif" font-size="13" font-weight="bold" text-anchor="middle" fill="#fff">4</text>
<text x="90" y="326.58" font-family="sans-serif" font-size="14" font-weight="normal" text-anchor="middle" fill="#222"> </text>
<circle cx="134" cy="278.0" r="8.58" fill="#f57c00" stroke="none"/>
<text x="134" y="282.0" font-family="sans-serif" font-size="13" font-weight="bold" text-anchor="middle" fill="#fff">6</text>
<text x="134" y="326.58" font-family="sans-serif" font-size="14" font-weight="normal" text-anchor="middle" fill="#222"> </text>
<circle cx="178" cy="250.5" r="8.58" fill="#2e7d32" stroke="none"/>
<text x="178" y="254.5" font-family="sans-serif" font-size="13" font-weight="bold" text-anchor="middle" fill="#fff">9</text>
<text x="178" y="326.58" font-family="sans-serif" font-size="14" font-weight="normal" text-anchor="middle" fill="#222"> </text>
<circle cx="222" cy="239.5" r="8.58" fill="#00acc1" stroke="none"/>
<text x="222" y="243.5" font-family="sans-serif" font-size="13" font-weight="bold" text-anchor="middle" fill="#fff">10</text>
<text x="222" y="326.58" font-family="sans-serif" font-size="14" font-weight="normal" text-anchor="middle" fill="#222"> </text>
<text x="266" y="256" font-family="sans-serif" font-size="30" font-weight="normal" text-anchor="middle" fill="#888">·</text>
<text x="266" y="326.58" font-family="sans-serif" font-size="14" font-weight="normal" text-anchor="middle" fill="#222"> </text>
<circle cx="310" cy="278.0" r="8.58" fill="#f57c00" stroke="none"/>
<text x="310" y="282.0" font-family="sans-serif" font-size="13" font-weight="bold" text-anchor="middle" fill="#fff">6</text>
<text x="310" y="326.58" font-family="sans-serif" font-size="14" font-weight="normal" text-anchor="middle" fill="#222"> </text>
<circle cx="354" cy="256.0" r="8.58" fill="#222" stroke="none"/>
<text x="354" y="260.0" font-family="sans-serif" font-size="13" font-weight="bold" text-anchor="middle" fill="#fff">6</text>
<text x="354" y="326.58" font-family="sans-serif" font-size="14" font-weight="normal" text-anchor="middle" fill="#222"> </text>
<circle cx="398" cy="239.5" r="8.58" fill="#00acc1" stroke="none"/>
<text x="398" y="243.5" font-family="sans-serif" font-size="13" font-weight="bold" text-anchor="middle" fill="#fff">10</text>
<text x="398" y="326.58" font-family="sans-serif" font-size="14" font-weight="normal" text-anchor="middle" fill="#222"> </text>
<circle cx="442" cy="234.0" r="8.58" fill="#81d4fa" stroke="none"/>
<text x="442" y="238.0" font-family="sans-serif" font-size="13" font-weight="bold" text-anchor="middle" fill="#fff">11</text>
<line x1="50" y1="372.58" x2="574" y2="372.58" stroke="#444" stroke-width="1"/>
<line x1="50" y1="383.58" x2="574" y2="383.58" stroke="#444" stroke-width="1"/>
<line x1="50" y1="394.58" x2="574" y2="394.58" stroke="#444" stroke-width="1"/>
<line x1="50" y1="405.58" x2="574" y2="405.58" stroke="#444" stroke-width="1"/>
<line x1="50" y1="416.58" x2="574" y2="416.58" stroke="#444" stroke-width="1"/>
<line x1="50" y1="372.58" x2="50" y2="416.58" stroke="#444" stroke-width="1"/>
<line x1="574" y1="372.58" x2="574" y2="416.58" stroke="#444" stroke-width="1"/>
<text x="62" y="413.83" font-size="55" font-family="FreeSerif, DejaVu Serif, Times New Roman, serif" text-anchor="middle" fill="#222">&#x1D11E;</text>
<line x1="71.124" y1="427.58" x2="108.876" y2="427.58" stroke="#444" stroke-width="1"/>
<line x1="71.124" y1="438.58" x2="108.876" y2="438.58" stroke="#444" stroke-width="1"/>
<circle cx="90" cy="438.58" r="8.58" fill="#d81b60" stroke="none"/>
<text x="90" y="442.58" font-family="sans-serif" font-size="13" font-weight="bold" text-anchor="middle" fill="#fff">4</text>
<text x="90" y="465.15999999999997" font-family="sans-serif" font-size="14" font-weight="normal" text-anchor="middle" fill="#222"> </text>
<circle cx="134" cy="416.58" r="8.58" fill="#f57c00" stroke="none"/>
<text x="134" y="420.58" font-family="sans-serif" font-size="13" font-weight="bold" text-anchor="middle" fill="#fff">6</text>
<text x="134" y="465.15999999999997" font-family="sans-serif" font-size="14" font-weight="normal" text-anchor="middle" fill="#222"> </text>
<circle cx="178" cy="389.08" r="8.58" fill="#2e7d32" stroke="none"/>
<text x="178" y="393.08" font-family="sans-serif" font-size="13" font-weight="bold" text-anchor="middle" fill="#fff">9</text>
<text x="178" y="465.15999999999997" font-family="sans-serif" font-size="14" font-weight="normal" text-anchor="middle" fill="#222"> </text>
<circle cx="222" cy="378.08" r="8.58" fill="#00acc1" stroke="none"/>
<text x="222" y="382.08" font-family="sans-serif" font-size="13" font-weight="bold" text-anchor="middle" fill="#fff">10</text>
<text x="222" y="465.15999999999997" font-family="sans-serif" font-size="14" font-weight="normal" text-anchor="middle" fill="#222"> </text>
<text x="266" y="394.58" font-family="sans-serif" font-size="30" font-weight="normal" text-anchor="middle" fill="#888">·</text>
<text x="266" y="465.15999999999997" font-family="sans-serif" font-size="14" font-weight="normal" text-anchor="middle" fill="#222"> </text>
<circle cx="310" cy="416.58" r="8.58" fill="#f57c00" stroke="none"/>
<text x="310" y="420.58" font-family="sans-serif" font-size="13" font-weight="bold" text-anchor="middle" fill="#fff">6</text>
<text x="310" y="465.15999999999997" font-family="sans-serif" font-size="14" font-weight="normal" text-anchor="middle" fill="#222"> </text>
<circle cx="354" cy="394.58" r="8.58" fill="#222" stroke="none"/>
<text x="354" y="398.58" font-family="sans-serif" font-size="13" font-weight="bold" text-anchor="middle" fill="#fff">6</text>
<text x="354" y="465.15999999999997" font-family="sans-serif" font-size="14" font-weight="normal" text-anchor="middle" fill="#222"> </text>
<circle cx="398" cy="378.08" r="8.58" fill="#00acc1" stroke="none"/>
<text x="398" y="382.08" font-family="sans-serif" font-size="13" font-weight="bold" text-anchor="middle" fill="#fff">10</text>
<text x="398" y="465.15999999999997" font-family="sans-serif" font-size="14" font-weight="normal" text-anchor="middle" fill="#222"> </text>
<circle cx="442" cy="389.08" r="8.58" fill="#2e7d32" stroke="none"/>
<text x="442" y="393.08" font-family="sans-serif" font-size="13" font-weight="bold" text-anchor="middle" fill="#fff">9</text>
<line x1="50" y1="511.15999999999997" x2="574" y2="511.15999999999997" stroke="#444" stroke-width="1"/>
<line x1="50" y1="522.16" x2="574" y2="522.16" stroke="#444" stroke-width="1"/>
<line x1="50" y1="533.16" x2="574" y2="533.16" stroke="#444" stroke-width="1"/>
<line x1="50" y1="544.16" x2="574" y2="544.16" stroke="#444" stroke-width="1"/>
<line x1="50" y1="555.16" x2="574" y2="555.16" stroke="#444" stroke-width="1"/>
<line x1="50" y1="511.15999999999997" x2="50" y2="555.16" stroke="#444" stroke-width="1"/>
<line x1="574" y1="511.15999999999997" x2="574" y2="555.16" stroke="#444" stroke-width="1"/>
<text x="62" y="552.41" font-size="55" font-family="FreeSerif, DejaVu Serif, Times New Roman, serif" text-anchor="middle" fill="#222">&#x1D11E;</text>
<line x1="71.124" y1="489.15999999999997" x2="108.876" y2="489.15999999999997" stroke="#444" stroke-width="1"/>
<line x1="71.124" y1="500.15999999999997" x2="108.876" y2="500.15999999999997" stroke="#444" stroke-width="1"/>
<circle cx="90" cy="489.15999999999997" r="8.58" fill="#3949ab" stroke="none"/>
<text x="90" y="493.15999999999997" font-family="sans-serif" font-size="13" font-weight="bold" text-anchor="middle" fill="#fff">13</text>
<text x="90" y="573.16" font-family="sans-serif" font-size="14" font-weight="normal" text-anchor="middle" fill="#222"> </text>
<line x1="115.124" y1="500.15999999999997" x2="152.876" y2="500.15999999999997" stroke="#444" stroke-width="1"/>
<circle cx="134" cy="494.65999999999997" r="8.58" fill="#222" stroke="none"/>
<text x="134" y="498.65999999999997" font-family="sans-serif" font-size="13" font-weight="bold" text-anchor="middle" fill="#fff">9</text>
<text x="134" y="573.16" font-family="sans-serif" font-size="14" font-weight="normal" text-anchor="middle" fill="#222"> </text>
<line x1="159.124" y1="489.15999999999997" x2="196.876" y2="489.15999999999997" stroke="#444" stroke-width="1"/>
<line x1="159.124" y1="500.15999999999997" x2="196.876" y2="500.15999999999997" stroke="#444" stroke-width="1"/>
<circle cx="178" cy="489.15999999999997" r="8.58" fill="#3949ab" stroke="none"/>
<text x="178" y="493.15999999999997" font-family="sans-serif" font-size="13" font-weight="bold" text-anchor="middle" fill="#fff">13</text>
<text x="178" y="573.16" font-family="sans-serif" font-size="14" font-weight="normal" text-anchor="middle" fill="#222"> </text>
<line x1="203.124" y1="500.15999999999997" x2="240.876" y2="500.15999999999997" stroke="#444" stroke-width="1"/>
<circle cx="222" cy="494.65999999999997" r="8.58" fill="#222" stroke="none"/>
<text x="222" y="498.65999999999997" font-family="sans-serif" font-size="13" font-weight="bold" text-anchor="middle" fill="#fff">9</text>
<text x="222" y="573.16" font-family="sans-serif" font-size="14" font-weight="normal" text-anchor="middle" fill="#222"> </text>
<line x1="247.124" y1="489.15999999999997" x2="284.876" y2="489.15999999999997" stroke="#444" stroke-width="1"/>
<line x1="247.124" y1="500.15999999999997" x2="284.876" y2="500.15999999999997" stroke="#444" stroke-width="1"/>
<circle cx="266" cy="489.15999999999997" r="8.58" fill="#3949ab" stroke="none"/>
<text x="266" y="493.15999999999997" font-family="sans-serif" font-size="13" font-weight="bold" text-anchor="middle" fill="#fff">13</text>
<text x="266" y="573.16" font-family="sans-serif" font-size="14" font-weight="normal" text-anchor="middle" fill="#222"> </text>
<circle cx="310" cy="516.66" r="8.58" fill="#00acc1" stroke="none"/>
<text x="310" y="520.66" font-family="sans-serif" font-size="13" font-weight="bold" text-anchor="middle" fill="#fff">10</text>
<text x="310" y="573.16" font-family="sans-serif" font-size="14" font-weight="normal" text-anchor="middle" fill="#222"> </text>
<line x1="335.124" y1="500.15999999999997" x2="372.876" y2="500.15999999999997" stroke="#444" stroke-width="1"/>
<circle cx="354" cy="500.15999999999997" r="8.58" fill="#42a5f5" stroke="none"/>
<text x="354" y="504.15999999999997" font-family="sans-serif" font-size="13" font-weight="bold" text-anchor="middle" fill="#fff">12</text>
<text x="354" y="573.16" font-family="sans-serif" font-size="14" font-weight="normal" text-anchor="middle" fill="#222"> </text>
<circle cx="398" cy="511.15999999999997" r="8.58" fill="#81d4fa" stroke="none"/>
<text x="398" y="515.16" font-family="sans-serif" font-size="13" font-weight="bold" text-anchor="middle" fill="#fff">11</text>
<text x="398" y="573.16" font-family="sans-serif" font-size="14" font-weight="normal" text-anchor="middle" fill="#222"> </text>
<circle cx="442" cy="527.66" r="8.58" fill="#2e7d32" stroke="none"/>
<text x="442" y="531.66" font-family="sans-serif" font-size="13" font-weight="bold" text-anchor="middle" fill="#fff">9</text>
<line x1="50" y1="619.16" x2="574" y2="619.16" stroke="#444" stroke-width="1"/>
<line x1="50" y1="630.16" x2="574" y2="630.16" stroke="#444" stroke-width="1"/>
<line x1="50" y1="641.16" x2="574" y2="641.16" stroke="#444" stroke-width="1"/>
<line x1="50" y1="652.16" x2="574" y2="652.16" stroke="#444" stroke-width="1"/>
<line x1="50" y1="663.16" x2="574" y2="663.16" stroke="#444" stroke-width="1"/>
<line x1="50" y1="619.16" x2="50" y2="663.16" stroke="#444" stroke-width="1"/>
<line x1="574" y1="619.16" x2="574" y2="663.16" stroke="#444" stroke-width="1"/>
<text x="62" y="660.41" font-size="55" font-family="FreeSerif, DejaVu Serif, Times New Roman, serif" text-anchor="middle" fill="#222">&#x1D11E;</text>
<line x1="71.124" y1="674.16" x2="108.876" y2="674.16" stroke="#444" stroke-width="1"/>
<line x1="71.124" y1="685.16" x2="108.876" y2="685.16" stroke="#444" stroke-width="1"/>
<circle cx="90" cy="685.16" r="8.58" fill="#d81b60" stroke="none"/>
<text x="90" y="689.16" font-family="sans-serif" font-size="13" font-weight="bold" text-anchor="middle" fill="#fff">4</text>
<text x="90" y="711.74" font-family="sans-serif" font-size="14" font-weight="normal" text-anchor="middle" fill="#222"> </text>
<circle cx="134" cy="663.16" r="8.58" fill="#f57c00" stroke="none"/>
<text x="134" y="667.16" font-family="sans-serif" font-size="13" font-weight="bold" text-anchor="middle" fill="#fff">6</text>
<text x="134" y="711.74" font-family="sans-serif" font-size="14" font-weight="normal" text-anchor="middle" fill="#222"> </text>
<circle cx="178" cy="635.66" r="8.58" fill="#2e7d32" stroke="none"/>
<text x="178" y="639.66" font-family="sans-serif" font-size="13" font-weight="bold" text-anchor="middle" fill="#fff">9</text>
<text x="178" y="711.74" font-family="sans-serif" font-size="14" font-weight="normal" text-anchor="middle" fill="#222"> </text>
<circle cx="222" cy="624.66" r="8.58" fill="#00acc1" stroke="none"/>
<text x="222" y="628.66" font-family="sans-serif" font-size="13" font-weight="bold" text-anchor="middle" fill="#fff">10</text>
<text x="222" y="711.74" font-family="sans-serif" font-size="14" font-weight="normal" text-anchor="middle" fill="#222"> </text>
<text x="266" y="641.16" font-family="sans-serif" font-size="30" font-weight="normal" text-anchor="middle" fill="#888">·</text>
<text x="266" y="711.74" font-family="sans-serif" font-size="14" font-weight="normal" text-anchor="middle" fill="#222"> </text>
<circle cx="310" cy="663.16" r="8.58" fill="#f57c00" stroke="none"/>
<text x="310" y="667.16" font-family="sans-serif" font-size="13" font-weight="bold" text-anchor="middle" fill="#fff">6</text>
<text x="310" y="711.74" font-family="sans-serif" font-size="14" font-weight="normal" text-anchor="middle" fill="#222"> </text>
<circle cx="354" cy="641.16" r="8.58" fill="#222" stroke="none"/>
<text x="354" y="645.16" font-family="sans-serif" font-size="13" font-weight="bold" text-anchor="middle" fill="#fff">6</text>
<text x="354" y="711.74" font-family="sans-serif" font-size="14" font-weight="normal" text-anchor="middle" fill="#222"> </text>
<circle cx="398" cy="624.66" r="8.58" fill="#00acc1" stroke="none"/>
<text x="398" y="628.66" font-family="sans-serif" font-size="13" font-weight="bold" text-anchor="middle" fill="#fff">10</text>
<text x="398" y="711.74" font-family="sans-serif" font-size="14" font-weight="normal" text-anchor="middle" fill="#222"> </text>
<circle cx="442" cy="619.16" r="8.58" fill="#81d4fa" stroke="none"/>
<text x="442" y="623.16" font-family="sans-serif" font-size="13" font-weight="bold" text-anchor="middle" fill="#fff">11</text>
<line x1="50" y1="757.74" x2="574" y2="757.74" stroke="#444" stroke-width="1"/>
<line x1="50" y1="768.74" x2="574" y2="768.74" stroke="#444" stroke-width="1"/>
<line x1="50" y1="779.74" x2="574" y2="779.74" stroke="#444" stroke-width="1"/>
<line x1="50" y1="790.74" x2="574" y2="790.74" stroke="#444" stroke-width="1"/>
<line x1="50" y1="801.74" x2="574" y2="801.74" stroke="#444" stroke-width="1"/>
<line x1="50" y1="757.74" x2="50" y2="801.74" stroke="#444" stroke-width="1"/>
<line x1="574" y1="757.74" x2="574" y2="801.74" stroke="#444" stroke-width="1"/>
<text x="62" y="798.99" font-size="55" font-family="FreeSerif, DejaVu Serif, Times New Roman, serif" text-anchor="middle" fill="#222">&#x1D11E;</text>
<line x1="71.124" y1="812.74" x2="108.876" y2="812.74" stroke="#444" stroke-width="1"/>
<line x1="71.124" y1="823.74" x2="108.876" y2="823.74" stroke="#444" stroke-width="1"/>
<circle cx="90" cy="823.74" r="8.58" fill="#d81b60" stroke="none"/>
<text x="90" y="827.74" font-family="sans-serif" font-size="13" font-weight="bold" text-anchor="middle" fill="#fff">4</text>
<text x="90" y="850.32" font-family="sans-serif" font-size="14" font-weight="normal" text-anchor="middle" fill="#222"> </text>
<circle cx="134" cy="801.74" r="8.58" fill="#f57c00" stroke="none"/>
<text x="134" y="805.74" font-family="sans-serif" font-size="13" font-weight="bold" text-anchor="middle" fill="#fff">6</text>
<text x="134" y="850.32" font-family="sans-serif" font-size="14" font-weight="normal" text-anchor="middle" fill="#222"> </text>
<circle cx="178" cy="774.24" r="8.58" fill="#2e7d32" stroke="none"/>
<text x="178" y="778.24" font-family="sans-serif" font-size="13" font-weight="bold" text-anchor="middle" fill="#fff">9</text>
<text x="178" y="850.32" font-family="sans-serif" font-size="14" font-weight="normal" text-anchor="middle" fill="#222"> </text>
<circle cx="222" cy="763.24" r="8.58" fill="#00acc1" stroke="none"/>
<text x="222" y="767.24" font-family="sans-serif" font-size="13" font-weight="bold" text-anchor="middle" fill="#fff">10</text>
<text x="222" y="850.32" font-family="sans-serif" font-size="14" font-weight="normal" text-anchor="middle" fill="#222"> </text>
<text x="266" y="779.74" font-family="sans-serif" font-size="30" font-weight="normal" text-anchor="middle" fill="#888">·</text>
<text x="266" y="850.32" font-family="sans-serif" font-size="14" font-weight="normal" text-anchor="middle" fill="#222"> </text>
<circle cx="310" cy="801.74" r="8.58" fill="#f57c00" stroke="none"/>
<text x="310" y="805.74" font-family="sans-serif" font-size="13" font-weight="bold" text-anchor="middle" fill="#fff">6</text>
<text x="310" y="850.32" font-family="sans-serif" font-size="14" font-weight="normal" text-anchor="middle" fill="#222"> </text>
<circle cx="354" cy="779.74" r="8.58" fill="#222" stroke="none"/>
<text x="354" y="783.74" font-family="sans-serif" font-size="13" font-weight="bold" text-anchor="middle" fill="#fff">6</text>
<text x="354" y="850.32" font-family="sans-serif" font-size="14" font-weight="normal" text-anchor="middle" fill="#222"> </text>
<circle cx="398" cy="763.24" r="8.58" fill="#00acc1" stroke="none"/>
<text x="398" y="767.24" font-family="sans-serif" font-size="13" font-weight="bold" text-anchor="middle" fill="#fff">10</text>
<text x="398" y="850.32" font-family="sans-serif" font-size="14" font-weight="normal" text-anchor="middle" fill="#222"> </text>
<circle cx="442" cy="774.24" r="8.58" fill="#2e7d32" stroke="none"/>
<text x="442" y="778.24" font-family="sans-serif" font-size="13" font-weight="bold" text-anchor="middle" fill="#fff">9</text>
<text x="442" y="850.32" font-family="sans-serif" font-size="14" font-weight="normal" text-anchor="middle" fill="#222"> </text>
<circle cx="486" cy="763.24" r="8.58" fill="#00acc1" stroke="none"/>
<text x="486" y="767.24" font-family="sans-serif" font-size="13" font-weight="bold" text-anchor="middle" fill="#fff">10</text>
<text x="486" y="850.32" font-family="sans-serif" font-size="14" font-weight="normal" text-anchor="middle" fill="#222"> </text>
<circle cx="530" cy="757.74" r="8.58" fill="#81d4fa" stroke="none"/>
<text x="530" y="761.74" font-family="sans-serif" font-size="13" font-weight="bold" text-anchor="middle" fill="#fff">11</text>
</svg>