<svg xmlns="http://www.w3.org/2000/svg" width="818" height="449.66">
<rect width="100%" height="100%" fill="white"/>
<text x="409.0" y="40" font-family="serif" font-size="28" font-weight="normal" text-anchor="middle" fill="#222">Hedwig&#x27;s Theme</text>
<text x="409.0" y="76" font-family="sans-serif" font-size="14" font-weight="normal" text-anchor="middle" fill="#555">Harry Potter</text>
<line x1="50" y1="146" x2="794" y2="146" stroke="#444" stroke-width="1"/>
<line x1="50" y1="157" x2="794" y2="157" stroke="#444" stroke-width="1"/>
<line x1="50" y1="168" x2="794" y2="168" stroke="#444" stroke-width="1"/>
<line x1="50" y1="179" x2="794" y2="179" stroke="#444" stroke-width="1"/>
<line x1="50" y1="190" x2="794" y2="190" stroke="#444" stroke-width="1"/>
<line x1="50" y1="146" x2="50" y2="190" stroke="#444" stroke-width="1"/>
<line x1="794" y1="146" x2="794" y2="190" stroke="#444" stroke-width="1"/>
<text x="62" y="187.25" font-size="55" font-family="FreeSerif, DejaVu Serif, Times New Roman, serif" text-anchor="middle" fill="#222">&#x1D11E;</text>
<line x1="71.124" y1="201.0" x2="108.876" y2="201.0" stroke="#444" stroke-width="1"/>
<line x1="71.124" y1="212.0" x2="108.876" y2="212.0" stroke="#444" stroke-width="1"/>
<line x1="71.124" y1="223.0" x2="108.876" y2="223.0" stroke="#444" stroke-width="1"/>
<circle cx="90" cy="217.5" r="8.58" fill="#e8a3b5" stroke="none"/>
<text x="90" y="221.5" font-family="sans-serif" font-size="13" font-weight="bold" text-anchor="middle" fill="#fff">3</text>
<text x="90" y="244.08" font-family="sans-serif" font-size="14" font-weight="normal" text-anchor="middle" fill="#222"> </text>
<circle cx="134" cy="190.0" r="8.58" fill="#f57c00" stroke="none"/>
<text x="134" y="194.0" font-family="sans-serif" font-size="13" font-weight="bold" text-anchor="middle" fill="#fff">6</text>
<text x="134" y="244.08" font-family="sans-serif" font-size="14" font-weight="normal" text-anchor="middle" fill="#222"> </text>
<circle cx="178" cy="173.5" r="8.58" fill="#43a047" stroke="none"/>
<text x="178" y="177.5" font-family="sans-serif" font-size="13" font-weight="bold" text-anchor="middle" fill="#fff">8</text>
<text x="178" y="244.08" font-family="sans-serif" font-size="14" font-weight="normal" text-anchor="middle" fill="#222"> </text>
<circle cx="222" cy="179.0" r="8.58" fill="#222" stroke="none"/>
<text x="222" y="183.0" font-family="sans-serif" font-size="13" font-weight="bold" text-anchor="middle" fill="#fff">5</text>
<text x="222" y="244.08" font-family="sans-serif" font-size="14" font-weight="normal" text-anchor="middle" fill="#222"> </text>
<circle cx="266" cy="190.0" r="8.58" fill="#f57c00" stroke="none"/>
<text x="266" y="194.0" font-family="sans-serif" font-size="13" font-weight="bold" text-anchor="middle" fill="#fff">6</text>
<text x="266" y="244.08" font-family="sans-serif" font-size="14" font-weight="normal" text-anchor="middle" fill="#222"> </text>
<circle cx="310" cy="151.5" r="8.58" fill="#00acc1" stroke="none"/>
<text x="310" y="155.5" font-family="sans-serif" font-size="13" font-weight="bold" text-anchor="middle" fill="#fff">10</text>
<text x="310" y="244.08" font-family="sans-serif" font-size="14" font-weight="normal" text-anchor="middle" fill="#222"> </text>
<circle cx="354" cy="162.5" r="8.58" fill="#2e7d32" stroke="none"/>
<text x="354" y="166.5" font-family="sans-serif" font-size="13" font-weight="bold" text-anchor="middle" fill="#fff">9</text>
<text x="354" y="244.08" font-family="sans-serif" font-size="14" font-weight="normal" text-anchor="middle" fill="#222"> </text>
<circle cx="398" cy="179.0" r="8.58" fill="#222" stroke="none"/>
<text x="398" y="183.0" font-family="sans-serif" font-size="13" font-weight="bold" text-anchor="middle" fill="#fff">5</text>
<text x="398" y="244.08" font-family="sans-serif" font-size="14" font-weight="normal" text-anchor="middle" fill="#222"> </text>
<circle cx="442" cy="190.0" r="8.58" fill="#f57c00" stroke="none"/>
<text x="442" y="194.0" font-family="sans-serif" font-size="13" font-weight="bold" text-anchor="middle" fill="#fff">6</text>
<text x="442" y="244.08" font-family="sans-serif" font-size="14" font-weight="normal" text-anchor="middle" fill="#222"> </text>
<circle cx="486" cy="173.5" r="8.58" fill="#43a047" stroke="none"/>
<text x="486" y="177.5" font-family="sans-serif" font-size="13" font-weight="bold" text-anchor="middle" fill="#fff">8</text>
<text x="486" y="244.08" font-family="sans-serif" font-size="14" font-weight="normal" text-anchor="middle" fill="#222"> </text>
<circle cx="530" cy="179.0" r="8.58" fill="#222" stroke="none"/>
<text x="530" y="183.0" font-family="sans-serif" font-size="13" font-weight="bold" text-anchor="middle" fill="#fff">5</text>
<text x="530" y="244.08" font-family="sans-serif" font-size="14" font-weight="normal" text-anchor="middle" fill="#222"> </text>
<line x1="555.124" y1="201.0" x2="592.876" y2="201.0" stroke="#444" stroke-width="1"/>
<circle cx="574" cy="195.5" r="8.58" fill="#222" stroke="none"/>
<text x="574" y="199.5" font-family="sans-serif" font-size="13" font-weight="bold" text-anchor="middle" fill="#fff">4</text>
<text x="574" y="244.08" font-family="sans-serif" font-size="14" font-weight="normal" text-anchor="middle" fill="#222"> </text>
<circle cx="618" cy="184.5" r="8.58" fill="#fbc02d" stroke="none"/>
<text x="618" y="188.5" font-family="sans-serif" font-size="13" font-weight="bold" text-anchor="middle" fill="#fff">7</text>
<text x="618" y="244.08" font-family="sans-serif" font-size="14" font-weight="normal" text-anchor="middle" fill="#222"> </text>
<line x1="643.124" y1="201.0" x2="680.876" y2="201.0" stroke="#444" stroke-width="1"/>
<line x1="643.124" y1="212.0" x2="680.876" y2="212.0" stroke="#444" stroke-width="1"/>
<line x1="643.124" y1="223.0" x2="680.876" y2="223.0" stroke="#444" stroke-width="1"/>
<circle cx="662" cy="217.5" r="8.58" fill="#e8a3b5" stroke="none"/>
<text x="662" y="221.5" font-family="sans-serif" font-size="13" font-weight="bold" text-anchor="middle" fill="#fff">3</text>
<line x1="50" y1="290.08000000000004" x2="794" y2="290.08000000000004" stroke="#444" stroke-width="1"/>
<line x1="50" y1="301.08000000000004" x2="794" y2="301.08000000000004" stroke="#444" stroke-width="1"/>
<line x1="50" y1="312.08000000000004" x2="794" y2="312.08000000000004" stroke="#444" stroke-width="1"/>
<line x1="50" y1="323.08000000000004" x2="794" y2="323.08000000000004" stroke="#444" stroke-width="1"/>
<line x1="50" y1="334.08000000000004" x2="794" y2="334.08000000000004" stroke="#444" stroke-width="1"/>
<line x1="50" y1="290.08000000000004" x2="50" y2="334.08000000000004" stroke="#444" stroke-width="1"/>
<line x1="794" y1="290.08000000000004" x2="794" y2="334.08000000000004" stroke="#444" stroke-width="1"/>
<text x="62" y="331.33000000000004" font-size="55" font-family="FreeSerif, DejaVu Serif, Times New Roman, serif" text-anchor="middle" fill="#222">&#x1D11E;</text>
<line x1="71.124" y1="345.08000000000004" x2="108.876" y2="345.08000000000004" stroke="#444" stroke-width="1"/>
<line x1="71.124" y1="356.08000000000004" x2="108.876" y2="356.08000000000004" stroke="#444" stroke-width="1"/>
<line x1="71.124" y1="367.08000000000004" x2="108.876" y2="367.08000000000004" stroke="#444" stroke-width="1"/>
<circle cx="90" cy="361.58000000000004" r="8.58" fill="#e8a3b5" stroke="none"/>
<text x="90" y="365.58000000000004" font-family="sans-serif" font-size="13" font-weight="bold" text-anchor="middle" fill="#fff">3</text>
<text x="90" y="393.66" font-family="sans-serif" font-size="14" font-weight="normal" text-anchor="middle" fill="#222"> </text>
<circle cx="134" cy="334.08000000000004" r="8.58" fill="#f57c00" stroke="none"/>
<text x="134" y="338.08000000000004" font-family="sans-serif" font-size="13" font-weight="bold" text-anchor="middle" fill="#fff">6</text>
<text x="134" y="393.66" font-family="sans-serif" font-size="14" font-weight="normal" text-anchor="middle" fill="#222"> </text>
<circle cx="178" cy="317.58000000000004" r="8.58" fill="#43a047" stroke="none"/>
<text x="178" y="321.58000000000004" font-family="sans-serif" font-size="13" font-weight="bold" text-anchor="middle" fill="#fff">8</text>
<text x="178" y="393.66" font-family="sans-serif" font-size="14" font-weight="normal" text-anchor="middle" fill="#222"> </text>
<circle cx="222" cy="323.08000000000004" r="8.58" fill="#222" stroke="none"/>
<text x="222" y="327.08000000000004" font-family="sans-serif" font-size="13" font-weight="bold" text-anchor="middle" fill="#fff">5</text>
<text x="222" y="393.66" font-family="sans-serif" font-size="14" font-weight="normal" text-anchor="middle" fill="#222"> </text>
<circle cx="266" cy="334.08000000000004" r="8.58" fill="#f57c00" stroke="none"/>
<text x="266" y="338.08000000000004" font-family="sans-serif" font-size="13" font-weight="bold" text-anchor="middle" fill="#fff">6</text>
<text x="266" y="393.66" font-family="sans-serif" font-size="14" font-weight="normal" text-anchor="middle" fill="#222"> </text>
<circle cx="310" cy="295.58000000000004" r="8.58" fill="#00acc1" stroke="none"/>
<text x="310" y="299.58000000000004" font-family="sans-serif" font-size="13" font-weight="bold" text-anchor="middle" fill="#fff">10</text>
<text x="310" y="393.66" font-family="sans-serif" font-size="14" font-weight="normal" text-anchor="middle" fill="#222"> </text>
<line x1="335.124" y1="279.08000000000004" x2="372.876" y2="279.08000000000004" stroke="#444" stroke-width="1"/>
<circle cx="354" cy="279.08000000000004" r="8.58" fill="#42a5f5" stroke="none"/>
<text x="354" y="283.08000000000004" font-family="sans-serif" font-size="13" font-weight="bold" text-anchor="middle" fill="#fff">12</text>
<text x="354" y="393.66" font-family="sans-serif" font-size="14" font-weight="normal" text-anchor="middle" fill="#222"> </text>
<circle cx="398" cy="284.58000000000004" r="8.58" fill="#222" stroke="none"/>
<text x="398" y="288.58000000000004" font-family="sans-serif" font-size="13" font-weight="bold" text-anchor="middle" fill="#fff">8</text>
<text x="398" y="393.66" font-family="sans-serif" font-size="14" font-weight="normal" text-anchor="middle" fill="#222"> </text>
<circle cx="442" cy="290.08000000000004" r="8.58" fill="#81d4fa" stroke="none"/>
<text x="442" y="294.08000000000004" font-family="sans-serif" font-size="13" font-weight="bold" text-anchor="middle" fill="#fff">11</text>
<text x="442" y="393.66" font-family="sans-serif" font-size="14" font-weight="normal" text-anchor="middle" fill="#222"> </text>
<text x="486" y="312.08000000000004" font-family="sans-serif" font-size="30" font-weight="normal" text-anchor="middle" fill="#888">·</text>
<text x="486" y="393.66" font-family="sans-serif" font-size="14" font-weight="normal" text-anchor="middle" fill="#222"> </text>
<circle cx="530" cy="290.08000000000004" r="8.58" fill="#81d4fa" stroke="none"/>
<text x="530" y="294.08000000000004" font-family="sans-serif" font-size="13" font-weight="bold" text-anchor="middle" fill="#fff">11</text>
<text x="530" y="393.66" font-family="sans-serif" font-size="14" font-weight="normal" text-anchor="middle" fill="#222"> </text>
<circle cx="574" cy="295.58000000000004" r="8.58" fill="#00acc1" stroke="none"/>
<text x="574" y="299.58000000000004" font-family="sans-serif" font-size="13" font-weight="bold" text-anchor="middle" fill="#fff">10</text>
<text x="574" y="393.66" font-family="sans-serif" font-size="14" font-weight="normal" text-anchor="middle" fill="#222"> </text>
<circle cx="618" cy="301.08000000000004" r="8.58" fill="#222" stroke="none"/>
<text x="618" y="305.08000000000004" font-family="sans-serif" font-size="13" font-weight="bold" text-anchor="middle" fill="#fff">7</text>
<text x="618" y="393.66" font-family="sans-serif" font-size="14" font-weight="normal" text-anchor="middle" fill="#222"> </text>
<line x1="643.124" y1="345.08000000000004" x2="680.876" y2="345.08000000000004" stroke="#444" stroke-width="1"/>
<line x1="643.124" y1="356.08000000000004" x2="680.876" y2="356.08000000000004" stroke="#444" stroke-width="1"/>
<line x1="643.124" y1="367.08000000000004" x2="680.876" y2="367.08000000000004" stroke="#444" stroke-width="1"/>
<circle cx="662" cy="367.08000000000004" r="8.58" fill="#222" stroke="none"/>
<text x="662" y="371.08000000000004" font-family="sans-serif" font-size="13" font-weight="bold" text-anchor="middle" fill="#fff">2</text>
<text x="662" y="393.66" font-family="sans-serif" font-size="14" font-weight="normal" text-anchor="middle" fill="#222"> </text>
<circle cx="706" cy="317.58000000000004" r="8.58" fill="#43a047" stroke="none"/>
<text x="706" y="321.58000000000004" font-family="sans-serif" font-size="13" font-weight="bold" text-anchor="middle" fill="#fff">8</text>
<text x="706" y="393.66" font-family="sans-serif" font-size="14" font-weight="normal" text-anchor="middle" fill="#222"> </text>
<circle cx="750" cy="334.08000000000004" r="8.58" fill="#f57c00" stroke="none"/>
<text x="750" y="338.08000000000004" font-family="sans-serif" font-size="13" font-weight="bold" text-anchor="middle" fill="#fff">6</text>
</svg>