<svg xmlns="http://www.w3.org/2000/svg" width="1478" height="305.58000000000004">
<rect width="100%" height="100%" fill="white"/>
<text x="739.0" y="40" font-family="serif" font-size="28" font-weight="normal" text-anchor="middle" fill="#222">Hedwig&#x27;s Theme</text>
<text x="739.0" y="76" font-family="sans-serif" font-size="14" font-weight="normal" text-anchor="middle" fill="#555">Harry Potter</text>
<line x1="50" y1="146" x2="1454" y2="146" stroke="#444" stroke-width="1"/>
<line x1="50" y1="157" x2="1454" y2="157" stroke="#444" stroke-width="1"/>
<line x1="50" y1="168" x2="1454" y2="168" stroke="#444" stroke-width="1"/>
<line x1="50" y1="179" x2="1454" y2="179" stroke="#444" stroke-width="1"/>
<line x1="50" y1="190" x2="1454" y2="190" stroke="#444" stroke-width="1"/>
<line x1="50" y1="146" x2="50" y2="190" stroke="#444" stroke-width="1"/>
<line x1="1454" y1="146" x2="1454" y2="190" stroke="#444" stroke-width="1"/>
<text x="62" y="187.25" font-size="55" font-family="FreeSerif, DejaVu Serif, Times New Roman, serif" text-anchor="middle" fill="#222">&#x1D11E;</text>
<line x1="71.124" y1="201.0" x2="108.876" y2="201.0" stroke="#444" stroke-width="1"/>
<line x1="71.124" y1="212.0" x2="108.876" y2="212.0" stroke="#444" stroke-width="1"/>
<line x1="71.124" y1="223.0" x2="108.876" y2="223.0" stroke="#444" stroke-width="1"/>
<circle cx="90" cy="217.5" r="8.58" fill="#e8a3b5" stroke="none"/>
<text x="90" y="221.5" font-family="sans-serif" font-size="13" font-weight="bold" text-anchor="middle" fill="#fff">3</text>
<text x="90" y="249.58" font-family="sans-serif" font-size="14" font-weight="normal" text-anchor="middle" fill="#222"> </text>
<circle cx="134" cy="190.0" r="8.58" fill="#f57c00" stroke="none"/>
<text x="134" y="194.0" font-family="sans-serif" font-size="13" font-weight="bold" text-anchor="middle" fill="#fff">6</text>
<text x="134" y="249.58" font-family="sans-serif" font-size="14" font-weight="normal" text-anchor="middle" fill="#222"> </text>
<circle cx="178" cy="173.5" r="8.58" fill="#43a047" stroke="none"/>
<text x="178" y="177.5" font-family="sans-serif" font-size="13" font-weight="bold" text-anchor="middle" fill="#fff">8</text>
<text x="178" y="249.58" font-family="sans-serif" font-size="14" font-weight="normal" text-anchor="middle" fill="#222"> </text>
<circle cx="222" cy="179.0" r="8.58" fill="#222" stroke="none"/>
<text x="222" y="183.0" font-family="sans-serif" font-size="13" font-weight="bold" text-anchor="middle" fill="#fff">5</text>
<text x="222" y="249.58" font-family="sans-serif" font-size="14" font-weight="normal" text-anchor="middle" fill="#222"> </text>
<circle cx="266" cy="190.0" r="8.58" fill="#f57c00" stroke="none"/>
<text x="266" y="194.0" font-family="sans-serif" font-size="13" font-weight="bold" text-anchor="middle" fill="#fff">6</text>
<text x="266" y="249.58" font-family="sans-serif" font-size="14" font-weight="normal" text-anchor="middle" fill="#222"> </text>
<circle cx="310" cy="151.5" r="8.58" fill="#00acc1" stroke="none"/>
<text x="310" y="155.5" font-family="sans-serif" font-size="13" font-weight="bold" text-anchor="middle" fill="#fff">10</text>
<text x="310" y="249.58" font-family="sans-serif" font-size="14" font-weight="normal" text-anchor="middle" fill="#222"> </text>
<circle cx="354" cy="162.5" r="8.58" fill="#2e7d32" stroke="none"/>
<text x="354" y="166.5" font-family="sans-serif" font-size="13" font-weight="bold" text-anchor="middle" fill="#fff">9</text>
<text x="354" y="249.58" font-family="sans-serif" font-size="14" font-weight="normal" text-anchor="middle" fill="#222"> </text>
<circle cx="398" cy="179.0" r="8.58" fill="#222" stroke="none"/>
<text x="398" y="183.0" font-family="sans-serif" font-size="13" font-weight="bold" text-anchor="middle" fill="#fff">5</text>
<text x="398" y="249.58" font-family="sans-serif" font-size="14" font-weight="normal" text-anchor="middle" fill="#222"> </text>
<circle cx="442" cy="190.0" r="8.58" fill="#f57c00" stroke="none"/>
<text x="442" y="194.0" font-family="sans-serif" font-size="13" font-weight="bold" text-anchor="middle" fill="#fff">6</text>
<text x="442" y="249.58" font-family="sans-serif" font-size="14" font-weight="normal" text-anchor="middle" fill="#222"> </text>
<circle cx="486" cy="173.5" r="8.58" fill="#43a047" stroke="none"/>
<text x="486" y="177.5" font-family="sans-serif" font-size="13" font-weight="bold" text-anchor="middle" fill="#fff">8</text>
<text x="486" y="249.58" font-family="sans-serif" font-size="14" font-weight="normal" text-anchor="middle" fill="#222"> </text>
<circle cx="530" cy="179.0" r="8.58" fill="#222" stroke="none"/>
<text x="530" y="183.0" font-family="sans-serif" font-size="13" font-weight="bold" text-anchor="middle" fill="#fff">5</text>
<text x="530" y="249.58" font-family="sans-serif" font-size="14" font-weight="normal" text-anchor="middle" fill="#222"> </text>
<line x1="555.124" y1="201.0" x2="592.876" y2="201.0" stroke="#444" stroke-width="1"/>
<circle cx="574" cy="195.5" r="8.58" fill="#222" stroke="none"/>
<text x="574" y="199.5" font-family="sans-serif" font-size="13" font-weight="bold" text-anchor="middle" fill="#fff">4</text>
<text x="574" y="249.58" font-family="sans-serif" font-size="14" font-weight="normal" text-anchor="middle" fill="#222"> </text>
<circle cx="618" cy="184.5" r="8.58" fill="#fbc02d" stroke="none"/>
<text x="618" y="188.5" font-family="sans-serif" font-size="13" font-weight="bold" text-anchor="middle" fill="#fff">7</text>
<text x="618" y="249.58" font-family="sans-serif" font-size="14" font-weight="normal" text-anchor="middle" fill="#222"> </text>
<line x1="643.124" y1="201.0" x2="680.876" y2="201.0" stroke="#444" stroke-width="1"/>
<line x1="643.124" y1="212.0" x2="680.876" y2="212.0" stroke="#444" stroke-width="1"/>
<line x1="643.124" y1="223.0" x2="680.876" y2="223.0" stroke="#444" stroke-width="1"/>
<circle cx="662" cy="217.5" r="8.58" fill="#e8a3b5" stroke="none"/>
<text x="662" y="221.5" font-family="sans-serif" font-size="13" font-weight="bold" text-anchor="middle" fill="#fff">3</text>
<text x="662" y="249.58" font-family="sans-serif" font-size="14" font-weight="normal" text-anchor="middle" fill="#222"> </text>
<text x="706" y="168" font-family="sans-serif" font-size="30" font-weight="normal" text-anchor="middle" fill="#888">·</text>
<text x="706" y="249.58" font-family="sans-serif" font-size="14" font-weight="normal" text-anchor="middle" fill="#222"> </text>
<line x1="731.124" y1="201.0" x2="768.876" y2="201.0" stroke="#444" stroke-width="1"/>
<line x1="731.124" y1="212.0" x2="768.876" y2="212.0" stroke="#444" stroke-width="1"/>
<line x1="731.124" y1="223.0" x2="768.876" y2="223.0" stroke="#444" stroke-width="1"/>
<circle cx="750" cy="217.5" r="8.58" fill="#e8a3b5" stroke="none"/>
<text x="750" y="221.5" font-family="sans-serif" font-size="13" font-weight="bold" text-anchor="middle" fill="#fff">3</text>
<text x="750" y="249.58" font-family="sans-serif" font-size="14" font-weight="normal" text-anchor="middle" fill="#222"> </text>
<circle cx="794" cy="190.0" r="8.58" fill="#f57c00" stroke="none"/>
<text x="794" y="194.0" font-family="sans-serif" font-size="13" font-weight="bold" text-anchor="middle" fill="#fff">6</text>
<text x="794" y="249.58" font-family="sans-serif" font-size="14" font-weight="normal" text-anchor="middle" fill="#222"> </text>
<circle cx="838" cy="173.5" r="8.58" fill="#43a047" stroke="none"/>
<text x="838" y="177.5" font-family="sans-serif" font-size="13" font-weight="bold" text-anchor="middle" fill="#fff">8</text>
<text x="838" y="249.58" font-family="sans-serif" font-size="14" font-weight="normal" text-anchor="middle" fill="#222"> </text>
<circle cx="882" cy="179.0" r="8.58" fill="#222" stroke="none"/>
<text x="882" y="183.0" font-family="sans-serif" font-size="13" font-weight="bold" text-anchor="middle" fill="#fff">5</text>
<text x="882" y="249.58" font-family="sans-serif" font-size="14" font-weight="normal" text-anchor="middle" fill="#222"> </text>
<circle cx="926" cy="190.0" r="8.58" fill="#f57c00" stroke="none"/>
<text x="926" y="194.0" font-family="sans-serif" font-size="13" font-weight="bold" text-anchor="middle" fill="#fff">6</text>
<text x="926" y="249.58" font-family="sans-serif" font-size="14" font-weight="normal" text-anchor="middle" fill="#222"> </text>
<circle cx="970" cy="151.5" r="8.58" fill="#00acc1" stroke="none"/>
<text x="970" y="155.5" font-family="sans-serif" font-size="13" font-weight="bold" text-anchor="middle" fill="#fff">10</text>
<text x="970" y="249.58" font-family="sans-serif" font-size="14" font-weight="normal" text-anchor="middle" fill="#222"> </text>
<line x1="995.124" y1="135.0" x2="1032.876" y2="135.0" stroke="#444" stroke-width="1"/>
<circle cx="1014" cy="135.0" r="8.58" fill="#42a5f5" stroke="none"/>
<text x="1014" y="139.0" font-family="sans-serif" font-size="13" font-weight="bold" text-anchor="middle" fill="#fff">12</text>
<text x="1014" y="249.58" font-family="sans-serif" font-size="14" font-weight="normal" text-anchor="middle" fill="#222"> </text>
<circle cx="1058" cy="140.5" r="8.58" fill="#222" stroke="none"/>
<text x="1058" y="144.5" font-family="sans-serif" font-size="13" font-weight="bold" text-anchor="middle" fill="#fff">8</text>
<text x="1058" y="249.58" font-family="sans-serif" font-size="14" font-weight="normal" text-anchor="middle" fill="#222"> </text>
<circle cx="1102" cy="146.0" r="8.58" fill="#81d4fa" stroke="none"/>
<text x="1102" y="150.0" font-family="sans-serif" font-size="13" font-weight="bold" text-anchor="middle" fill="#fff">11</text>
<text x="1102" y="249.58" font-family="sans-serif" font-size="14" font-weight="normal" text-anchor="middle" fill="#222"> </text>
<text x="1146" y="168" font-family="sans-serif" font-size="30" font-weight="normal" text-anchor="middle" fill="#888">·</text>
<text x="1146" y="249.58" font-family="sans-serif" font-size="14" font-weight="normal" text-anchor="middle" fill="#222"> </text>
<circle cx="1190" cy="146.0" r="8.58" fill="#81d4fa" stroke="none"/>
<text x="1190" y="150.0" font-family="sans-serif" font-size="13" font-weight="bold" text-anchor="middle" fill="#fff">11</text>
<text x="1190" y="249.58" font-family="sans-serif" font-size="14" font-weight="normal" text-anchor="middle" fill="#222"> </text>
<circle cx="1234" cy="151.5" r="8.58" fill="#00acc1" stroke="none"/>
<text x="1234" y="155.5" font-family="sans-serif" font-size="13" font-weight="bold" text-anchor="middle" fill="#fff">10</text>
<text x="1234" y="249.58" font-family="sans-serif" font-size="14" font-weight="normal" text-anchor="middle" fill="#222"> </text>
<circle cx="1278" cy="157.0" r="8.58" fill="#222" stroke="none"/>
<text x="1278" y="161.0" font-family="sans-serif" font-size="13" font-weight="bold" text-anchor="middle" fill="#fff">7</text>
<text x="1278" y="249.58" font-family="sans-serif" font-size="14" font-weight="normal" text-anchor="middle" fill="#222"> </text>
<line x1="1303.124" y1="201.0" x2="1340.876" y2="201.0" stroke="#444" stroke-width="1"/>
<line x1="1303.124" y1="212.0" x2="1340.876" y2="212.0" stroke="#444" stroke-width="1"/>
<line x1="1303.124" y1="223.0" x2="1340.876" y2="223.0" stroke="#444" stroke-width="1"/>
<circle cx="1322" cy="223.0" r="8.58" fill="#222" stroke="none"/>
<text x="1322" y="227.0" font-family="sans-serif" font-size="13" font-weight="bold" text-anchor="middle" fill="#fff">2</text>
<text x="1322" y="249.58" font-family="sans-serif" font-size="14" font-weight="normal" text-anchor="middle" fill="#222"> </text>
<circle cx="1366" cy="173.5" r="8.58" fill="#43a047" stroke="none"/>
<text x="1366" y="177.5" font-family="sans-serif" font-size="13" font-weight="bold" text-anchor="middle" fill="#fff">8</text>
<text x="1366" y="249.58" font-family="sans-serif" font-size="14" font-weight="normal" text-anchor="middle" fill="#222"> </text>
<circle cx="1410" cy="190.0" r="8.58" fill="#f57c00" stroke="none"/>
<text x="1410" y="194.0" font-family="sans-serif" font-size="13" font-weight="bold" text-anchor="middle" fill="#fff">6</text>
</svg>