<svg xmlns="http://www.w3.org/2000/svg" width="686" height="828.9000000000001">
<rect width="100%" height="100%" fill="white"/>
<text x="343.0" y="40" font-family="serif" font-size="28" font-weight="normal" text-anchor="middle" fill="#222">Old MacDonald had a farm</text>
<line x1="50" y1="126" x2="662" y2="126" stroke="#444" stroke-width="1"/>
<line x1="50" y1="137" x2="662" y2="137" stroke="#444" stroke-width="1"/>
<line x1="50" y1="148" x2="662" y2="148" stroke="#444" stroke-width="1"/>
<line x1="50" y1="159" x2="662" y2="159" stroke="#444" stroke-width="1"/>
<line x1="50" y1="170" x2="662" y2="170" stroke="#444" stroke-width="1"/>
<line x1="50" y1="126" x2="50" y2="170" stroke="#444" stroke-width="1"/>
<line x1="662" y1="126" x2="662" y2="170" stroke="#444" stroke-width="1"/>
<text x="62" y="167.25" font-size="55" font-family="FreeSerif, DejaVu Serif, Times New Roman, serif" text-anchor="middle" fill="#222">&#x1D11E;</text>
<circle cx="90" cy="164.5" r="8.58" fill="#fbc02d" stroke="none"/>
<text x="90" y="168.5" font-family="sans-serif" font-size="13" font-weight="bold" text-anchor="middle" fill="#fff">7</text>
<text x="90" y="218.58" font-family="sans-serif" font-size="14" font-weight="normal" text-anchor="middle" fill="#222">Old </text>
<circle cx="134" cy="164.5" r="8.58" fill="#fbc02d" stroke="none"/>
<text x="134" y="168.5" font-family="sans-serif" font-size="13" font-weight="bold" text-anchor="middle" fill="#fff">7</text>
<text x="134" y="218.58" font-family="sans-serif" font-size="14" font-weight="normal" text-anchor="middle" fill="#222">Mac- </text>
<circle cx="178" cy="164.5" r="8.58" fill="#fbc02d" stroke="none"/>
<text x="178" y="168.5" font-family="sans-serif" font-size="13" font-weight="bold" text-anchor="middle" fill="#fff">7</text>
<text x="178" y="218.58" font-family="sans-serif" font-size="14" font-weight="normal" text-anchor="middle" fill="#222">Do- </text>
<line x1="203.124" y1="181.0" x2="240.876" y2="181.0" stroke="#444" stroke-width="1"/>
<line x1="203.124" y1="192.0" x2="240.876" y2="192.0" stroke="#444" stroke-width="1"/>
<circle cx="222" cy="192.0" r="8.58" fill="#d81b60" stroke="none"/>
<text x="222" y="196.0" font-family="sans-serif" font-size="13" font-weight="bold" text-anchor="middle" fill="#fff">4</text>
<text x="222" y="218.58" font-family="sans-serif" font-size="14" font-weight="normal" text-anchor="middle" fill="#222">nald </text>
<line x1="247.124" y1="181.0" x2="284.876" y2="181.0" stroke="#444" stroke-width="1"/>
<circle cx="266" cy="181.0" r="8.58" fill="#e53935" stroke="none"/>
<text x="266" y="185.0" font-family="sans-serif" font-size="13" font-weight="bold" text-anchor="middle" fill="#fff">5</text>
<text x="266" y="218.58" font-family="sans-serif" font-size="14" font-weight="normal" text-anchor="middle" fill="#222">had </text>
<line x1="291.124" y1="181.0" x2="328.876" y2="181.0" stroke="#444" stroke-width="1"/>
<circle cx="310" cy="181.0" r="8.58" fill="#e53935" stroke="none"/>
<text x="310" y="185.0" font-family="sans-serif" font-size="13" font-weight="bold" text-anchor="middle" fill="#fff">5</text>
<text x="310" y="218.58" font-family="sans-serif" font-size="14" font-weight="normal" text-anchor="middle" fill="#222">a </text>
<line x1="335.124" y1="181.0" x2="372.876" y2="181.0" stroke="#444" stroke-width="1"/>
<line x1="335.124" y1="192.0" x2="372.876" y2="192.0" stroke="#444" stroke-width="1"/>
<circle cx="354" cy="192.0" r="8.58" fill="#d81b60" stroke="none"/>
<text x="354" y="196.0" font-family="sans-serif" font-size="13" font-weight="bold" text-anchor="middle" fill="#fff">4</text>
<text x="354" y="218.58" font-family="sans-serif" font-size="14" font-weight="normal" text-anchor="middle" fill="#222">farm </text>
<circle cx="398" cy="142.5" r="8.58" fill="#2e7d32" stroke="none"/>
<text x="398" y="146.5" font-family="sans-serif" font-size="13" font-weight="bold" text-anchor="middle" fill="#fff">9</text>
<text x="398" y="218.58" font-family="sans-serif" font-size="14" font-weight="normal" text-anchor="middle" fill="#222">E-</text>
<circle cx="442" cy="142.5" r="8.58" fill="#2e7d32" stroke="none"/>
<text x="442" y="146.5" font-family="sans-serif" font-size="13" font-weight="bold" text-anchor="middle" fill="#fff">9</text>
<text x="442" y="218.58" font-family="sans-serif" font-size="14" font-weight="normal" text-anchor="middle" fill="#222">I-</text>
<circle cx="486" cy="153.5" r="8.58" fill="#43a047" stroke="none"/>
<text x="486" y="157.5" font-family="sans-serif" font-size="13" font-weight="bold" text-anchor="middle" fill="#fff">8</text>
<text x="486" y="218.58" font-family="sans-serif" font-size="14" font-weight="normal" text-anchor="middle" fill="#222">E-</text>
<circle cx="530" cy="153.5" r="8.58" fill="#43a047" stroke="none"/>
<text x="530" y="157.5" font-family="sans-serif" font-size="13" font-weight="bold" text-anchor="middle" fill="#fff">8</text>
<text x="530" y="218.58" font-family="sans-serif" font-size="14" font-weight="normal" text-anchor="middle" fill="#222">I-</text>
<circle cx="574" cy="164.5" r="8.58" fill="#fbc02d" stroke="none"/>
<text x="574" y="168.5" font-family="sans-serif" font-size="13" font-weight="bold" text-anchor="middle" fill="#fff">7</text>
<text x="574" y="218.58" font-family="sans-serif" font-size="14" font-weight="normal" text-anchor="middle" fill="#222">O</text>
<line x1="50" y1="264.58000000000004" x2="662" y2="264.58000000000004" stroke="#444" stroke-width="1"/>
<line x1="50" y1="275.58000000000004" x2="662" y2="275.58000000000004" stroke="#444" stroke-width="1"/>
<line x1="50" y1="286.58000000000004" x2="662" y2="286.58000000000004" stroke="#444" stroke-width="1"/>
<line x1="50" y1="297.58000000000004" x2="662" y2="297.58000000000004" stroke="#444" stroke-width="1"/>
<line x1="50" y1="308.58000000000004" x2="662" y2="308.58000000000004" stroke="#444" stroke-width="1"/>
<line x1="50" y1="264.58000000000004" x2="50" y2="308.58000000000004" stroke="#444" stroke-width="1"/>
<line x1="662" y1="264.58000000000004" x2="662" y2="308.58000000000004" stroke="#444" stroke-width="1"/>
<text x="62" y="305.83000000000004" font-size="55" font-family="FreeSerif, DejaVu Serif, Times New Roman, serif" text-anchor="middle" fill="#222">&#x1D11E;</text>
<line x1="71.124" y1="319.58000000000004" x2="108.876" y2="319.58000000000004" stroke="#444" stroke-width="1"/>
<line x1="71.124" y1="330.58000000000004" x2="108.876" y2="330.58000000000004" stroke="#444" stroke-width="1"/>
<circle cx="90" cy="330.58000000000004" r="8.58" fill="#d81b60" stroke="none"/>
<text x="90" y="334.58000000000004" font-family="sans-serif" font-size="13" font-weight="bold" text-anchor="middle" fill="#fff">4</text>
<text x="90" y="357.16" font-family="sans-serif" font-size="14" font-weight="normal" text-anchor="middle" fill="#222">And </text>
<circle cx="134" cy="303.08000000000004" r="8.58" fill="#fbc02d" stroke="none"/>
<text x="134" y="307.08000000000004" font-family="sans-serif" font-size="13" font-weight="bold" text-anchor="middle" fill="#fff">7</text>
<text x="134" y="357.16" font-family="sans-serif" font-size="14" font-weight="normal" text-anchor="middle" fill="#222">on </text>
<circle cx="178" cy="303.08000000000004" r="8.58" fill="#fbc02d" stroke="none"/>
<text x="178" y="307.08000000000004" font-family="sans-serif" font-size="13" font-weight="bold" text-anchor="middle" fill="#fff">7</text>
<text x="178" y="357.16" font-family="sans-serif" font-size="14" font-weight="normal" text-anchor="middle" fill="#222">his </text>
<circle cx="222" cy="303.08000000000004" r="8.58" fill="#fbc02d" stroke="none"/>
<text x="222" y="307.08000000000004" font-family="sans-serif" font-size="13" font-weight="bold" text-anchor="middle" fill="#fff">7</text>
<text x="222" y="357.16" font-family="sans-serif" font-size="14" font-weight="normal" text-anchor="middle" fill="#222">farm </text>
<line x1="247.124" y1="319.58000000000004" x2="284.876" y2="319.58000000000004" stroke="#444" stroke-width="1"/>
<line x1="247.124" y1="330.58000000000004" x2="284.876" y2="330.58000000000004" stroke="#444" stroke-width="1"/>
<circle cx="266" cy="330.58000000000004" r="8.58" fill="#d81b60" stroke="none"/>
<text x="266" y="334.58000000000004" font-family="sans-serif" font-size="13" font-weight="bold" text-anchor="middle" fill="#fff">4</text>
<text x="266" y="357.16" font-family="sans-serif" font-size="14" font-weight="normal" text-anchor="middle" fill="#222">he </text>
<line x1="291.124" y1="319.58000000000004" x2="328.876" y2="319.58000000000004" stroke="#444" stroke-width="1"/>
<circle cx="310" cy="319.58000000000004" r="8.58" fill="#e53935" stroke="none"/>
<text x="310" y="323.58000000000004" font-family="sans-serif" font-size="13" font-weight="bold" text-anchor="middle" fill="#fff">5</text>
<text x="310" y="357.16" font-family="sans-serif" font-size="14" font-weight="normal" text-anchor="middle" fill="#222">had </text>
<line x1="335.124" y1="319.58000000000004" x2="372.876" y2="319.58000000000004" stroke="#444" stroke-width="1"/>
<circle cx="354" cy="319.58000000000004" r="8.58" fill="#e53935" stroke="none"/>
<text x="354" y="323.58000000000004" font-family="sans-serif" font-size="13" font-weight="bold" text-anchor="middle" fill="#fff">5</text>
<text x="354" y="357.16" font-family="sans-serif" font-size="14" font-weight="normal" text-anchor="middle" fill="#222">a </text>
<line x1="379.124" y1="319.58000000000004" x2="416.876" y2="319.58000000000004" stroke="#444" stroke-width="1"/>
<line x1="379.124" y1="330.58000000000004" x2="416.876" y2="330.58000000000004" stroke="#444" stroke-width="1"/>
<circle cx="398" cy="330.58000000000004" r="8.58" fill="#d81b60" stroke="none"/>
<text x="398" y="334.58000000000004" font-family="sans-serif" font-size="13" font-weight="bold" text-anchor="middle" fill="#fff">4</text>
<text x="398" y="357.16" font-family="sans-serif" font-size="14" font-weight="normal" text-anchor="middle" fill="#222">cow </text>
<circle cx="442" cy="281.08000000000004" r="8.58" fill="#2e7d32" stroke="none"/>
<text x="442" y="285.08000000000004" font-family="sans-serif" font-size="13" font-weight="bold" text-anchor="middle" fill="#fff">9</text>
<text x="442" y="357.16" font-family="sans-serif" font-size="14" font-weight="normal" text-anchor="middle" fill="#222">E-</text>
<circle cx="486" cy="281.08000000000004" r="8.58" fill="#2e7d32" stroke="none"/>
<text x="486" y="285.08000000000004" font-family="sans-serif" font-size="13" font-weight="bold" text-anchor="middle" fill="#fff">9</text>
<text x="486" y="357.16" font-family="sans-serif" font-size="14" font-weight="normal" text-anchor="middle" fill="#222">I-</text>
<circle cx="530" cy="292.08000000000004" r="8.58" fill="#43a047" stroke="none"/>
<text x="530" y="296.08000000000004" font-family="sans-serif" font-size="13" font-weight="bold" text-anchor="middle" fill="#fff">8</text>
<text x="530" y="357.16" font-family="sans-serif" font-size="14" font-weight="normal" text-anchor="middle" fill="#222">E-</text>
<circle cx="574" cy="292.08000000000004" r="8.58" fill="#43a047" stroke="none"/>
<text x="574" y="296.08000000000004" font-family="sans-serif" font-size="13" font-weight="bold" text-anchor="middle" fill="#fff">8</text>
<text x="574" y="357.16" font-family="sans-serif" font-size="14" font-weight="normal" text-anchor="middle" fill="#222">I-</text>
<circle cx="618" cy="303.08000000000004" r="8.58" fill="#fbc02d" stroke="none"/>
<text x="618" y="307.08000000000004" font-family="sans-serif" font-size="13" font-weight="bold" text-anchor="middle" fill="#fff">7</text>
<text x="618" y="357.16" font-family="sans-serif" font-size="14" font-weight="normal" text-anchor="middle" fill="#222">O</text>
<line x1="50" y1="403.16" x2="662" y2="403.16" stroke="#444" stroke-width="1"/>
<line x1="50" y1="414.16" x2="662" y2="414.16" stroke="#444" stroke-width="1"/>
<line x1="50" y1="425.16" x2="662" y2="425.16" stroke="#444" stroke-width="1"/>
<line x1="50" y1="436.16" x2="662" y2="436.16" stroke="#444" stroke-width="1"/>
<line x1="50" y1="447.16" x2="662" y2="447.16" stroke="#444" stroke-width="1"/>
<line x1="50" y1="403.16" x2="50" y2="447.16" stroke="#444" stroke-width="1"/>
<line x1="662" y1="403.16" x2="662" y2="447.16" stroke="#444" stroke-width="1"/>
<text x="62" y="444.41" font-size="55" font-family="FreeSerif, DejaVu Serif, Times New Roman, serif" text-anchor="middle" fill="#222">&#x1D11E;</text>
<line x1="71.124" y1="458.16" x2="108.876" y2="458.16" stroke="#444" stroke-width="1"/>
<line x1="71.124" y1="469.16" x2="108.876" y2="469.16" stroke="#444" stroke-width="1"/>
<circle cx="90" cy="469.16" r="8.58" fill="#d81b60" stroke="none"/>
<text x="90" y="473.16" font-family="sans-serif" font-size="13" font-weight="bold" text-anchor="middle" fill="#fff">4</text>
<text x="90" y="495.74" font-family="sans-serif" font-size="14" font-weight="normal" text-anchor="middle" fill="#222">With </text>
<line x1="115.124" y1="458.16" x2="152.876" y2="458.16" stroke="#444" stroke-width="1"/>
<line x1="115.124" y1="469.16" x2="152.876" y2="469.16" stroke="#444" stroke-width="1"/>
<circle cx="134" cy="469.16" r="8.58" fill="#d81b60" stroke="none"/>
<text x="134" y="473.16" font-family="sans-serif" font-size="13" font-weight="bold" text-anchor="middle" fill="#fff">4</text>
<text x="134" y="495.74" font-family="sans-serif" font-size="14" font-weight="normal" text-anchor="middle" fill="#222">a </text>
<circle cx="178" cy="441.66" r="8.58" fill="#fbc02d" stroke="none"/>
<text x="178" y="445.66" font-family="sans-serif" font-size="13" font-weight="bold" text-anchor="middle" fill="#fff">7</text>
<text x="178" y="495.74" font-family="sans-serif" font-size="14" font-weight="normal" text-anchor="middle" fill="#222">moo-</text>
<circle cx="222" cy="441.66" r="8.58" fill="#fbc02d" stroke="none"/>
<text x="222" y="445.66" font-family="sans-serif" font-size="13" font-weight="bold" text-anchor="middle" fill="#fff">7</text>
<text x="222" y="495.74" font-family="sans-serif" font-size="14" font-weight="normal" text-anchor="middle" fill="#222">moo </text>
<circle cx="266" cy="441.66" r="8.58" fill="#fbc02d" stroke="none"/>
<text x="266" y="445.66" font-family="sans-serif" font-size="13" font-weight="bold" text-anchor="middle" fill="#fff">7</text>
<text x="266" y="495.74" font-family="sans-serif" font-size="14" font-weight="normal" text-anchor="middle" fill="#222">here </text>
<line x1="291.124" y1="458.16" x2="328.876" y2="458.16" stroke="#444" stroke-width="1"/>
<line x1="291.124" y1="469.16" x2="328.876" y2="469.16" stroke="#444" stroke-width="1"/>
<circle cx="310" cy="469.16" r="8.58" fill="#d81b60" stroke="none"/>
<text x="310" y="473.16" font-family="sans-serif" font-size="13" font-weight="bold" text-anchor="middle" fill="#fff">4</text>
<text x="310" y="495.74" font-family="sans-serif" font-size="14" font-weight="normal" text-anchor="middle" fill="#222">and </text>
<line x1="335.124" y1="458.16" x2="372.876" y2="458.16" stroke="#444" stroke-width="1"/>
<line x1="335.124" y1="469.16" x2="372.876" y2="469.16" stroke="#444" stroke-width="1"/>
<circle cx="354" cy="469.16" r="8.58" fill="#d81b60" stroke="none"/>
<text x="354" y="473.16" font-family="sans-serif" font-size="13" font-weight="bold" text-anchor="middle" fill="#fff">4</text>
<text x="354" y="495.74" font-family="sans-serif" font-size="14" font-weight="normal" text-anchor="middle" fill="#222">a </text>
<circle cx="398" cy="441.66" r="8.58" fill="#fbc02d" stroke="none"/>
<text x="398" y="445.66" font-family="sans-serif" font-size="13" font-weight="bold" text-anchor="middle" fill="#fff">7</text>
<text x="398" y="495.74" font-family="sans-serif" font-size="14" font-weight="normal" text-anchor="middle" fill="#222">moo-</text>
<circle cx="442" cy="441.66" r="8.58" fill="#fbc02d" stroke="none"/>
<text x="442" y="445.66" font-family="sans-serif" font-size="13" font-weight="bold" text-anchor="middle" fill="#fff">7</text>
<text x="442" y="495.74" font-family="sans-serif" font-size="14" font-weight="normal" text-anchor="middle" fill="#222">moo </text>
<circle cx="486" cy="441.66" r="8.58" fill="#fbc02d" stroke="none"/>
<text x="486" y="445.66" font-family="sans-serif" font-size="13" font-weight="bold" text-anchor="middle" fill="#fff">7</text>
<text x="486" y="495.74" font-family="sans-serif" font-size="14" font-weight="normal" text-anchor="middle" fill="#222">there</text>
<line x1="50" y1="541.74" x2="662" y2="541.74" stroke="#444" stroke-width="1"/>
<line x1="50" y1="552.74" x2="662" y2="552.74" stroke="#444" stroke-width="1"/>
<line x1="50" y1="563.74" x2="662" y2="563.74" stroke="#444" stroke-width="1"/>
<line x1="50" y1="574.74" x2="662" y2="574.74" stroke="#444" stroke-width="1"/>
<line x1="50" y1="585.74" x2="662" y2="585.74" stroke="#444" stroke-width="1"/>
<line x1="50" y1="541.74" x2="50" y2="585.74" stroke="#444" stroke-width="1"/>
<line x1="662" y1="541.74" x2="662" y2="585.74" stroke="#444" stroke-width="1"/>
<text x="62" y="582.99" font-size="55" font-family="FreeSerif, DejaVu Serif, Times New Roman, serif" text-anchor="middle" fill="#222">&#x1D11E;</text>
<circle cx="90" cy="580.24" r="8.58" fill="#fbc02d" stroke="none"/>
<text x="90" y="584.24" font-family="sans-serif" font-size="13" font-weight="bold" text-anchor="middle" fill="#fff">7</text>
<text x="90" y="634.32" font-family="sans-serif" font-size="14" font-weight="normal" text-anchor="middle" fill="#222">here </text>
<circle cx="134" cy="580.24" r="8.58" fill="#fbc02d" stroke="none"/>
<text x="134" y="584.24" font-family="sans-serif" font-size="13" font-weight="bold" text-anchor="middle" fill="#fff">7</text>
<text x="134" y="634.32" font-family="sans-serif" font-size="14" font-weight="normal" text-anchor="middle" fill="#222">a </text>
<line x1="159.124" y1="596.74" x2="196.876" y2="596.74" stroke="#444" stroke-width="1"/>
<line x1="159.124" y1="607.74" x2="196.876" y2="607.74" stroke="#444" stroke-width="1"/>
<circle cx="178" cy="607.74" r="8.58" fill="#d81b60" stroke="none"/>
<text x="178" y="611.74" font-family="sans-serif" font-size="13" font-weight="bold" text-anchor="middle" fill="#fff">4</text>
<text x="178" y="634.32" font-family="sans-serif" font-size="14" font-weight="normal" text-anchor="middle" fill="#222">moo </text>
<circle cx="222" cy="580.24" r="8.58" fill="#fbc02d" stroke="none"/>
<text x="222" y="584.24" font-family="sans-serif" font-size="13" font-weight="bold" text-anchor="middle" fill="#fff">7</text>
<text x="222" y="634.32" font-family="sans-serif" font-size="14" font-weight="normal" text-anchor="middle" fill="#222">there </text>
<circle cx="266" cy="580.24" r="8.58" fill="#fbc02d" stroke="none"/>
<text x="266" y="584.24" font-family="sans-serif" font-size="13" font-weight="bold" text-anchor="middle" fill="#fff">7</text>
<text x="266" y="634.32" font-family="sans-serif" font-size="14" font-weight="normal" text-anchor="middle" fill="#222">a </text>
<line x1="291.124" y1="596.74" x2="328.876" y2="596.74" stroke="#444" stroke-width="1"/>
<line x1="291.124" y1="607.74" x2="328.876" y2="607.74" stroke="#444" stroke-width="1"/>
<circle cx="310" cy="607.74" r="8.58" fill="#d81b60" stroke="none"/>
<text x="310" y="611.74" font-family="sans-serif" font-size="13" font-weight="bold" text-anchor="middle" fill="#fff">4</text>
<text x="310" y="634.32" font-family="sans-serif" font-size="14" font-weight="normal" text-anchor="middle" fill="#222">moo </text>
<circle cx="354" cy="580.24" r="8.58" fill="#fbc02d" stroke="none"/>
<text x="354" y="584.24" font-family="sans-serif" font-size="13" font-weight="bold" text-anchor="middle" fill="#fff">7</text>
<text x="354" y="634.32" font-family="sans-serif" font-size="14" font-weight="normal" text-anchor="middle" fill="#222">ev-</text>
<line x1="379.124" y1="596.74" x2="416.876" y2="596.74" stroke="#444" stroke-width="1"/>
<line x1="379.124" y1="607.74" x2="416.876" y2="607.74" stroke="#444" stroke-width="1"/>
<circle cx="398" cy="607.74" r="8.58" fill="#d81b60" stroke="none"/>
<text x="398" y="611.74" font-family="sans-serif" font-size="13" font-weight="bold" text-anchor="middle" fill="#fff">4</text>
<text x="398" y="634.32" font-family="sans-serif" font-size="14" font-weight="normal" text-anchor="middle" fill="#222">ery-</text>
<circle cx="442" cy="580.24" r="8.58" fill="#fbc02d" stroke="none"/>
<text x="442" y="584.24" font-family="sans-serif" font-size="13" font-weight="bold" text-anchor="middle" fill="#fff">7</text>
<text x="442" y="634.32" font-family="sans-serif" font-size="14" font-weight="normal" text-anchor="middle" fill="#222">where </text>
<line x1="467.124" y1="596.74" x2="504.876" y2="596.74" stroke="#444" stroke-width="1"/>
<line x1="467.124" y1="607.74" x2="504.876" y2="607.74" stroke="#444" stroke-width="1"/>
<circle cx="486" cy="607.74" r="8.58" fill="#d81b60" stroke="none"/>
<text x="486" y="611.74" font-family="sans-serif" font-size="13" font-weight="bold" text-anchor="middle" fill="#fff">4</text>
<text x="486" y="634.32" font-family="sans-serif" font-size="14" font-weight="normal" text-anchor="middle" fill="#222">a </text>
<circle cx="530" cy="580.24" r="8.58" fill="#fbc02d" stroke="none"/>
<text x="530" y="584.24" font-family="sans-serif" font-size="13" font-weight="bold" text-anchor="middle" fill="#fff">7</text>
<text x="530" y="634.32" font-family="sans-serif" font-size="14" font-weight="normal" text-anchor="middle" fill="#222">moo-</text>
<circle cx="574" cy="580.24" r="8.58" fill="#fbc02d" stroke="none"/>
<text x="574" y="584.24" font-family="sans-serif" font-size="13" font-weight="bold" text-anchor="middle" fill="#fff">7</text>
<text x="574" y="634.32" font-family="sans-serif" font-size="14" font-weight="normal" text-anchor="middle" fill="#222">moo</text>
<line x1="50" y1="680.32" x2="662" y2="680.32" stroke="#444" stroke-width="1"/>
<line x1="50" y1="691.32" x2="662" y2="691.32" stroke="#444" stroke-width="1"/>
<line x1="50" y1="702.32" x2="662" y2="702.32" stroke="#444" stroke-width="1"/>
<line x1="50" y1="713.32" x2="662" y2="713.32" stroke="#444" stroke-width="1"/>
<line x1="50" y1="724.32" x2="662" y2="724.32" stroke="#444" stroke-width="1"/>
<line x1="50" y1="680.32" x2="50" y2="724.32" stroke="#444" stroke-width="1"/>
<line x1="662" y1="680.32" x2="662" y2="724.32" stroke="#444" stroke-width="1"/>
<text x="62" y="721.57" font-size="55" font-family="FreeSerif, DejaVu Serif, Times New Roman, serif" text-anchor="middle" fill="#222">&#x1D11E;</text>
<circle cx="90" cy="718.82" r="8.58" fill="#fbc02d" stroke="none"/>
<text x="90" y="722.82" font-family="sans-serif" font-size="13" font-weight="bold" text-anchor="middle" fill="#fff">7</text>
<text x="90" y="772.9000000000001" font-family="sans-serif" font-size="14" font-weight="normal" text-anchor="middle" fill="#222">Old </text>
<circle cx="134" cy="718.82" r="8.58" fill="#fbc02d" stroke="none"/>
<text x="134" y="722.82" font-family="sans-serif" font-size="13" font-weight="bold" text-anchor="middle" fill="#fff">7</text>
<text x="134" y="772.9000000000001" font-family="sans-serif" font-size="14" font-weight="normal" text-anchor="middle" fill="#222">Mac- </text>
<circle cx="178" cy="718.82" r="8.58" fill="#fbc02d" stroke="none"/>
<text x="178" y="722.82" font-family="sans-serif" font-size="13" font-weight="bold" text-anchor="middle" fill="#fff">7</text>
<text x="178" y="772.9000000000001" font-family="sans-serif" font-size="14" font-weight="normal" text-anchor="middle" fill="#222">Do- </text>
<line x1="203.124" y1="735.32" x2="240.876" y2="735.32" stroke="#444" stroke-width="1"/>
<line x1="203.124" y1="746.32" x2="240.876" y2="746.32" stroke="#444" stroke-width="1"/>
<circle cx="222" cy="746.32" r="8.58" fill="#d81b60" stroke="none"/>
<text x="222" y="750.32" font-family="sans-serif" font-size="13" font-weight="bold" text-anchor="middle" fill="#fff">4</text>
<text x="222" y="772.9000000000001" font-family="sans-serif" font-size="14" font-weight="normal" text-anchor="middle" fill="#222">nald </text>
<line x1="247.124" y1="735.32" x2="284.876" y2="735.32" stroke="#444" stroke-width="1"/>
<circle cx="266" cy="735.32" r="8.58" fill="#e53935" stroke="none"/>
<text x="266" y="739.32" font-family="sans-serif" font-size="13" font-weight="bold" text-anchor="middle" fill="#fff">5</text>
<text x="266" y="772.9000000000001" font-family="sans-serif" font-size="14" font-weight="normal" text-anchor="middle" fill="#222">had </text>
<line x1="291.124" y1="735.32" x2="328.876" y2="735.32" stroke="#444" stroke-width="1"/>
<circle cx="310" cy="735.32" r="8.58" fill="#e53935" stroke="none"/>
<text x="310" y="739.32" font-family="sans-serif" font-size="13" font-weight="bold" text-anchor="middle" fill="#fff">5</text>
<text x="310" y="772.9000000000001" font-family="sans-serif" font-size="14" font-weight="normal" text-anchor="middle" fill="#222">a </text>
<line x1="335.124" y1="735.32" x2="372.876" y2="735.32" stroke="#444" stroke-width="1"/>
<line x1="335.124" y1="746.32" x2="372.876" y2="746.32" stroke="#444" stroke-width="1"/>
<circle cx="354" cy="746.32" r="8.58" fill="#d81b60" stroke="none"/>
<text x="354" y="750.32" font-family="sans-serif" font-size="13" font-weight="bold" text-anchor="middle" fill="#fff">4</text>
<text x="354" y="772.9000000000001" font-family="sans-serif" font-size="14" font-weight="normal" text-anchor="middle" fill="#222">farm </text>
<circle cx="398" cy="696.82" r="8.58" fill="#2e7d32" stroke="none"/>
<text x="398" y="700.82" font-family="sans-serif" font-size="13" font-weight="bold" text-anchor="middle" fill="#fff">9</text>
<text x="398" y="772.9000000000001" font-family="sans-serif" font-size="14" font-weight="normal" text-anchor="middle" fill="#222">E-</text>
<circle cx="442" cy="696.82" r="8.58" fill="#2e7d32" stroke="none"/>
<text x="442" y="700.82" font-family="sans-serif" font-size="13" font-weight="bold" text-anchor="middle" fill="#fff">9</text>
<text x="442" y="772.9000000000001" font-family="sans-serif" font-size="14" font-weight="normal" text-anchor="middle" fill="#222">I-</text>
<circle cx="486" cy="707.82" r="8.58" fill="#43a047" stroke="none"/>
<text x="486" y="711.82" font-family="sans-serif" font-size="13" font-weight="bold" text-anchor="middle" fill="#fff">8</text>
<text x="486" y="772.9000000000001" font-family="sans-serif" font-size="14" font-weight="normal" text-anchor="middle" fill="#222">E-</text>
<circle cx="530" cy="707.82" r="8.58" fill="#43a047" stroke="none"/>
<text x="530" y="711.82" font-family="sans-serif" font-size="13" font-weight="bold" text-anchor="middle" fill="#fff">8</text>
<text x="530" y="772.9000000000001" font-family="sans-serif" font-size="14" font-weight="normal" text-anchor="middle" fill="#222">I-</text>
<circle cx="574" cy="718.82" r="8.58" fill="#fbc02d" stroke="none"/>
<text x="574" y="722.82" font-family="sans-serif" font-size="13" font-weight="bold" text-anchor="middle" fill="#fff">7</text>
<text x="574" y="772.9000000000001" font-family="sans-serif" font-size="14" font-weight="normal" text-anchor="middle" fill="#222">O</text>
</svg>