<svg xmlns="http://www.w3.org/2000/svg" width="818" height="1053.48">
<rect width="100%" height="100%" fill="white"/>
<text x="409.0" y="40" font-family="serif" font-size="28" font-weight="normal" text-anchor="middle" fill="#222">Prelude in C major (WTC I)</text>
<text x="409.0" y="76" font-family="sans-serif" font-size="14" font-weight="normal" text-anchor="middle" fill="#555">Bach BWV 846, opening bars</text>
<line x1="50" y1="146" x2="794" y2="146" stroke="#444" stroke-width="1"/>
<line x1="50" y1="157" x2="794" y2="157" stroke="#444" stroke-width="1"/>
<line x1="50" y1="168" x2="794" y2="168" stroke="#444" stroke-width="1"/>
<line x1="50" y1="179" x2="794" y2="179" stroke="#444" stroke-width="1"/>
<line x1="50" y1="190" x2="794" y2="190" stroke="#444" stroke-width="1"/>
<line x1="50" y1="146" x2="50" y2="190" stroke="#444" stroke-width="1"/>
<line x1="794" y1="146" x2="794" y2="190" stroke="#444" stroke-width="1"/>
<text x="62" y="187.25" font-size="55" font-family="FreeSerif, DejaVu Serif, Times New Roman, serif" text-anchor="middle" fill="#222">&#x1D11E;</text>
<line x1="71.124" y1="201.0" x2="108.876" y2="201.0" stroke="#444" stroke-width="1"/>
<line x1="71.124" y1="212.0" x2="108.876" y2="212.0" stroke="#444" stroke-width="1"/>
<circle cx="90" cy="212.0" r="8.58" fill="#d81b60" stroke="none"/>
<text x="90" y="216.0" font-family="sans-serif" font-size="13" font-weight="bold" text-anchor="middle" fill="#fff">4</text>
<text x="90" y="238.58" font-family="sans-serif" font-size="14" font-weight="normal" text-anchor="middle" fill="#222"> </text>
<circle cx="134" cy="190.0" r="8.58" fill="#f57c00" stroke="none"/>
<text x="134" y="194.0" font-family="sans-serif" font-size="13" font-weight="bold" text-anchor="middle" fill="#fff">6</text>
<text x="134" y="238.58" font-family="sans-serif" font-size="14" font-weight="normal" text-anchor="middle" fill="#222"> </text>
<circle cx="178" cy="173.5" r="8.58" fill="#43a047" stroke="none"/>
<text x="178" y="177.5" font-family="sans-serif" font-size="13" font-weight="bold" text-anchor="middle" fill="#fff">8</text>
<text x="178" y="238.58" font-family="sans-serif" font-size="14" font-weight="normal" text-anchor="middle" fill="#222"> </text>
<circle cx="222" cy="146.0" r="8.58" fill="#81d4fa" stroke="none"/>
<text x="222" y="150.0" font-family="sans-serif" font-size="13" font-weight="bold" text-anchor="middle" fill="#fff">11</text>
<text x="222" y="238.58" font-family="sans-serif" font-size="14" font-weight="normal" text-anchor="middle" fill="#222"> </text>
<line x1="247.124" y1="124.0" x2="284.876" y2="124.0" stroke="#444" stroke-width="1"/>
<line x1="247.124" y1="135.0" x2="284.876" y2="135.0" stroke="#444" stroke-width="1"/>
<circle cx="266" cy="124.0" r="8.58" fill="#3949ab" stroke="none"/>
<text x="266" y="128.0" font-family="sans-serif" font-size="13" font-weight="bold" text-anchor="middle" fill="#fff">13</text>
<text x="266" y="238.58" font-family="sans-serif" font-size="14" font-weight="normal" text-anchor="middle" fill="#222"> </text>
<circle cx="310" cy="173.5" r="8.58" fill="#43a047" stroke="none"/>
<text x="310" y="177.5" font-family="sans-serif" font-size="13" font-weight="bold" text-anchor="middle" fill="#fff">8</text>
<text x="310" y="238.58" font-family="sans-serif" font-size="14" font-weight="normal" text-anchor="middle" fill="#222"> </text>
<circle cx="354" cy="146.0" r="8.58" fill="#81d4fa" stroke="none"/>
<text x="354" y="150.0" font-family="sans-serif" font-size="13" font-weight="bold" text-anchor="middle" fill="#fff">11</text>
<text x="354" y="238.58" font-family="sans-serif" font-size="14" font-weight="normal" text-anchor="middle" fill="#222"> </text>
<line x1="379.124" y1="124.0" x2="416.876" y2="124.0" stroke="#444" stroke-width="1"/>
<line x1="379.124" y1="135.0" x2="416.876" y2="135.0" stroke="#444" stroke-width="1"/>
<circle cx="398" cy="124.0" r="8.58" fill="#3949ab" stroke="none"/>
<text x="398" y="128.0" font-family="sans-serif" font-size="13" font-weight="bold" text-anchor="middle" fill="#fff">13</text>
<text x="398" y="238.58" font-family="sans-serif" font-size="14" font-weight="normal" text-anchor="middle" fill="#222"> </text>
<line x1="423.124" y1="201.0" x2="460.876" y2="201.0" stroke="#444" stroke-width="1"/>
<line x1="423.124" y1="212.0" x2="460.876" y2="212.0" stroke="#444" stroke-width="1"/>
<circle cx="442" cy="212.0" r="8.58" fill="#d81b60" stroke="none"/>
<text x="442" y="216.0" font-family="sans-serif" font-size="13" font-weight="bold" text-anchor="middle" fill="#fff">4</text>
<text x="442" y="238.58" font-family="sans-serif" font-size="14" font-weight="normal" text-anchor="middle" fill="#222"> </text>
<line x1="467.124" y1="201.0" x2="504.876" y2="201.0" stroke="#444" stroke-width="1"/>
<circle cx="486" cy="201.0" r="8.58" fill="#e53935" stroke="none"/>
<text x="486" y="205.0" font-family="sans-serif" font-size="13" font-weight="bold" text-anchor="middle" fill="#fff">5</text>
<text x="486" y="238.58" font-family="sans-serif" font-size="14" font-weight="normal" text-anchor="middle" fill="#222"> </text>
<circle cx="530" cy="162.5" r="8.58" fill="#2e7d32" stroke="none"/>
<text x="530" y="166.5" font-family="sans-serif" font-size="13" font-weight="bold" text-anchor="middle" fill="#fff">9</text>
<text x="530" y="238.58" font-family="sans-serif" font-size="14" font-weight="normal" text-anchor="middle" fill="#222"> </text>
<line x1="555.124" y1="135.0" x2="592.876" y2="135.0" stroke="#444" stroke-width="1"/>
<circle cx="574" cy="135.0" r="8.58" fill="#42a5f5" stroke="none"/>
<text x="574" y="139.0" font-family="sans-serif" font-size="13" font-weight="bold" text-anchor="middle" fill="#fff">12</text>
<text x="574" y="238.58" font-family="sans-serif" font-size="14" font-weight="normal" text-anchor="middle" fill="#222"> </text>
<line x1="599.124" y1="124.0" x2="636.876" y2="124.0" stroke="#444" stroke-width="1"/>
<line x1="599.124" y1="135.0" x2="636.876" y2="135.0" stroke="#444" stroke-width="1"/>
<circle cx="618" cy="118.5" r="8.58" fill="#8d6e63" stroke="none"/>
<text x="618" y="122.5" font-family="sans-serif" font-size="13" font-weight="bold" text-anchor="middle" fill="#fff">14</text>
<text x="618" y="238.58" font-family="sans-serif" font-size="14" font-weight="normal" text-anchor="middle" fill="#222"> </text>
<circle cx="662" cy="162.5" r="8.58" fill="#2e7d32" stroke="none"/>
<text x="662" y="166.5" font-family="sans-serif" font-size="13" font-weight="bold" text-anchor="middle" fill="#fff">9</text>
<text x="662" y="238.58" font-family="sans-serif" font-size="14" font-weight="normal" text-anchor="middle" fill="#222"> </text>
<line x1="687.124" y1="135.0" x2="724.876" y2="135.0" stroke="#444" stroke-width="1"/>
<circle cx="706" cy="135.0" r="8.58" fill="#42a5f5" stroke="none"/>
<text x="706" y="139.0" font-family="sans-serif" font-size="13" font-weight="bold" text-anchor="middle" fill="#fff">12</text>
<text x="706" y="238.58" font-family="sans-serif" font-size="14" font-weight="normal" text-anchor="middle" fill="#222"> </text>
<line x1="731.124" y1="124.0" x2="768.876" y2="124.0" stroke="#444" stroke-width="1"/>
<line x1="731.124" y1="135.0" x2="768.876" y2="135.0" stroke="#444" stroke-width="1"/>
<circle cx="750" cy="118.5" r="8.58" fill="#8d6e63" stroke="none"/>
<text x="750" y="122.5" font-family="sans-serif" font-size="13" font-weight="bold" text-anchor="middle" fill="#fff">14</text>
<line x1="50" y1="284.58000000000004" x2="794" y2="284.58000000000004" stroke="#444" stroke-width="1"/>
<line x1="50" y1="295.58000000000004" x2="794" y2="295.58000000000004" stroke="#444" stroke-width="1"/>
<line x1="50" y1="306.58000000000004" x2="794" y2="306.58000000000004" stroke="#444" stroke-width="1"/>
<line x1="50" y1="317.58000000000004" x2="794" y2="317.58000000000004" stroke="#444" stroke-width="1"/>
<line x1="50" y1="328.58000000000004" x2="794" y2="328.58000000000004" stroke="#444" stroke-width="1"/>
<line x1="50" y1="284.58000000000004" x2="50" y2="328.58000000000004" stroke="#444" stroke-width="1"/>
<line x1="794" y1="284.58000000000004" x2="794" y2="328.58000000000004" stroke="#444" stroke-width="1"/>
<text x="62" y="325.83000000000004" font-size="55" font-family="FreeSerif, DejaVu Serif, Times New Roman, serif" text-anchor="middle" fill="#222">&#x1D11E;</text>
<line x1="71.124" y1="339.58000000000004" x2="108.876" y2="339.58000000000004" stroke="#444" stroke-width="1"/>
<line x1="71.124" y1="350.58000000000004" x2="108.876" y2="350.58000000000004" stroke="#444" stroke-width="1"/>
<line x1="71.124" y1="361.58000000000004" x2="108.876" y2="361.58000000000004" stroke="#444" stroke-width="1"/>
<circle cx="90" cy="356.08000000000004" r="8.58" fill="#e8a3b5" stroke="none"/>
<text x="90" y="360.08000000000004" font-family="sans-serif" font-size="13" font-weight="bold" text-anchor="middle" fill="#fff">3</text>
<text x="90" y="382.66" font-family="sans-serif" font-size="14" font-weight="normal" text-anchor="middle" fill="#222"> </text>
<line x1="115.124" y1="339.58000000000004" x2="152.876" y2="339.58000000000004" stroke="#444" stroke-width="1"/>
<circle cx="134" cy="339.58000000000004" r="8.58" fill="#e53935" stroke="none"/>
<text x="134" y="343.58000000000004" font-family="sans-serif" font-size="13" font-weight="bold" text-anchor="middle" fill="#fff">5</text>
<text x="134" y="382.66" font-family="sans-serif" font-size="14" font-weight="normal" text-anchor="middle" fill="#222"> </text>
<circle cx="178" cy="312.08000000000004" r="8.58" fill="#43a047" stroke="none"/>
<text x="178" y="316.08000000000004" font-family="sans-serif" font-size="13" font-weight="bold" text-anchor="middle" fill="#fff">8</text>
<text x="178" y="382.66" font-family="sans-serif" font-size="14" font-weight="normal" text-anchor="middle" fill="#222"> </text>
<line x1="203.124" y1="273.58000000000004" x2="240.876" y2="273.58000000000004" stroke="#444" stroke-width="1"/>
<circle cx="222" cy="273.58000000000004" r="8.58" fill="#42a5f5" stroke="none"/>
<text x="222" y="277.58000000000004" font-family="sans-serif" font-size="13" font-weight="bold" text-anchor="middle" fill="#fff">12</text>
<text x="222" y="382.66" font-family="sans-serif" font-size="14" font-weight="normal" text-anchor="middle" fill="#222"> </text>
<line x1="247.124" y1="262.58000000000004" x2="284.876" y2="262.58000000000004" stroke="#444" stroke-width="1"/>
<line x1="247.124" y1="273.58000000000004" x2="284.876" y2="273.58000000000004" stroke="#444" stroke-width="1"/>
<circle cx="266" cy="257.08000000000004" r="8.58" fill="#8d6e63" stroke="none"/>
<text x="266" y="261.08000000000004" font-family="sans-serif" font-size="13" font-weight="bold" text-anchor="middle" fill="#fff">14</text>
<text x="266" y="382.66" font-family="sans-serif" font-size="14" font-weight="normal" text-anchor="middle" fill="#222"> </text>
<circle cx="310" cy="312.08000000000004" r="8.58" fill="#43a047" stroke="none"/>
<text x="310" y="316.08000000000004" font-family="sans-serif" font-size="13" font-weight="bold" text-anchor="middle" fill="#fff">8</text>
<text x="310" y="382.66" font-family="sans-serif" font-size="14" font-weight="normal" text-anchor="middle" fill="#222"> </text>
<line x1="335.124" y1="273.58000000000004" x2="372.876" y2="273.58000000000004" stroke="#444" stroke-width="1"/>
<circle cx="354" cy="273.58000000000004" r="8.58" fill="#42a5f5" stroke="none"/>
<text x="354" y="277.58000000000004" font-family="sans-serif" font-size="13" font-weight="bold" text-anchor="middle" fill="#fff">12</text>
<text x="354" y="382.66" font-family="sans-serif" font-size="14" font-weight="normal" text-anchor="middle" fill="#222"> </text>
<line x1="379.124" y1="262.58000000000004" x2="416.876" y2="262.58000000000004" stroke="#444" stroke-width="1"/>
<line x1="379.124" y1="273.58000000000004" x2="416.876" y2="273.58000000000004" stroke="#444" stroke-width="1"/>
<circle cx="398" cy="257.08000000000004" r="8.58" fill="#8d6e63" stroke="none"/>
<text x="398" y="261.08000000000004" font-family="sans-serif" font-size="13" font-weight="bold" text-anchor="middle" fill="#fff">14</text>
<text x="398" y="382.66" font-family="sans-serif" font-size="14" font-weight="normal" text-anchor="middle" fill="#222"> </text>
<line x1="423.124" y1="339.58000000000004" x2="460.876" y2="339.58000000000004" stroke="#444" stroke-width="1"/>
<line x1="423.124" y1="350.58000000000004" x2="460.876" y2="350.58000000000004" stroke="#444" stroke-width="1"/>
<circle cx="442" cy="350.58000000000004" r="8.58" fill="#d81b60" stroke="none"/>
<text x="442" y="354.58000000000004" font-family="sans-serif" font-size="13" font-weight="bold" text-anchor="middle" fill="#fff">4</text>
<text x="442" y="382.66" font-family="sans-serif" font-size="14" font-weight="normal" text-anchor="middle" fill="#222"> </text>
<circle cx="486" cy="328.58000000000004" r="8.58" fill="#f57c00" stroke="none"/>
<text x="486" y="332.58000000000004" font-family="sans-serif" font-size="13" font-weight="bold" text-anchor="middle" fill="#fff">6</text>
<text x="486" y="382.66" font-family="sans-serif" font-size="14" font-weight="normal" text-anchor="middle" fill="#222"> </text>
<circle cx="530" cy="312.08000000000004" r="8.58" fill="#43a047" stroke="none"/>
<text x="530" y="316.08000000000004" font-family="sans-serif" font-size="13" font-weight="bold" text-anchor="middle" fill="#fff">8</text>
<text x="530" y="382.66" font-family="sans-serif" font-size="14" font-weight="normal" text-anchor="middle" fill="#222"> </text>
<circle cx="574" cy="284.58000000000004" r="8.58" fill="#81d4fa" stroke="none"/>
<text x="574" y="288.58000000000004" font-family="sans-serif" font-size="13" font-weight="bold" text-anchor="middle" fill="#fff">11</text>
<text x="574" y="382.66" font-family="sans-serif" font-size="14" font-weight="normal" text-anchor="middle" fill="#222"> </text>
<line x1="599.124" y1="262.58000000000004" x2="636.876" y2="262.58000000000004" stroke="#444" stroke-width="1"/>
<line x1="599.124" y1="273.58000000000004" x2="636.876" y2="273.58000000000004" stroke="#444" stroke-width="1"/>
<circle cx="618" cy="262.58000000000004" r="8.58" fill="#3949ab" stroke="none"/>
<text x="618" y="266.58000000000004" font-family="sans-serif" font-size="13" font-weight="bold" text-anchor="middle" fill="#fff">13</text>
<text x="618" y="382.66" font-family="sans-serif" font-size="14" font-weight="normal" text-anchor="middle" fill="#222"> </text>
<circle cx="662" cy="312.08000000000004" r="8.58" fill="#43a047" stroke="none"/>
<text x="662" y="316.08000000000004" font-family="sans-serif" font-size="13" font-weight="bold" text-anchor="middle" fill="#fff">8</text>
<text x="662" y="382.66" font-family="sans-serif" font-size="14" font-weight="normal" text-anchor="middle" fill="#222"> </text>
<circle cx="706" cy="284.58000000000004" r="8.58" fill="#81d4fa" stroke="none"/>
<text x="706" y="288.58000000000004" font-family="sans-serif" font-size="13" font-weight="bold" text-anchor="middle" fill="#fff">11</text>
<text x="706" y="382.66" font-family="sans-serif" font-size="14" font-weight="normal" text-anchor="middle" fill="#222"> </text>
<line x1="731.124" y1="262.58000000000004" x2="768.876" y2="262.58000000000004" stroke="#444" stroke-width="1"/>
<line x1="731.124" y1="273.58000000000004" x2="768.876" y2="273.58000000000004" stroke="#444" stroke-width="1"/>
<circle cx="750" cy="262.58000000000004" r="8.58" fill="#3949ab" stroke="none"/>
<text x="750" y="266.58000000000004" font-family="sans-serif" font-size="13" font-weight="bold" text-anchor="middle" fill="#fff">13</text>
<line x1="50" y1="428.66" x2="794" y2="428.66" stroke="#444" stroke-width="1"/>
<line x1="50" y1="439.66" x2="794" y2="439.66" stroke="#444" stroke-width="1"/>
<line x1="50" y1="450.66" x2="794" y2="450.66" stroke="#444" stroke-width="1"/>
<line x1="50" y1="461.66" x2="794" y2="461.66" stroke="#444" stroke-width="1"/>
<line x1="50" y1="472.66" x2="794" y2="472.66" stroke="#444" stroke-width="1"/>
<line x1="50" y1="428.66" x2="50" y2="472.66" stroke="#444" stroke-width="1"/>
<line x1="794" y1="428.66" x2="794" y2="472.66" stroke="#444" stroke-width="1"/>
<text x="62" y="469.91" font-size="55" font-family="FreeSerif, DejaVu Serif, Times New Roman, serif" text-anchor="middle" fill="#222">&#x1D11E;</text>
<line x1="71.124" y1="483.66" x2="108.876" y2="483.66" stroke="#444" stroke-width="1"/>
<line x1="71.124" y1="494.66" x2="108.876" y2="494.66" stroke="#444" stroke-width="1"/>
<circle cx="90" cy="494.66" r="8.58" fill="#d81b60" stroke="none"/>
<text x="90" y="498.66" font-family="sans-serif" font-size="13" font-weight="bold" text-anchor="middle" fill="#fff">4</text>
<text x="90" y="521.24" font-family="sans-serif" font-size="14" font-weight="normal" text-anchor="middle" fill="#222"> </text>
<circle cx="134" cy="472.66" r="8.58" fill="#f57c00" stroke="none"/>
<text x="134" y="476.66" font-family="sans-serif" font-size="13" font-weight="bold" text-anchor="middle" fill="#fff">6</text>
<text x="134" y="521.24" font-family="sans-serif" font-size="14" font-weight="normal" text-anchor="middle" fill="#222"> </text>
<circle cx="178" cy="445.16" r="8.58" fill="#2e7d32" stroke="none"/>
<text x="178" y="449.16" font-family="sans-serif" font-size="13" font-weight="bold" text-anchor="middle" fill="#fff">9</text>
<text x="178" y="521.24" font-family="sans-serif" font-size="14" font-weight="normal" text-anchor="middle" fill="#222"> </text>
<circle cx="222" cy="428.66" r="8.58" fill="#81d4fa" stroke="none"/>
<text x="222" y="432.66" font-family="sans-serif" font-size="13" font-weight="bold" text-anchor="middle" fill="#fff">11</text>
<text x="222" y="521.24" font-family="sans-serif" font-size="14" font-weight="normal" text-anchor="middle" fill="#222"> </text>
<line x1="247.124" y1="406.66" x2="284.876" y2="406.66" stroke="#444" stroke-width="1"/>
<line x1="247.124" y1="417.66" x2="284.876" y2="417.66" stroke="#444" stroke-width="1"/>
<circle cx="266" cy="406.66" r="8.58" fill="#3949ab" stroke="none"/>
<text x="266" y="410.66" font-family="sans-serif" font-size="13" font-weight="bold" text-anchor="middle" fill="#fff">13</text>
<text x="266" y="521.24" font-family="sans-serif" font-size="14" font-weight="normal" text-anchor="middle" fill="#222"> </text>
<circle cx="310" cy="445.16" r="8.58" fill="#2e7d32" stroke="none"/>
<text x="310" y="449.16" font-family="sans-serif" font-size="13" font-weight="bold" text-anchor="middle" fill="#fff">9</text>
<text x="310" y="521.24" font-family="sans-serif" font-size="14" font-weight="normal" text-anchor="middle" fill="#222"> </text>
<circle cx="354" cy="428.66" r="8.58" fill="#81d4fa" stroke="none"/>
<text x="354" y="432.66" font-family="sans-serif" font-size="13" font-weight="bold" text-anchor="middle" fill="#fff">11</text>
<text x="354" y="521.24" font-family="sans-serif" font-size="14" font-weight="normal" text-anchor="middle" fill="#222"> </text>
<line x1="379.124" y1="406.66" x2="416.876" y2="406.66" stroke="#444" stroke-width="1"/>
<line x1="379.124" y1="417.66" x2="416.876" y2="417.66" stroke="#444" stroke-width="1"/>
<circle cx="398" cy="406.66" r="8.58" fill="#3949ab" stroke="none"/>
<text x="398" y="410.66" font-family="sans-serif" font-size="13" font-weight="bold" text-anchor="middle" fill="#fff">13</text>
<text x="398" y="521.24" font-family="sans-serif" font-size="14" font-weight="normal" text-anchor="middle" fill="#222"> </text>
<line x1="423.124" y1="483.66" x2="460.876" y2="483.66" stroke="#444" stroke-width="1"/>
<line x1="423.124" y1="494.66" x2="460.876" y2="494.66" stroke="#444" stroke-width="1"/>
<circle cx="442" cy="494.66" r="8.58" fill="#d81b60" stroke="none"/>
<text x="442" y="498.66" font-family="sans-serif" font-size="13" font-weight="bold" text-anchor="middle" fill="#fff">4</text>
<text x="442" y="521.24" font-family="sans-serif" font-size="14" font-weight="normal" text-anchor="middle" fill="#222"> </text>
<line x1="467.124" y1="483.66" x2="504.876" y2="483.66" stroke="#444" stroke-width="1"/>
<circle cx="486" cy="483.66" r="8.58" fill="#e53935" stroke="none"/>
<text x="486" y="487.66" font-family="sans-serif" font-size="13" font-weight="bold" text-anchor="middle" fill="#fff">5</text>
<text x="486" y="521.24" font-family="sans-serif" font-size="14" font-weight="normal" text-anchor="middle" fill="#222"> </text>
<circle cx="530" cy="461.66" r="8.58" fill="#222" stroke="none"/>
<text x="530" y="465.66" font-family="sans-serif" font-size="13" font-weight="bold" text-anchor="middle" fill="#fff">5</text>
<text x="530" y="521.24" font-family="sans-serif" font-size="14" font-weight="normal" text-anchor="middle" fill="#222"> </text>
<circle cx="574" cy="445.16" r="8.58" fill="#2e7d32" stroke="none"/>
<text x="574" y="449.16" font-family="sans-serif" font-size="13" font-weight="bold" text-anchor="middle" fill="#fff">9</text>
<text x="574" y="521.24" font-family="sans-serif" font-size="14" font-weight="normal" text-anchor="middle" fill="#222"> </text>
<circle cx="618" cy="428.66" r="8.58" fill="#81d4fa" stroke="none"/>
<text x="618" y="432.66" font-family="sans-serif" font-size="13" font-weight="bold" text-anchor="middle" fill="#fff">11</text>
<text x="618" y="521.24" font-family="sans-serif" font-size="14" font-weight="normal" text-anchor="middle" fill="#222"> </text>
<circle cx="662" cy="461.66" r="8.58" fill="#222" stroke="none"/>
<text x="662" y="465.66" font-family="sans-serif" font-size="13" font-weight="bold" text-anchor="middle" fill="#fff">5</text>
<text x="662" y="521.24" font-family="sans-serif" font-size="14" font-weight="normal" text-anchor="middle" fill="#222"> </text>
<circle cx="706" cy="445.16" r="8.58" fill="#2e7d32" stroke="none"/>
<text x="706" y="449.16" font-family="sans-serif" font-size="13" font-weight="bold" text-anchor="middle" fill="#fff">9</text>
<text x="706" y="521.24" font-family="sans-serif" font-size="14" font-weight="normal" text-anchor="middle" fill="#222"> </text>
<circle cx="750" cy="428.66" r="8.58" fill="#81d4fa" stroke="none"/>
<text x="750" y="432.66" font-family="sans-serif" font-size="13" font-weight="bold" text-anchor="middle" fill="#fff">11</text>
<line x1="50" y1="567.24" x2="794" y2="567.24" stroke="#444" stroke-width="1"/>
<line x1="50" y1="578.24" x2="794" y2="578.24" stroke="#444" stroke-width="1"/>
<line x1="50" y1="589.24" x2="794" y2="589.24" stroke="#444" stroke-width="1"/>
<line x1="50" y1="600.24" x2="794" y2="600.24" stroke="#444" stroke-width="1"/>
<line x1="50" y1="611.24" x2="794" y2="611.24" stroke="#444" stroke-width="1"/>
<line x1="50" y1="567.24" x2="50" y2="611.24" stroke="#444" stroke-width="1"/>
<line x1="794" y1="567.24" x2="794" y2="611.24" stroke="#444" stroke-width="1"/>
<text x="62" y="608.49" font-size="55" font-family="FreeSerif, DejaVu Serif, Times New Roman, serif" text-anchor="middle" fill="#222">&#x1D11E;</text>
<line x1="71.124" y1="622.24" x2="108.876" y2="622.24" stroke="#444" stroke-width="1"/>
<line x1="71.124" y1="633.24" x2="108.876" y2="633.24" stroke="#444" stroke-width="1"/>
<line x1="71.124" y1="644.24" x2="108.876" y2="644.24" stroke="#444" stroke-width="1"/>
<circle cx="90" cy="638.74" r="8.58" fill="#e8a3b5" stroke="none"/>
<text x="90" y="642.74" font-family="sans-serif" font-size="13" font-weight="bold" text-anchor="middle" fill="#fff">3</text>
<text x="90" y="676.32" font-family="sans-serif" font-size="14" font-weight="normal" text-anchor="middle" fill="#222"> </text>
<line x1="115.124" y1="622.24" x2="152.876" y2="622.24" stroke="#444" stroke-width="1"/>
<circle cx="134" cy="622.24" r="8.58" fill="#e53935" stroke="none"/>
<text x="134" y="626.24" font-family="sans-serif" font-size="13" font-weight="bold" text-anchor="middle" fill="#fff">5</text>
<text x="134" y="676.32" font-family="sans-serif" font-size="14" font-weight="normal" text-anchor="middle" fill="#222"> </text>
<circle cx="178" cy="594.74" r="8.58" fill="#43a047" stroke="none"/>
<text x="178" y="598.74" font-family="sans-serif" font-size="13" font-weight="bold" text-anchor="middle" fill="#fff">8</text>
<text x="178" y="676.32" font-family="sans-serif" font-size="14" font-weight="normal" text-anchor="middle" fill="#222"> </text>
<circle cx="222" cy="572.74" r="8.58" fill="#00acc1" stroke="none"/>
<text x="222" y="576.74" font-family="sans-serif" font-size="13" font-weight="bold" text-anchor="middle" fill="#fff">10</text>
<text x="222" y="676.32" font-family="sans-serif" font-size="14" font-weight="normal" text-anchor="middle" fill="#222"> </text>
<line x1="247.124" y1="556.24" x2="284.876" y2="556.24" stroke="#444" stroke-width="1"/>
<circle cx="266" cy="556.24" r="8.58" fill="#42a5f5" stroke="none"/>
<text x="266" y="560.24" font-family="sans-serif" font-size="13" font-weight="bold" text-anchor="middle" fill="#fff">12</text>
<text x="266" y="676.32" font-family="sans-serif" font-size="14" font-weight="normal" text-anchor="middle" fill="#222"> </text>
<circle cx="310" cy="594.74" r="8.58" fill="#43a047" stroke="none"/>
<text x="310" y="598.74" font-family="sans-serif" font-size="13" font-weight="bold" text-anchor="middle" fill="#fff">8</text>
<text x="310" y="676.32" font-family="sans-serif" font-size="14" font-weight="normal" text-anchor="middle" fill="#222"> </text>
<circle cx="354" cy="572.74" r="8.58" fill="#00acc1" stroke="none"/>
<text x="354" y="576.74" font-family="sans-serif" font-size="13" font-weight="bold" text-anchor="middle" fill="#fff">10</text>
<text x="354" y="676.32" font-family="sans-serif" font-size="14" font-weight="normal" text-anchor="middle" fill="#222"> </text>
<line x1="379.124" y1="556.24" x2="416.876" y2="556.24" stroke="#444" stroke-width="1"/>
<circle cx="398" cy="556.24" r="8.58" fill="#42a5f5" stroke="none"/>
<text x="398" y="560.24" font-family="sans-serif" font-size="13" font-weight="bold" text-anchor="middle" fill="#fff">12</text>
<text x="398" y="676.32" font-family="sans-serif" font-size="14" font-weight="normal" text-anchor="middle" fill="#222"> </text>
<line x1="423.124" y1="622.24" x2="460.876" y2="622.24" stroke="#444" stroke-width="1"/>
<line x1="423.124" y1="633.24" x2="460.876" y2="633.24" stroke="#444" stroke-width="1"/>
<line x1="423.124" y1="644.24" x2="460.876" y2="644.24" stroke="#444" stroke-width="1"/>
<line x1="423.124" y1="655.24" x2="460.876" y2="655.24" stroke="#444" stroke-width="1"/>
<circle cx="442" cy="649.74" r="8.58" fill="#8e5cc7" stroke="none"/>
<text x="442" y="653.74" font-family="sans-serif" font-size="13" font-weight="bold" text-anchor="middle" fill="#fff">2</text>
<text x="442" y="676.32" font-family="sans-serif" font-size="14" font-weight="normal" text-anchor="middle" fill="#222"> </text>
<line x1="467.124" y1="622.24" x2="504.876" y2="622.24" stroke="#444" stroke-width="1"/>
<circle cx="486" cy="622.24" r="8.58" fill="#e53935" stroke="none"/>
<text x="486" y="626.24" font-family="sans-serif" font-size="13" font-weight="bold" text-anchor="middle" fill="#fff">5</text>
<text x="486" y="676.32" font-family="sans-serif" font-size="14" font-weight="normal" text-anchor="middle" fill="#222"> </text>
<circle cx="530" cy="605.74" r="8.58" fill="#fbc02d" stroke="none"/>
<text x="530" y="609.74" font-family="sans-serif" font-size="13" font-weight="bold" text-anchor="middle" fill="#fff">7</text>
<text x="530" y="676.32" font-family="sans-serif" font-size="14" font-weight="normal" text-anchor="middle" fill="#222"> </text>
<circle cx="574" cy="583.74" r="8.58" fill="#2e7d32" stroke="none"/>
<text x="574" y="587.74" font-family="sans-serif" font-size="13" font-weight="bold" text-anchor="middle" fill="#fff">9</text>
<text x="574" y="676.32" font-family="sans-serif" font-size="14" font-weight="normal" text-anchor="middle" fill="#222"> </text>
<circle cx="618" cy="567.24" r="8.58" fill="#81d4fa" stroke="none"/>
<text x="618" y="571.24" font-family="sans-serif" font-size="13" font-weight="bold" text-anchor="middle" fill="#fff">11</text>
<text x="618" y="676.32" font-family="sans-serif" font-size="14" font-weight="normal" text-anchor="middle" fill="#222"> </text>
<circle cx="662" cy="605.74" r="8.58" fill="#fbc02d" stroke="none"/>
<text x="662" y="609.74" font-family="sans-serif" font-size="13" font-weight="bold" text-anchor="middle" fill="#fff">7</text>
<text x="662" y="676.32" font-family="sans-serif" font-size="14" font-weight="normal" text-anchor="middle" fill="#222"> </text>
<circle cx="706" cy="583.74" r="8.58" fill="#2e7d32" stroke="none"/>
<text x="706" y="587.74" font-family="sans-serif" font-size="13" font-weight="bold" text-anchor="middle" fill="#fff">9</text>
<text x="706" y="676.32" font-family="sans-serif" font-size="14" font-weight="normal" text-anchor="middle" fill="#222"> </text>
<circle cx="750" cy="567.24" r="8.58" fill="#81d4fa" stroke="none"/>
<text x="750" y="571.24" font-family="sans-serif" font-size="13" font-weight="bold" text-anchor="middle" fill="#fff">11</text>
<line x1="50" y1="722.32" x2="794" y2="722.32" stroke="#444" stroke-width="1"/>
<line x1="50" y1="733.32" x2="794" y2="733.32" stroke="#444" stroke-width="1"/>
<line x1="50" y1="744.32" x2="794" y2="744.32" stroke="#444" stroke-width="1"/>
<line x1="50" y1="755.32" x2="794" y2="755.32" stroke="#444" stroke-width="1"/>
<line x1="50" y1="766.32" x2="794" y2="766.32" stroke="#444" stroke-width="1"/>
<line x1="50" y1="722.32" x2="50" y2="766.32" stroke="#444" stroke-width="1"/>
<line x1="794" y1="722.32" x2="794" y2="766.32" stroke="#444" stroke-width="1"/>
<text x="62" y="763.57" font-size="55" font-family="FreeSerif, DejaVu Serif, Times New Roman, serif" text-anchor="middle" fill="#222">&#x1D11E;</text>
<line x1="71.124" y1="777.32" x2="108.876" y2="777.32" stroke="#444" stroke-width="1"/>
<line x1="71.124" y1="788.32" x2="108.876" y2="788.32" stroke="#444" stroke-width="1"/>
<line x1="71.124" y1="799.32" x2="108.876" y2="799.32" stroke="#444" stroke-width="1"/>
<line x1="71.124" y1="810.32" x2="108.876" y2="810.32" stroke="#444" stroke-width="1"/>
<circle cx="90" cy="804.82" r="8.58" fill="#8e5cc7" stroke="none"/>
<text x="90" y="808.82" font-family="sans-serif" font-size="13" font-weight="bold" text-anchor="middle" fill="#fff">2</text>
<text x="90" y="831.4000000000001" font-family="sans-serif" font-size="14" font-weight="normal" text-anchor="middle" fill="#222"> </text>
<line x1="115.124" y1="777.32" x2="152.876" y2="777.32" stroke="#444" stroke-width="1"/>
<line x1="115.124" y1="788.32" x2="152.876" y2="788.32" stroke="#444" stroke-width="1"/>
<circle cx="134" cy="788.32" r="8.58" fill="#d81b60" stroke="none"/>
<text x="134" y="792.32" font-family="sans-serif" font-size="13" font-weight="bold" text-anchor="middle" fill="#fff">4</text>
<text x="134" y="831.4000000000001" font-family="sans-serif" font-size="14" font-weight="normal" text-anchor="middle" fill="#222"> </text>
<circle cx="178" cy="766.32" r="8.58" fill="#f57c00" stroke="none"/>
<text x="178" y="770.32" font-family="sans-serif" font-size="13" font-weight="bold" text-anchor="middle" fill="#fff">6</text>
<text x="178" y="831.4000000000001" font-family="sans-serif" font-size="14" font-weight="normal" text-anchor="middle" fill="#222"> </text>
<circle cx="222" cy="749.82" r="8.58" fill="#43a047" stroke="none"/>
<text x="222" y="753.82" font-family="sans-serif" font-size="13" font-weight="bold" text-anchor="middle" fill="#fff">8</text>
<text x="222" y="831.4000000000001" font-family="sans-serif" font-size="14" font-weight="normal" text-anchor="middle" fill="#222"> </text>
<circle cx="266" cy="722.32" r="8.58" fill="#81d4fa" stroke="none"/>
<text x="266" y="726.32" font-family="sans-serif" font-size="13" font-weight="bold" text-anchor="middle" fill="#fff">11</text>
<text x="266" y="831.4000000000001" font-family="sans-serif" font-size="14" font-weight="normal" text-anchor="middle" fill="#222"> </text>
<circle cx="310" cy="766.32" r="8.58" fill="#f57c00" stroke="none"/>
<text x="310" y="770.32" font-family="sans-serif" font-size="13" font-weight="bold" text-anchor="middle" fill="#fff">6</text>
<text x="310" y="831.4000000000001" font-family="sans-serif" font-size="14" font-weight="normal" text-anchor="middle" fill="#222"> </text>
<circle cx="354" cy="749.82" r="8.58" fill="#43a047" stroke="none"/>
<text x="354" y="753.82" font-family="sans-serif" font-size="13" font-weight="bold" text-anchor="middle" fill="#fff">8</text>
<text x="354" y="831.4000000000001" font-family="sans-serif" font-size="14" font-weight="normal" text-anchor="middle" fill="#222"> </text>
<circle cx="398" cy="722.32" r="8.58" fill="#81d4fa" stroke="none"/>
<text x="398" y="726.32" font-family="sans-serif" font-size="13" font-weight="bold" text-anchor="middle" fill="#fff">11</text>
<text x="398" y="831.4000000000001" font-family="sans-serif" font-size="14" font-weight="normal" text-anchor="middle" fill="#222">  </text>
<line x1="423.124" y1="777.32" x2="460.876" y2="777.32" stroke="#444" stroke-width="1"/>
<circle cx="442" cy="777.32" r="8.58" fill="#e53935" stroke="none"/>
<text x="442" y="781.32" font-family="sans-serif" font-size="13" font-weight="bold" text-anchor="middle" fill="#fff">5</text>
<text x="442" y="831.4000000000001" font-family="sans-serif" font-size="14" font-weight="normal" text-anchor="middle" fill="#222"> </text>
<circle cx="486" cy="755.32" r="8.58" fill="#222" stroke="none"/>
<text x="486" y="759.32" font-family="sans-serif" font-size="13" font-weight="bold" text-anchor="middle" fill="#fff">5</text>
<text x="486" y="831.4000000000001" font-family="sans-serif" font-size="14" font-weight="normal" text-anchor="middle" fill="#222"> </text>
<circle cx="530" cy="738.82" r="8.58" fill="#2e7d32" stroke="none"/>
<text x="530" y="742.82" font-family="sans-serif" font-size="13" font-weight="bold" text-anchor="middle" fill="#fff">9</text>
<text x="530" y="831.4000000000001" font-family="sans-serif" font-size="14" font-weight="normal" text-anchor="middle" fill="#222"> </text>
<circle cx="574" cy="722.32" r="8.58" fill="#81d4fa" stroke="none"/>
<text x="574" y="726.32" font-family="sans-serif" font-size="13" font-weight="bold" text-anchor="middle" fill="#fff">11</text>
<text x="574" y="831.4000000000001" font-family="sans-serif" font-size="14" font-weight="normal" text-anchor="middle" fill="#222"> </text>
<line x1="599.124" y1="711.32" x2="636.876" y2="711.32" stroke="#444" stroke-width="1"/>
<circle cx="618" cy="711.32" r="8.58" fill="#42a5f5" stroke="none"/>
<text x="618" y="715.32" font-family="sans-serif" font-size="13" font-weight="bold" text-anchor="middle" fill="#fff">12</text>
<text x="618" y="831.4000000000001" font-family="sans-serif" font-size="14" font-weight="normal" text-anchor="middle" fill="#222"> </text>
<circle cx="662" cy="738.82" r="8.58" fill="#2e7d32" stroke="none"/>
<text x="662" y="742.82" font-family="sans-serif" font-size="13" font-weight="bold" text-anchor="middle" fill="#fff">9</text>
<text x="662" y="831.4000000000001" font-family="sans-serif" font-size="14" font-weight="normal" text-anchor="middle" fill="#222"> </text>
<circle cx="706" cy="722.32" r="8.58" fill="#81d4fa" stroke="none"/>
<text x="706" y="726.32" font-family="sans-serif" font-size="13" font-weight="bold" text-anchor="middle" fill="#fff">11</text>
<text x="706" y="831.4000000000001" font-family="sans-serif" font-size="14" font-weight="normal" text-anchor="middle" fill="#222"> </text>
<line x1="731.124" y1="711.32" x2="768.876" y2="711.32" stroke="#444" stroke-width="1"/>
<circle cx="750" cy="711.32" r="8.58" fill="#42a5f5" stroke="none"/>
<text x="750" y="715.32" font-family="sans-serif" font-size="13" font-weight="bold" text-anchor="middle" fill="#fff">12</text>
<line x1="50" y1="877.4000000000001" x2="794" y2="877.4000000000001" stroke="#444" stroke-width="1"/>
<line x1="50" y1="888.4000000000001" x2="794" y2="888.4000000000001" stroke="#444" stroke-width="1"/>
<line x1="50" y1="899.4000000000001" x2="794" y2="899.4000000000001" stroke="#444" stroke-width="1"/>
<line x1="50" y1="910.4000000000001" x2="794" y2="910.4000000000001" stroke="#444" stroke-width="1"/>
<line x1="50" y1="921.4000000000001" x2="794" y2="921.4000000000001" stroke="#444" stroke-width="1"/>
<line x1="50" y1="877.4000000000001" x2="50" y2="921.4000000000001" stroke="#444" stroke-width="1"/>
<line x1="794" y1="877.4000000000001" x2="794" y2="921.4000000000001" stroke="#444" stroke-width="1"/>
<text x="62" y="918.6500000000001" font-size="55" font-family="FreeSerif, DejaVu Serif, Times New Roman, serif" text-anchor="middle" fill="#222">&#x1D11E;</text>
<line x1="71.124" y1="932.4000000000001" x2="108.876" y2="932.4000000000001" stroke="#444" stroke-width="1"/>
<line x1="71.124" y1="943.4000000000001" x2="108.876" y2="943.4000000000001" stroke="#444" stroke-width="1"/>
<line x1="71.124" y1="954.4000000000001" x2="108.876" y2="954.4000000000001" stroke="#444" stroke-width="1"/>
<line x1="71.124" y1="965.4000000000001" x2="108.876" y2="965.4000000000001" stroke="#444" stroke-width="1"/>
<line x1="71.124" y1="976.4000000000001" x2="108.876" y2="976.4000000000001" stroke="#444" stroke-width="1"/>
<circle cx="90" cy="970.9000000000001" r="8.58" fill="#6f42c1" stroke="none"/>
<text x="90" y="974.9000000000001" font-family="sans-serif" font-size="13" font-weight="bold" text-anchor="middle" fill="#fff">1</text>
<text x="90" y="997.4800000000001" font-family="sans-serif" font-size="14" font-weight="normal" text-anchor="middle" fill="#222"> </text>
<line x1="115.124" y1="932.4000000000001" x2="152.876" y2="932.4000000000001" stroke="#444" stroke-width="1"/>
<line x1="115.124" y1="943.4000000000001" x2="152.876" y2="943.4000000000001" stroke="#444" stroke-width="1"/>
<line x1="115.124" y1="954.4000000000001" x2="152.876" y2="954.4000000000001" stroke="#444" stroke-width="1"/>
<circle cx="134" cy="948.9000000000001" r="8.58" fill="#e8a3b5" stroke="none"/>
<text x="134" y="952.9000000000001" font-family="sans-serif" font-size="13" font-weight="bold" text-anchor="middle" fill="#fff">3</text>
<text x="134" y="997.4800000000001" font-family="sans-serif" font-size="14" font-weight="normal" text-anchor="middle" fill="#222"> </text>
<line x1="159.124" y1="932.4000000000001" x2="196.876" y2="932.4000000000001" stroke="#444" stroke-width="1"/>
<circle cx="178" cy="932.4000000000001" r="8.58" fill="#e53935" stroke="none"/>
<text x="178" y="936.4000000000001" font-family="sans-serif" font-size="13" font-weight="bold" text-anchor="middle" fill="#fff">5</text>
<text x="178" y="997.4800000000001" font-family="sans-serif" font-size="14" font-weight="normal" text-anchor="middle" fill="#222"> </text>
<circle cx="222" cy="904.9000000000001" r="8.58" fill="#43a047" stroke="none"/>
<text x="222" y="908.9000000000001" font-family="sans-serif" font-size="13" font-weight="bold" text-anchor="middle" fill="#fff">8</text>
<text x="222" y="997.4800000000001" font-family="sans-serif" font-size="14" font-weight="normal" text-anchor="middle" fill="#222"> </text>
<circle cx="266" cy="882.9000000000001" r="8.58" fill="#00acc1" stroke="none"/>
<text x="266" y="886.9000000000001" font-family="sans-serif" font-size="13" font-weight="bold" text-anchor="middle" fill="#fff">10</text>
<text x="266" y="997.4800000000001" font-family="sans-serif" font-size="14" font-weight="normal" text-anchor="middle" fill="#222"> </text>
<line x1="291.124" y1="932.4000000000001" x2="328.876" y2="932.4000000000001" stroke="#444" stroke-width="1"/>
<circle cx="310" cy="932.4000000000001" r="8.58" fill="#e53935" stroke="none"/>
<text x="310" y="936.4000000000001" font-family="sans-serif" font-size="13" font-weight="bold" text-anchor="middle" fill="#fff">5</text>
<text x="310" y="997.4800000000001" font-family="sans-serif" font-size="14" font-weight="normal" text-anchor="middle" fill="#222"> </text>
<circle cx="354" cy="904.9000000000001" r="8.58" fill="#43a047" stroke="none"/>
<text x="354" y="908.9000000000001" font-family="sans-serif" font-size="13" font-weight="bold" text-anchor="middle" fill="#fff">8</text>
<text x="354" y="997.4800000000001" font-family="sans-serif" font-size="14" font-weight="normal" text-anchor="middle" fill="#222"> </text>
<circle cx="398" cy="882.9000000000001" r="8.58" fill="#00acc1" stroke="none"/>
<text x="398" y="886.9000000000001" font-family="sans-serif" font-size="13" font-weight="bold" text-anchor="middle" fill="#fff">10</text>
<text x="398" y="997.4800000000001" font-family="sans-serif" font-size="14" font-weight="normal" text-anchor="middle" fill="#222">  </text>
<line x1="423.124" y1="932.4000000000001" x2="460.876" y2="932.4000000000001" stroke="#444" stroke-width="1"/>
<line x1="423.124" y1="943.4000000000001" x2="460.876" y2="943.4000000000001" stroke="#444" stroke-width="1"/>
<line x1="423.124" y1="954.4000000000001" x2="460.876" y2="954.4000000000001" stroke="#444" stroke-width="1"/>
<line x1="423.124" y1="965.4000000000001" x2="460.876" y2="965.4000000000001" stroke="#444" stroke-width="1"/>
<line x1="423.124" y1="976.4000000000001" x2="460.876" y2="976.4000000000001" stroke="#444" stroke-width="1"/>
<circle cx="442" cy="970.9000000000001" r="8.58" fill="#6f42c1" stroke="none"/>
<text x="442" y="974.9000000000001" font-family="sans-serif" font-size="13" font-weight="bold" text-anchor="middle" fill="#fff">1</text>
<text x="442" y="997.4800000000001" font-family="sans-serif" font-size="14" font-weight="normal" text-anchor="middle" fill="#222"> </text>
<line x1="467.124" y1="932.4000000000001" x2="504.876" y2="932.4000000000001" stroke="#444" stroke-width="1"/>
<line x1="467.124" y1="943.4000000000001" x2="504.876" y2="943.4000000000001" stroke="#444" stroke-width="1"/>
<line x1="467.124" y1="954.4000000000001" x2="504.876" y2="954.4000000000001" stroke="#444" stroke-width="1"/>
<circle cx="486" cy="954.4000000000001" r="8.58" fill="#222" stroke="none"/>
<text x="486" y="958.4000000000001" font-family="sans-serif" font-size="13" font-weight="bold" text-anchor="middle" fill="#fff">2</text>
<text x="486" y="997.4800000000001" font-family="sans-serif" font-size="14" font-weight="normal" text-anchor="middle" fill="#222"> </text>
<circle cx="530" cy="921.4000000000001" r="8.58" fill="#f57c00" stroke="none"/>
<text x="530" y="925.4000000000001" font-family="sans-serif" font-size="13" font-weight="bold" text-anchor="middle" fill="#fff">6</text>
<text x="530" y="997.4800000000001" font-family="sans-serif" font-size="14" font-weight="normal" text-anchor="middle" fill="#222"> </text>
<circle cx="574" cy="904.9000000000001" r="8.58" fill="#43a047" stroke="none"/>
<text x="574" y="908.9000000000001" font-family="sans-serif" font-size="13" font-weight="bold" text-anchor="middle" fill="#fff">8</text>
<text x="574" y="997.4800000000001" font-family="sans-serif" font-size="14" font-weight="normal" text-anchor="middle" fill="#222"> </text>
<circle cx="618" cy="871.9000000000001" r="8.58" fill="#222" stroke="none"/>
<text x="618" y="875.9000000000001" font-family="sans-serif" font-size="13" font-weight="bold" text-anchor="middle" fill="#fff">8</text>
<text x="618" y="997.4800000000001" font-family="sans-serif" font-size="14" font-weight="normal" text-anchor="middle" fill="#222"> </text>
<circle cx="662" cy="921.4000000000001" r="8.58" fill="#f57c00" stroke="none"/>
<text x="662" y="925.4000000000001" font-family="sans-serif" font-size="13" font-weight="bold" text-anchor="middle" fill="#fff">6</text>
<text x="662" y="997.4800000000001" font-family="sans-serif" font-size="14" font-weight="normal" text-anchor="middle" fill="#222"> </text>
<circle cx="706" cy="904.9000000000001" r="8.58" fill="#43a047" stroke="none"/>
<text x="706" y="908.9000000000001" font-family="sans-serif" font-size="13" font-weight="bold" text-anchor="middle" fill="#fff">8</text>
<text x="706" y="997.4800000000001" font-family="sans-serif" font-size="14" font-weight="normal" text-anchor="middle" fill="#222"> </text>
<circle cx="750" cy="871.9000000000001" r="8.58" fill="#222" stroke="none"/>
<text x="750" y="875.9000000000001" font-family="sans-serif" font-size="13" font-weight="bold" text-anchor="middle" fill="#fff">8</text>
</svg>