<svg xmlns="http://www.w3.org/2000/svg" width="1038" height="486.15999999999997">
<rect width="100%" height="100%" fill="white"/>
<text x="519.0" y="40" font-family="serif" font-size="28" font-weight="normal" text-anchor="middle" fill="#222">Super Mario Theme</text>
<text x="519.0" y="76" font-family="sans-serif" font-size="14" font-weight="normal" text-anchor="middle" fill="#555">Hand-curated lead-line arrangement from the provided MIDI</text>
<text x="519.0" y="96" font-family="sans-serif" font-size="14" font-weight="normal" text-anchor="middle" fill="#555">Opening theme only, transposed to fit the 14-key toy piano</text>
<line x1="50" y1="166" x2="1014" y2="166" stroke="#444" stroke-width="1"/>
<line x1="50" y1="177" x2="1014" y2="177" stroke="#444" stroke-width="1"/>
<line x1="50" y1="188" x2="1014" y2="188" stroke="#444" stroke-width="1"/>
<line x1="50" y1="199" x2="1014" y2="199" stroke="#444" stroke-width="1"/>
<line x1="50" y1="210" x2="1014" y2="210" stroke="#444" stroke-width="1"/>
<line x1="50" y1="166" x2="50" y2="210" stroke="#444" stroke-width="1"/>
<line x1="1014" y1="166" x2="1014" y2="210" stroke="#444" stroke-width="1"/>
<text x="62" y="207.25" font-size="55" font-family="FreeSerif, DejaVu Serif, Times New Roman, serif" text-anchor="middle" fill="#222">&#x1D11E;</text>
<circle cx="90" cy="182.5" r="8.58" fill="#2e7d32" stroke="none"/>
<text x="90" y="186.5" font-family="sans-serif" font-size="13" font-weight="bold" text-anchor="middle" fill="#fff">9</text>
<text x="90" y="275.08" font-family="sans-serif" font-size="14" font-weight="normal" text-anchor="middle" fill="#222"> </text>
<circle cx="134" cy="182.5" r="8.58" fill="#2e7d32" stroke="none"/>
<text x="134" y="186.5" font-family="sans-serif" font-size="13" font-weight="bold" text-anchor="middle" fill="#fff">9</text>
<text x="134" y="275.08" font-family="sans-serif" font-size="14" font-weight="normal" text-anchor="middle" fill="#222"> </text>
<circle cx="178" cy="182.5" r="8.58" fill="#2e7d32" stroke="none"/>
<text x="178" y="186.5" font-family="sans-serif" font-size="13" font-weight="bold" text-anchor="middle" fill="#fff">9</text>
<text x="178" y="275.08" font-family="sans-serif" font-size="14" font-weight="normal" text-anchor="middle" fill="#222"> </text>
<circle cx="222" cy="204.5" r="8.58" fill="#fbc02d" stroke="none"/>
<text x="222" y="208.5" font-family="sans-serif" font-size="13" font-weight="bold" text-anchor="middle" fill="#fff">7</text>
<text x="222" y="275.08" font-family="sans-serif" font-size="14" font-weight="normal" text-anchor="middle" fill="#222"> </text>
<circle cx="266" cy="182.5" r="8.58" fill="#2e7d32" stroke="none"/>
<text x="266" y="186.5" font-family="sans-serif" font-size="13" font-weight="bold" text-anchor="middle" fill="#fff">9</text>
<text x="266" y="275.08" font-family="sans-serif" font-size="14" font-weight="normal" text-anchor="middle" fill="#222"> </text>
<circle cx="310" cy="166.0" r="8.58" fill="#81d4fa" stroke="none"/>
<text x="310" y="170.0" font-family="sans-serif" font-size="13" font-weight="bold" text-anchor="middle" fill="#fff">11</text>
<text x="310" y="275.08" font-family="sans-serif" font-size="14" font-weight="normal" text-anchor="middle" fill="#222"> </text>
<line x1="335.124" y1="221.0" x2="372.876" y2="221.0" stroke="#444" stroke-width="1"/>
<line x1="335.124" y1="232.0" x2="372.876" y2="232.0" stroke="#444" stroke-width="1"/>
<circle cx="354" cy="232.0" r="8.58" fill="#d81b60" stroke="none"/>
<text x="354" y="236.0" font-family="sans-serif" font-size="13" font-weight="bold" text-anchor="middle" fill="#fff">4</text>
<text x="354" y="275.08" font-family="sans-serif" font-size="14" font-weight="normal" text-anchor="middle" fill="#222"> </text>
<circle cx="398" cy="204.5" r="8.58" fill="#fbc02d" stroke="none"/>
<text x="398" y="208.5" font-family="sans-serif" font-size="13" font-weight="bold" text-anchor="middle" fill="#fff">7</text>
<text x="398" y="275.08" font-family="sans-serif" font-size="14" font-weight="normal" text-anchor="middle" fill="#222"> </text>
<line x1="423.124" y1="221.0" x2="460.876" y2="221.0" stroke="#444" stroke-width="1"/>
<line x1="423.124" y1="232.0" x2="460.876" y2="232.0" stroke="#444" stroke-width="1"/>
<circle cx="442" cy="232.0" r="8.58" fill="#d81b60" stroke="none"/>
<text x="442" y="236.0" font-family="sans-serif" font-size="13" font-weight="bold" text-anchor="middle" fill="#fff">4</text>
<text x="442" y="275.08" font-family="sans-serif" font-size="14" font-weight="normal" text-anchor="middle" fill="#222"> </text>
<line x1="467.124" y1="221.0" x2="504.876" y2="221.0" stroke="#444" stroke-width="1"/>
<line x1="467.124" y1="232.0" x2="504.876" y2="232.0" stroke="#444" stroke-width="1"/>
<line x1="467.124" y1="243.0" x2="504.876" y2="243.0" stroke="#444" stroke-width="1"/>
<line x1="467.124" y1="254.0" x2="504.876" y2="254.0" stroke="#444" stroke-width="1"/>
<circle cx="486" cy="248.5" r="8.58" fill="#8e5cc7" stroke="none"/>
<text x="486" y="252.5" font-family="sans-serif" font-size="13" font-weight="bold" text-anchor="middle" fill="#fff">2</text>
<text x="486" y="275.08" font-family="sans-serif" font-size="14" font-weight="normal" text-anchor="middle" fill="#222"> </text>
<line x1="511.124" y1="221.0" x2="548.876" y2="221.0" stroke="#444" stroke-width="1"/>
<circle cx="530" cy="221.0" r="8.58" fill="#e53935" stroke="none"/>
<text x="530" y="225.0" font-family="sans-serif" font-size="13" font-weight="bold" text-anchor="middle" fill="#fff">5</text>
<text x="530" y="275.08" font-family="sans-serif" font-size="14" font-weight="normal" text-anchor="middle" fill="#222"> </text>
<circle cx="574" cy="210.0" r="8.58" fill="#f57c00" stroke="none"/>
<text x="574" y="214.0" font-family="sans-serif" font-size="13" font-weight="bold" text-anchor="middle" fill="#fff">6</text>
<text x="574" y="275.08" font-family="sans-serif" font-size="14" font-weight="normal" text-anchor="middle" fill="#222"> </text>
<line x1="599.124" y1="221.0" x2="636.876" y2="221.0" stroke="#444" stroke-width="1"/>
<circle cx="618" cy="215.5" r="8.58" fill="#222" stroke="none"/>
<text x="618" y="219.5" font-family="sans-serif" font-size="13" font-weight="bold" text-anchor="middle" fill="#fff">4</text>
<text x="618" y="275.08" font-family="sans-serif" font-size="14" font-weight="normal" text-anchor="middle" fill="#222"> </text>
<line x1="643.124" y1="221.0" x2="680.876" y2="221.0" stroke="#444" stroke-width="1"/>
<circle cx="662" cy="221.0" r="8.58" fill="#e53935" stroke="none"/>
<text x="662" y="225.0" font-family="sans-serif" font-size="13" font-weight="bold" text-anchor="middle" fill="#fff">5</text>
<text x="662" y="275.08" font-family="sans-serif" font-size="14" font-weight="normal" text-anchor="middle" fill="#222"> </text>
<line x1="687.124" y1="221.0" x2="724.876" y2="221.0" stroke="#444" stroke-width="1"/>
<line x1="687.124" y1="232.0" x2="724.876" y2="232.0" stroke="#444" stroke-width="1"/>
<circle cx="706" cy="232.0" r="8.58" fill="#d81b60" stroke="none"/>
<text x="706" y="236.0" font-family="sans-serif" font-size="13" font-weight="bold" text-anchor="middle" fill="#fff">4</text>
<text x="706" y="275.08" font-family="sans-serif" font-size="14" font-weight="normal" text-anchor="middle" fill="#222"> </text>
<circle cx="750" cy="182.5" r="8.58" fill="#2e7d32" stroke="none"/>
<text x="750" y="186.5" font-family="sans-serif" font-size="13" font-weight="bold" text-anchor="middle" fill="#fff">9</text>
<text x="750" y="275.08" font-family="sans-serif" font-size="14" font-weight="normal" text-anchor="middle" fill="#222"> </text>
<circle cx="794" cy="166.0" r="8.58" fill="#81d4fa" stroke="none"/>
<text x="794" y="170.0" font-family="sans-serif" font-size="13" font-weight="bold" text-anchor="middle" fill="#fff">11</text>
<text x="794" y="275.08" font-family="sans-serif" font-size="14" font-weight="normal" text-anchor="middle" fill="#222"> </text>
<line x1="819.124" y1="155.0" x2="856.876" y2="155.0" stroke="#444" stroke-width="1"/>
<circle cx="838" cy="155.0" r="8.58" fill="#42a5f5" stroke="none"/>
<text x="838" y="159.0" font-family="sans-serif" font-size="13" font-weight="bold" text-anchor="middle" fill="#fff">12</text>
<text x="838" y="275.08" font-family="sans-serif" font-size="14" font-weight="normal" text-anchor="middle" fill="#222"> </text>
<circle cx="882" cy="177.0" r="8.58" fill="#222" stroke="none"/>
<text x="882" y="181.0" font-family="sans-serif" font-size="13" font-weight="bold" text-anchor="middle" fill="#fff">7</text>
<text x="882" y="275.08" font-family="sans-serif" font-size="14" font-weight="normal" text-anchor="middle" fill="#222"> </text>
<circle cx="926" cy="166.0" r="8.58" fill="#81d4fa" stroke="none"/>
<text x="926" y="170.0" font-family="sans-serif" font-size="13" font-weight="bold" text-anchor="middle" fill="#fff">11</text>
<text x="926" y="275.08" font-family="sans-serif" font-size="14" font-weight="normal" text-anchor="middle" fill="#222"> </text>
<circle cx="970" cy="182.5" r="8.58" fill="#2e7d32" stroke="none"/>
<text x="970" y="186.5" font-family="sans-serif" font-size="13" font-weight="bold" text-anchor="middle" fill="#fff">9</text>
<line x1="50" y1="321.08" x2="1014" y2="321.08" stroke="#444" stroke-width="1"/>
<line x1="50" y1="332.08" x2="1014" y2="332.08" stroke="#444" stroke-width="1"/>
<line x1="50" y1="343.08" x2="1014" y2="343.08" stroke="#444" stroke-width="1"/>
<line x1="50" y1="354.08" x2="1014" y2="354.08" stroke="#444" stroke-width="1"/>
<line x1="50" y1="365.08" x2="1014" y2="365.08" stroke="#444" stroke-width="1"/>
<line x1="50" y1="321.08" x2="50" y2="365.08" stroke="#444" stroke-width="1"/>
<line x1="1014" y1="321.08" x2="1014" y2="365.08" stroke="#444" stroke-width="1"/>
<text x="62" y="362.33" font-size="55" font-family="FreeSerif, DejaVu Serif, Times New Roman, serif" text-anchor="middle" fill="#222">&#x1D11E;</text>
<circle cx="90" cy="359.58" r="8.58" fill="#fbc02d" stroke="none"/>
<text x="90" y="363.58" font-family="sans-serif" font-size="13" font-weight="bold" text-anchor="middle" fill="#fff">7</text>
<text x="90" y="430.15999999999997" font-family="sans-serif" font-size="14" font-weight="normal" text-anchor="middle" fill="#222"> </text>
<circle cx="134" cy="348.58" r="8.58" fill="#43a047" stroke="none"/>
<text x="134" y="352.58" font-family="sans-serif" font-size="13" font-weight="bold" text-anchor="middle" fill="#fff">8</text>
<text x="134" y="430.15999999999997" font-family="sans-serif" font-size="14" font-weight="normal" text-anchor="middle" fill="#222"> </text>
<circle cx="178" cy="365.08" r="8.58" fill="#f57c00" stroke="none"/>
<text x="178" y="369.08" font-family="sans-serif" font-size="13" font-weight="bold" text-anchor="middle" fill="#fff">6</text>
<text x="178" y="430.15999999999997" font-family="sans-serif" font-size="14" font-weight="normal" text-anchor="middle" fill="#222"> </text>
<circle cx="222" cy="359.58" r="8.58" fill="#fbc02d" stroke="none"/>
<text x="222" y="363.58" font-family="sans-serif" font-size="13" font-weight="bold" text-anchor="middle" fill="#fff">7</text>
<text x="222" y="430.15999999999997" font-family="sans-serif" font-size="14" font-weight="normal" text-anchor="middle" fill="#222"> </text>
<line x1="247.124" y1="376.08" x2="284.876" y2="376.08" stroke="#444" stroke-width="1"/>
<line x1="247.124" y1="387.08" x2="284.876" y2="387.08" stroke="#444" stroke-width="1"/>
<circle cx="266" cy="387.08" r="8.58" fill="#d81b60" stroke="none"/>
<text x="266" y="391.08" font-family="sans-serif" font-size="13" font-weight="bold" text-anchor="middle" fill="#fff">4</text>
<text x="266" y="430.15999999999997" font-family="sans-serif" font-size="14" font-weight="normal" text-anchor="middle" fill="#222"> </text>
<line x1="291.124" y1="376.08" x2="328.876" y2="376.08" stroke="#444" stroke-width="1"/>
<line x1="291.124" y1="387.08" x2="328.876" y2="387.08" stroke="#444" stroke-width="1"/>
<line x1="291.124" y1="398.08" x2="328.876" y2="398.08" stroke="#444" stroke-width="1"/>
<line x1="291.124" y1="409.08" x2="328.876" y2="409.08" stroke="#444" stroke-width="1"/>
<circle cx="310" cy="403.58" r="8.58" fill="#8e5cc7" stroke="none"/>
<text x="310" y="407.58" font-family="sans-serif" font-size="13" font-weight="bold" text-anchor="middle" fill="#fff">2</text>
<text x="310" y="430.15999999999997" font-family="sans-serif" font-size="14" font-weight="normal" text-anchor="middle" fill="#222"> </text>
<line x1="335.124" y1="376.08" x2="372.876" y2="376.08" stroke="#444" stroke-width="1"/>
<circle cx="354" cy="376.08" r="8.58" fill="#e53935" stroke="none"/>
<text x="354" y="380.08" font-family="sans-serif" font-size="13" font-weight="bold" text-anchor="middle" fill="#fff">5</text>
<text x="354" y="430.15999999999997" font-family="sans-serif" font-size="14" font-weight="normal" text-anchor="middle" fill="#222"> </text>
<circle cx="398" cy="365.08" r="8.58" fill="#f57c00" stroke="none"/>
<text x="398" y="369.08" font-family="sans-serif" font-size="13" font-weight="bold" text-anchor="middle" fill="#fff">6</text>
<text x="398" y="430.15999999999997" font-family="sans-serif" font-size="14" font-weight="normal" text-anchor="middle" fill="#222"> </text>
<line x1="423.124" y1="376.08" x2="460.876" y2="376.08" stroke="#444" stroke-width="1"/>
<circle cx="442" cy="370.58" r="8.58" fill="#222" stroke="none"/>
<text x="442" y="374.58" font-family="sans-serif" font-size="13" font-weight="bold" text-anchor="middle" fill="#fff">4</text>
<text x="442" y="430.15999999999997" font-family="sans-serif" font-size="14" font-weight="normal" text-anchor="middle" fill="#222"> </text>
<line x1="467.124" y1="376.08" x2="504.876" y2="376.08" stroke="#444" stroke-width="1"/>
<circle cx="486" cy="376.08" r="8.58" fill="#e53935" stroke="none"/>
<text x="486" y="380.08" font-family="sans-serif" font-size="13" font-weight="bold" text-anchor="middle" fill="#fff">5</text>
<text x="486" y="430.15999999999997" font-family="sans-serif" font-size="14" font-weight="normal" text-anchor="middle" fill="#222"> </text>
<line x1="511.124" y1="376.08" x2="548.876" y2="376.08" stroke="#444" stroke-width="1"/>
<line x1="511.124" y1="387.08" x2="548.876" y2="387.08" stroke="#444" stroke-width="1"/>
<circle cx="530" cy="387.08" r="8.58" fill="#d81b60" stroke="none"/>
<text x="530" y="391.08" font-family="sans-serif" font-size="13" font-weight="bold" text-anchor="middle" fill="#fff">4</text>
<text x="530" y="430.15999999999997" font-family="sans-serif" font-size="14" font-weight="normal" text-anchor="middle" fill="#222"> </text>
<circle cx="574" cy="337.58" r="8.58" fill="#2e7d32" stroke="none"/>
<text x="574" y="341.58" font-family="sans-serif" font-size="13" font-weight="bold" text-anchor="middle" fill="#fff">9</text>
<text x="574" y="430.15999999999997" font-family="sans-serif" font-size="14" font-weight="normal" text-anchor="middle" fill="#222"> </text>
<circle cx="618" cy="321.08" r="8.58" fill="#81d4fa" stroke="none"/>
<text x="618" y="325.08" font-family="sans-serif" font-size="13" font-weight="bold" text-anchor="middle" fill="#fff">11</text>
<text x="618" y="430.15999999999997" font-family="sans-serif" font-size="14" font-weight="normal" text-anchor="middle" fill="#222"> </text>
<line x1="643.124" y1="310.08" x2="680.876" y2="310.08" stroke="#444" stroke-width="1"/>
<circle cx="662" cy="310.08" r="8.58" fill="#42a5f5" stroke="none"/>
<text x="662" y="314.08" font-family="sans-serif" font-size="13" font-weight="bold" text-anchor="middle" fill="#fff">12</text>
<text x="662" y="430.15999999999997" font-family="sans-serif" font-size="14" font-weight="normal" text-anchor="middle" fill="#222"> </text>
<circle cx="706" cy="332.08" r="8.58" fill="#222" stroke="none"/>
<text x="706" y="336.08" font-family="sans-serif" font-size="13" font-weight="bold" text-anchor="middle" fill="#fff">7</text>
<text x="706" y="430.15999999999997" font-family="sans-serif" font-size="14" font-weight="normal" text-anchor="middle" fill="#222"> </text>
<circle cx="750" cy="321.08" r="8.58" fill="#81d4fa" stroke="none"/>
<text x="750" y="325.08" font-family="sans-serif" font-size="13" font-weight="bold" text-anchor="middle" fill="#fff">11</text>
<text x="750" y="430.15999999999997" font-family="sans-serif" font-size="14" font-weight="normal" text-anchor="middle" fill="#222"> </text>
<circle cx="794" cy="337.58" r="8.58" fill="#2e7d32" stroke="none"/>
<text x="794" y="341.58" font-family="sans-serif" font-size="13" font-weight="bold" text-anchor="middle" fill="#fff">9</text>
<text x="794" y="430.15999999999997" font-family="sans-serif" font-size="14" font-weight="normal" text-anchor="middle" fill="#222"> </text>
<circle cx="838" cy="359.58" r="8.58" fill="#fbc02d" stroke="none"/>
<text x="838" y="363.58" font-family="sans-serif" font-size="13" font-weight="bold" text-anchor="middle" fill="#fff">7</text>
<text x="838" y="430.15999999999997" font-family="sans-serif" font-size="14" font-weight="normal" text-anchor="middle" fill="#222"> </text>
<circle cx="882" cy="348.58" r="8.58" fill="#43a047" stroke="none"/>
<text x="882" y="352.58" font-family="sans-serif" font-size="13" font-weight="bold" text-anchor="middle" fill="#fff">8</text>
<text x="882" y="430.15999999999997" font-family="sans-serif" font-size="14" font-weight="normal" text-anchor="middle" fill="#222"> </text>
<circle cx="926" cy="365.08" r="8.58" fill="#f57c00" stroke="none"/>
<text x="926" y="369.08" font-family="sans-serif" font-size="13" font-weight="bold" text-anchor="middle" fill="#fff">6</text>
</svg>